<svg width="163" height="36" viewBox="0 0 163 36" fill="none" xmlns="http://www.w3.org/2000/svg">
<path d="M84.8125 16.8301C84.8511 13.543 87.0278 10.9713 90.3988 10.9713C93.1919 10.9713 95.3108 12.6728 95.4649 15.2252H93.8276C93.6542 13.5816 92.2865 12.4795 90.4373 12.4795C87.9716 12.4795 86.5269 14.6258 86.5269 16.8301C86.5269 19.1504 88.068 21.2 90.4373 21.2C92.2673 21.2 93.6542 20.1172 93.8661 18.2802H95.4842C95.2723 20.9293 93.4038 22.7082 90.3603 22.7082C86.8544 22.7082 84.8125 19.8465 84.8125 16.8301ZM97.449 16.8301C97.449 13.4656 99.7798 10.9713 103.132 10.9713C106.637 10.9713 108.795 13.6783 108.795 16.8301C108.795 20.2138 106.503 22.6888 103.151 22.6888C99.645 22.7082 97.449 20.0398 97.449 16.8301ZM107.119 16.8301C107.119 14.3744 105.52 12.4602 103.132 12.4602C100.627 12.4602 99.1249 14.5678 99.1249 16.8301C99.1249 19.247 100.666 21.2 103.132 21.2C105.655 21.2193 107.119 19.073 107.119 16.8301ZM111.222 22.4568V11.242H113.977L116.943 20.1945L117.097 21.432H117.328L117.482 20.1945L120.449 11.242H123.223V22.4568H121.566V12.3635H121.335L121.123 14.2777L118.388 22.4568H116.095L113.36 14.2777L113.148 12.3635H112.917V22.4568H111.222ZM142.755 22.4568L141.407 18.5316H137.169L135.821 22.4568H134.01L137.959 11.242H140.559L144.508 22.4568H142.755ZM137.631 17.1008H140.906L139.5 13.0402L139.384 12.0928H139.153L139.057 13.0402L137.631 17.1008ZM49.3881 16.8301C49.3881 13.3496 51.7766 10.9326 55.2247 10.9326C58.8076 10.9326 61.0614 13.5623 61.0614 16.8301C61.0614 20.2912 58.6342 22.7468 55.2247 22.7468C51.6033 22.7468 49.3881 20.1558 49.3881 16.8301ZM58.326 16.8301C58.326 14.9351 57.1125 13.3303 55.2247 13.3303C53.2021 13.3303 52.1234 15.0705 52.1234 16.8301C52.1234 18.7636 53.2599 20.3298 55.2247 20.3298C57.2666 20.3298 58.326 18.609 58.326 16.8301ZM62.8913 11.242H65.5304V18.2222C65.5304 19.4984 66.3201 20.3105 67.553 20.3105C68.7858 20.3105 69.5563 19.5177 69.5563 18.2222V11.242H72.1761V18.3189C72.1761 21.0646 70.3076 22.7468 67.5337 22.7468C64.7021 22.7468 62.8721 21.0839 62.8721 18.3189V11.242H62.8913ZM80.7673 22.4568L78.3787 18.1062H77.3V22.4568H74.6802V11.242H79.4767C81.5956 11.242 83.1752 12.4021 83.1752 14.5098C83.1752 16.366 82.1735 17.4681 80.1894 17.6035V17.7969L81.3645 18.0095L83.8301 22.4568H80.7673ZM77.2807 13.5236V16.0373H79.1107C79.9198 16.0373 80.5169 15.5539 80.5169 14.7611C80.5169 13.9297 79.862 13.5236 79.1107 13.5236H77.2807ZM39.4677 11.242V13.6396H44.1293V13.891L42.7809 14.1037V22.4568H45.3814V13.6396H48.6946V11.242H39.4677ZM130.292 11.242H126.363V22.4568H128.058V18.0676H130.292C132.392 18.0676 133.991 16.6754 133.991 14.6451C133.991 12.3828 132.315 11.2613 130.292 11.242ZM130.292 16.54H128.52L128.289 17.4875H128.058V12.7695H130.292C131.506 12.7695 132.353 13.485 132.353 14.6451C132.353 15.8633 131.371 16.54 130.292 16.54ZM149.382 10.9906C147.398 10.9906 145.548 12.3055 145.548 14.3744C145.548 16.1146 146.878 17.0234 148.457 17.3521L149.69 17.6228C150.634 17.8355 151.616 18.3189 151.616 19.4017C151.616 20.7166 150.538 21.2773 149.401 21.2773C148.188 21.2773 147.417 20.7359 147.147 19.5371H145.394C145.626 21.548 147.186 22.7082 149.324 22.7082C151.52 22.7082 153.311 21.49 153.311 19.305C153.311 17.5068 152.04 16.598 150.383 16.2113L149.17 15.9213C148.187 15.6892 147.244 15.3025 147.244 14.2584C147.244 12.9822 148.284 12.4215 149.324 12.4215C150.383 12.4215 151.115 12.8662 151.347 13.9683H153.08C152.868 12.0348 151.327 10.9906 149.382 10.9906C149.382 10.9906 149.401 10.9906 149.382 10.9906ZM158.84 10.9906C156.856 10.9906 155.007 12.3055 155.007 14.3744C155.007 16.1146 156.336 17.0234 157.915 17.3521L159.148 17.6228C160.092 17.8355 161.074 18.3189 161.074 19.4017C161.074 20.7166 159.996 21.2773 158.859 21.2773C157.646 21.2773 156.875 20.7359 156.605 19.5371H154.852C155.084 21.548 156.644 22.7082 158.782 22.7082C160.978 22.7082 162.77 21.49 162.77 19.305C162.77 17.5068 161.498 16.598 159.842 16.2113L158.628 15.9213C157.646 15.6892 156.702 15.3025 156.702 14.2584C156.702 12.9822 157.742 12.4215 158.782 12.4215C159.842 12.4215 160.574 12.8662 160.805 13.9877H162.538C162.326 12.0154 160.805 10.9713 158.917 10.9713L158.84 10.9906Z" fill="white"/>
<path d="M27.8906 6.96878C26.2726 4.80317 24.0573 3.10161 21.5146 2.17349C17.3538 0.587945 12.75 0.452594 8.55068 1.96079C5.08335 3.14028 2.29023 5.65394 0.961093 9.11506C-0.907409 14.065 0.15205 19.9625 3.36896 24.1004L3.52306 24.2937L3.92758 24.0037L3.79274 23.791C0.94183 19.5178 0.171313 13.717 2.3095 8.99905C3.09928 7.3555 4.27431 5.96332 5.71903 4.91918C6.45102 4.53246 7.2408 4.26176 8.04984 4.0684C9.26341 3.7977 10.4962 3.83637 11.3053 3.93305C12.2684 4.02973 13.2508 4.22309 14.1947 4.51313C12.3455 4.57113 10.0724 5.05453 8.04984 6.62074C8.03058 6.64007 7.64532 6.93011 7.14449 7.43284C7.10596 7.47152 6.18134 8.39964 5.46861 9.59846C4.71736 10.8553 3.44601 14.4904 4.08168 19.2084C4.67883 23.6556 6.7207 27.0201 8.31952 29.0697L8.60847 29.4371L9.35972 28.8377L9.07078 28.4703C7.52974 26.5173 5.58419 23.3076 5.02557 19.073C4.40915 14.4518 5.73829 11.01 6.29692 10.0819C6.95186 8.99905 7.81869 8.1096 7.83795 8.09026C8.30026 7.6262 8.64699 7.3555 8.64699 7.3555C11.5364 5.13187 14.9652 5.32523 16.6796 5.61527C16.1403 6.15668 15.6202 6.73675 15.1386 7.33616C11.7291 11.6287 11.0741 16.2307 10.5733 19.6144C10.0532 23.2883 10.0724 27.0394 10.6696 30.7906L11.5172 30.0752C11.0356 26.614 11.0356 23.1529 11.5172 19.7691C11.9795 16.5014 12.6344 12.0348 15.8706 7.95491C16.4292 7.23948 17.0649 6.56273 17.7198 5.94398C20.7634 7.95491 22.0732 10.2752 22.6126 11.8994C24.8856 18.6283 18.9526 25.4539 17.0841 27.3681C16.2366 28.2382 15.312 29.0117 14.3296 29.7271V30.8873C15.5816 30.0558 16.7374 29.089 17.7583 28.0255C19.7232 25.9953 25.9451 18.841 23.518 11.5901C22.9786 10.0239 21.8228 7.8389 19.2416 5.8473C20.4359 5.98265 22.1888 6.36937 24.1151 7.41351C26.0607 8.45765 27.3898 9.83049 28.2566 11.0293C28.873 12.9049 28.9886 14.9545 28.4878 17.0041C27.4283 21.9541 23.6143 25.5699 19.7232 28.5283C17.296 30.4619 14.6763 32.1054 11.9024 33.4589V35.1218C15.023 33.691 17.9895 31.8927 20.667 29.7658C22.7089 28.1996 24.77 26.498 26.4267 24.4871C30.5297 19.5951 31.9744 12.2668 27.8906 6.96878ZM11.4016 2.94692C11.0163 2.90825 10.554 2.88891 10.0339 2.88891C11.1512 2.57954 12.3262 2.38618 13.5012 2.30884C14.7341 2.46352 15.7743 2.96626 16.4099 3.7977C16.564 3.99106 16.6796 4.22309 16.7952 4.45512C15.0423 3.64301 13.2316 3.14028 11.4016 2.94692ZM17.8547 4.57113C17.7006 4.0684 17.4694 3.62368 17.1612 3.21762C16.9108 2.88891 16.6218 2.61821 16.2751 2.36685C17.951 2.54087 19.6076 2.94692 21.1679 3.58501C19.8002 3.62368 18.6637 4.08774 17.8547 4.57113ZM24.5774 6.52406C22.5548 5.44125 20.7441 5.01586 19.4535 4.86117C20.0121 4.66781 20.667 4.51313 21.3798 4.53246C22.8052 4.5518 23.9225 5.13187 24.77 5.76996C25.5406 6.44671 26.2148 7.18148 26.7734 8.01292C26.1377 7.49085 25.4057 6.98812 24.5774 6.52406Z" fill="white"/>
</svg>
