<svg width="24" height="25" viewBox="0 0 24 25" fill="none" xmlns="http://www.w3.org/2000/svg">
<circle cx="12" cy="12.5697" r="12" fill="#FF5E00"/>
<path d="M12.7899 17.0596C12.7676 17.0373 12.7499 17.0108 12.7378 16.9817C12.7257 16.9525 12.7195 16.9213 12.7195 16.8898C12.7195 16.8582 12.7257 16.827 12.7378 16.7979C12.7499 16.7687 12.7676 16.7423 12.7899 16.72L16.7001 12.8098L6.71971 12.8098C6.65606 12.8098 6.59501 12.7845 6.55 12.7395C6.505 12.6945 6.47971 12.6334 6.47971 12.5698C6.47971 12.5061 6.505 12.4451 6.55 12.4001C6.59501 12.3551 6.65606 12.3298 6.71971 12.3298L16.7001 12.3298L12.7899 8.41958C12.7676 8.39728 12.7499 8.37081 12.7379 8.34167C12.7258 8.31254 12.7196 8.28131 12.7196 8.24978C12.7196 8.21824 12.7258 8.18702 12.7379 8.15788C12.7499 8.12875 12.7676 8.10228 12.7899 8.07998C12.8122 8.05768 12.8387 8.03999 12.8678 8.02792C12.8969 8.01585 12.9282 8.00964 12.9597 8.00964C12.9912 8.00964 13.0225 8.01585 13.0516 8.02792C13.0807 8.03999 13.1072 8.05768 13.1295 8.07998L17.4495 12.4C17.4718 12.4223 17.4895 12.4487 17.5016 12.4779C17.5137 12.507 17.5199 12.5382 17.5199 12.5698C17.5199 12.6013 17.5137 12.6325 17.5016 12.6617C17.4895 12.6908 17.4718 12.7173 17.4495 12.7396L13.1295 17.0596C13.1072 17.0819 13.0807 17.0996 13.0516 17.1117C13.0225 17.1237 12.9912 17.13 12.9597 17.13C12.9282 17.13 12.8969 17.1237 12.8678 17.1117C12.8387 17.0996 12.8122 17.0819 12.7899 17.0596Z" fill="white"/>
</svg>
