<svg width="51" height="53" viewBox="0 0 51 53" fill="none" xmlns="http://www.w3.org/2000/svg">
<g id="Group 132512">
<path id="Vector" d="M49.0781 52.8196H48.6846L32.8729 46.0327C32.7503 45.9822 32.6391 45.9076 32.5458 45.8135C32.4524 45.7194 32.3787 45.6076 32.3291 45.4846C32.2796 45.3616 32.255 45.2299 32.2569 45.0973C32.2589 44.9647 32.2873 44.8339 32.3404 44.7124C32.4474 44.4688 32.6452 44.2768 32.8918 44.1772C33.1384 44.0777 33.414 44.0786 33.66 44.1796L48.0595 50.2948V8.76271L32.8729 2.32327C32.7503 2.27272 32.6391 2.1982 32.5458 2.10407C32.4524 2.00995 32.3787 1.89812 32.3291 1.77514C32.2796 1.65216 32.255 1.52051 32.2569 1.38791C32.2589 1.25531 32.2873 1.12443 32.3404 1.00295C32.3887 0.878301 32.4616 0.764652 32.5547 0.668774C32.6478 0.572895 32.7592 0.49675 32.8823 0.444875C33.0055 0.392999 33.1378 0.366456 33.2714 0.366825C33.405 0.367195 33.5371 0.39447 33.66 0.447025L49.4485 7.16443C49.6334 7.23858 49.7918 7.36651 49.9032 7.53169C50.0146 7.69686 50.074 7.89168 50.0736 8.09097V51.8236C50.0768 51.9911 50.0356 52.1564 49.9543 52.3029C49.873 52.4493 49.7544 52.5717 49.6106 52.6575C49.4539 52.7649 49.268 52.8215 49.0781 52.8196V52.8196Z" fill="#194F94"/>
<path id="Vector_2" d="M33.2195 2.39291H17.431C17.1648 2.39297 16.9091 2.28878 16.7188 2.10263C16.5284 1.91647 16.4184 1.66315 16.4124 1.39688C16.4124 1.12657 16.5197 0.867336 16.7107 0.6762C16.9017 0.485064 17.1608 0.377686 17.431 0.377686H33.2195C33.4897 0.377686 33.7488 0.485064 33.9398 0.6762C34.1308 0.867336 34.2381 1.12657 34.2381 1.39688C34.2321 1.66315 34.1221 1.91647 33.9317 2.10263C33.7413 2.28878 33.4857 2.39297 33.2195 2.39291V2.39291Z" fill="#194F94"/>
<path id="Vector_3" d="M33.2195 46.1255H17.431C17.1608 46.1255 16.9017 46.0181 16.7107 45.8269C16.5197 45.6358 16.4124 45.3766 16.4124 45.1063C16.4184 44.84 16.5284 44.5867 16.7188 44.4005C16.9091 44.2144 17.1648 44.1102 17.431 44.1102H33.2195C33.4857 44.1102 33.7413 44.2144 33.9317 44.4005C34.1221 44.5867 34.2321 44.84 34.2381 45.1063C34.2381 45.3766 34.1308 45.6358 33.9398 45.8269C33.7488 46.0181 33.4897 46.1255 33.2195 46.1255Z" fill="#194F94"/>
<path id="Vector_4" d="M17.431 46.126C17.1608 46.126 16.9017 46.0186 16.7107 45.8275C16.5197 45.6363 16.4124 45.3771 16.4124 45.1068V33.9188C16.4124 33.6485 16.5197 33.3893 16.7107 33.1982C16.9017 33.007 17.1608 32.8997 17.431 32.8997C17.5637 32.8996 17.695 32.9261 17.8174 32.9776C17.9397 33.0291 18.0504 33.1046 18.1432 33.1995C18.2359 33.2945 18.3088 33.407 18.3574 33.5306C18.406 33.6541 18.4295 33.7861 18.4264 33.9188V45.1068C18.4265 45.3731 18.3224 45.6289 18.1363 45.8194C17.9503 46.0099 17.6971 46.1199 17.431 46.126V46.126Z" fill="#194F94"/>
<path id="Vector_5" d="M1.62065 52.8195C1.42329 52.8232 1.22949 52.7666 1.06503 52.6574C0.927074 52.5671 0.814335 52.4432 0.737391 52.2973C0.660448 52.1515 0.621857 51.9884 0.6252 51.8235V8.09091C0.625867 7.89492 0.682986 7.70327 0.789742 7.53893C0.896499 7.3746 1.04835 7.24455 1.2271 7.16437L17.0388 0.377482C17.2838 0.291221 17.5525 0.30187 17.7899 0.407254C18.0274 0.512638 18.2156 0.704794 18.3161 0.944427C18.4166 1.18406 18.4219 1.45307 18.3308 1.69644C18.2396 1.93981 18.0591 2.13916 17.8259 2.25372L2.63927 8.69316V50.2947L17.0388 44.1796C17.1604 44.1279 17.291 44.1006 17.4231 44.0994C17.5553 44.0982 17.6863 44.123 17.8088 44.1725C17.9314 44.222 18.043 44.2951 18.1373 44.3877C18.2315 44.4804 18.3067 44.5907 18.3584 44.7123C18.41 44.834 18.4373 44.9647 18.4385 45.0969C18.4397 45.2291 18.4149 45.3602 18.3654 45.4828C18.316 45.6054 18.2429 45.7171 18.1503 45.8114C18.0578 45.9058 17.9475 45.9809 17.8259 46.0326L2.0142 52.75C1.88843 52.7973 1.755 52.8209 1.62065 52.8195V52.8195Z" fill="#194F94"/>
<path id="Vector_6" d="M17.431 9.22613C17.1608 9.22613 16.9017 9.11875 16.7107 8.92761C16.5197 8.73648 16.4124 8.47724 16.4124 8.20693V1.39688C16.4124 1.12657 16.5197 0.867336 16.7107 0.6762C16.9017 0.485064 17.1608 0.377686 17.431 0.377686C17.6971 0.383739 17.9503 0.493784 18.1363 0.684267C18.3224 0.874751 18.4265 1.13054 18.4264 1.39688V8.20693C18.4265 8.47327 18.3224 8.72906 18.1363 8.91954C17.9503 9.11003 17.6971 9.22007 17.431 9.22613V9.22613Z" fill="#194F94"/>
<path id="Vector_7" d="M33.2209 46.126C32.9548 46.1199 32.7017 46.0099 32.5156 45.8194C32.3296 45.6289 32.2254 45.3731 32.2255 45.1068V33.9188C32.2224 33.7861 32.2459 33.6541 32.2945 33.5306C32.3432 33.407 32.416 33.2945 32.5087 33.1995C32.6015 33.1046 32.7123 33.0291 32.8346 32.9776C32.9569 32.9261 33.0882 32.8996 33.2209 32.8997C33.4911 32.8997 33.7502 33.007 33.9412 33.1982C34.1322 33.3893 34.2396 33.6485 34.2396 33.9188V45.1068C34.2396 45.3771 34.1322 45.6363 33.9412 45.8275C33.7502 46.0186 33.4911 46.126 33.2209 46.126V46.126Z" fill="#194F94"/>
<path id="Vector_8" d="M33.2207 9.22613C32.9545 9.22007 32.7014 9.11003 32.5153 8.91954C32.3293 8.72906 32.2252 8.47327 32.2252 8.20693V1.39688C32.2252 1.13054 32.3293 0.874751 32.5153 0.684267C32.7014 0.493784 32.9545 0.383739 33.2207 0.377686C33.4908 0.377686 33.7499 0.485064 33.9409 0.6762C34.132 0.867336 34.2393 1.12657 34.2393 1.39688V8.20693C34.2393 8.47724 34.132 8.73648 33.9409 8.92761C33.7499 9.11875 33.4908 9.22613 33.2207 9.22613V9.22613Z" fill="#194F94"/>
<path id="Vector_9" d="M25.3957 34.9378C25.215 34.935 25.0383 34.8843 24.8837 34.7906C24.7291 34.697 24.6022 34.5639 24.5159 34.405L22.2009 30.2819C20.4878 27.2475 18.8904 24.3984 17.5708 21.4335C16.8779 19.7224 16.7966 17.8243 17.3407 16.0602C17.8848 14.296 19.021 12.7739 20.5572 11.7512C22.0046 10.7552 23.72 10.2219 25.4767 10.2219C27.2334 10.2219 28.9487 10.7552 30.3961 11.7512C31.9329 12.7787 33.0659 14.3077 33.602 16.0775C34.1381 17.8473 34.0442 19.7484 33.3362 21.4567C31.9704 24.4216 30.3498 27.2707 28.7062 30.2819C27.9422 31.6254 27.1782 32.9689 26.3911 34.405C26.3011 34.5657 26.1701 34.6997 26.0115 34.7933C25.8529 34.8869 25.6724 34.9367 25.4883 34.9378H25.3957ZM25.3957 12.2376C24.0548 12.2188 22.7423 12.6242 21.6453 13.3958C20.5124 14.1612 19.6687 15.2846 19.249 16.5863C18.8294 17.888 18.858 19.2929 19.3302 20.5764C20.6961 23.4719 22.2935 26.2978 23.9603 29.2859L25.3725 31.8339L26.8078 29.2859C28.4978 26.321 30.072 23.5182 31.4379 20.6228C31.9261 19.3338 31.963 17.9172 31.5425 16.6045C31.122 15.2918 30.269 14.1606 29.1229 13.3958C28.0309 12.6316 26.7282 12.2268 25.3957 12.2376Z" fill="#194F94"/>
<path id="Vector_10" d="M25.3962 23.3557C24.1846 23.3046 23.0364 22.8 22.179 21.9421C21.3215 21.0841 20.8173 19.9353 20.7661 18.723C20.7661 17.4944 21.2539 16.316 22.1222 15.4472C22.9905 14.5784 24.1682 14.0903 25.3962 14.0903C26.0419 14.0614 26.6866 14.168 27.2886 14.4034C27.8907 14.6388 28.4368 14.9977 28.8919 15.457C29.3321 15.8888 29.6818 16.4042 29.9203 16.973C30.1588 17.5418 30.2814 18.1525 30.2809 18.7694C30.2194 19.9781 29.7119 21.121 28.8565 21.9769C28.0012 22.8327 26.8589 23.3405 25.6508 23.4021L25.3962 23.3557ZM25.3962 16.0129C24.6982 16.0311 24.0353 16.3229 23.5503 16.8255C23.0653 17.3281 22.797 18.0013 22.8033 18.6999C22.8486 19.3972 23.1505 20.053 23.6507 20.5407C24.151 21.0284 24.8141 21.3133 25.5119 21.3405C26.2164 21.3027 26.8827 21.0088 27.3857 20.514C27.8888 20.0192 28.1939 19.3576 28.2437 18.6535C28.2425 18.3078 28.1723 17.9657 28.0371 17.6475C27.902 17.3293 27.7046 17.0413 27.4566 16.8005C27.1843 16.5365 26.8613 16.3306 26.5071 16.1952C26.153 16.0599 25.775 15.9978 25.3962 16.0129V16.0129Z" fill="#194F94"/>
</g>
</svg>
