<svg width="52" height="55" viewBox="0 0 52 55" fill="none" xmlns="http://www.w3.org/2000/svg">
<g id="Group 133939">
<path id="Rectangle 2578 (Stroke)" fill-rule="evenodd" clip-rule="evenodd" d="M24.0208 1.3197C24.0208 0.801935 24.4405 0.382202 24.9583 0.382202H26.8333C27.351 0.382202 27.7708 0.801935 27.7708 1.3197V7.15304C27.7708 7.6708 27.351 8.09054 26.8333 8.09054H24.9583C24.4405 8.09054 24.0208 7.6708 24.0208 7.15304V1.3197Z" fill="#194F94"/>
<path id="Rectangle 2581 (Stroke)" fill-rule="evenodd" clip-rule="evenodd" d="M24.0208 30.4863C24.0208 29.9686 24.4405 29.5488 24.9583 29.5488H26.8333C27.351 29.5488 27.7708 29.9686 27.7708 30.4863V53.8197C27.7708 54.3374 27.351 54.7572 26.8333 54.7572H24.9583C24.4405 54.7572 24.0208 54.3374 24.0208 53.8197V30.4863Z" fill="#194F94"/>
<path id="Rectangle 2575 (Stroke)" fill-rule="evenodd" clip-rule="evenodd" d="M6.56268 7.67052C6.73331 7.39326 7.03555 7.22437 7.36111 7.22437H30.3056C30.8233 7.22437 31.2431 7.6441 31.2431 8.16187V11.042H29.3681V9.09937H7.88498L2.72579 17.483L7.88498 25.8667H21.4498V27.7417H7.36111C7.03555 27.7417 6.73331 27.5728 6.56268 27.2956L0.82657 17.9744C0.641143 17.6731 0.641143 17.293 0.82657 16.9917L6.56268 7.67052Z" fill="#194F94"/>
<path id="Rectangle 2580 (Stroke)" fill-rule="evenodd" clip-rule="evenodd" d="M45.2984 10.5505C45.1278 10.2733 44.8255 10.1044 44.5 10.1044H21.5555C21.0378 10.1044 20.618 10.5241 20.618 11.0419V29.6842C20.618 30.202 21.0378 30.6217 21.5555 30.6217H44.5C44.8255 30.6217 45.1278 30.4528 45.2984 30.1756L51.0345 20.8544C51.2199 20.5531 51.2199 20.173 51.0345 19.8717L45.2984 10.5505ZM43.9761 11.9794L49.1353 20.3631L43.9761 28.7467H22.493V11.9794H43.9761Z" fill="#194F94"/>
</g>
</svg>
