<svg width="53" height="53" viewBox="0 0 53 53" fill="#005293" xmlns="http://www.w3.org/2000/svg">
<g id="Group 132468">
<path id="Vector" d="M3.51562 21.9949H3.3252C3.05396 21.9377 2.81647 21.7752 2.66476 21.5432C2.51306 21.3112 2.45954 21.0285 2.51591 20.7571C3.63691 15.3322 6.59159 10.4588 10.8831 6.95619C15.1747 3.45359 20.5414 1.53545 26.0808 1.52429C26.3586 1.52429 26.625 1.63464 26.8214 1.83105C27.0178 2.02747 27.1281 2.29386 27.1281 2.57163C27.1219 2.84525 27.0088 3.10558 26.8131 3.29687C26.6174 3.48817 26.3545 3.59524 26.0808 3.59517C21.0212 3.588 16.1128 5.31989 12.1781 8.50065C8.24327 11.6814 5.52115 16.1178 4.46775 21.0665C4.44106 21.3076 4.33155 21.5319 4.15792 21.7012C3.98428 21.8705 3.75726 21.9743 3.51562 21.9949V21.9949Z" fill="white"/>
<path id="Vector_2" d="M6.29942 21.0663L3.51448 24.8271C3.46835 24.9061 3.40233 24.9717 3.32298 25.0173C3.24363 25.0628 3.15372 25.0868 3.06222 25.0868C2.97072 25.0868 2.88082 25.0628 2.80147 25.0173C2.72212 24.9717 2.65609 24.9061 2.60996 24.8271L0.800942 20.5664C0.760824 20.4845 0.743886 20.3932 0.751964 20.3023C0.760043 20.2114 0.792828 20.1245 0.84677 20.051C0.900712 19.9774 0.973754 19.92 1.05798 19.885C1.14221 19.85 1.23442 19.8387 1.32461 19.8523L5.91857 20.3998C5.98874 20.4161 6.05478 20.4468 6.11256 20.4899C6.17033 20.5329 6.21861 20.5874 6.25435 20.65C6.2901 20.7125 6.31256 20.7818 6.32031 20.8534C6.32807 20.9251 6.32095 20.9975 6.29942 21.0663Z" fill="white"/>
<path id="Vector_3" d="M21.4171 50.9867H21.2029C15.778 49.8657 10.9046 46.911 7.40199 42.6195C3.89939 38.3279 1.98125 32.9613 1.97009 27.4218C1.97002 27.1482 2.0771 26.8853 2.26839 26.6896C2.45969 26.4938 2.72 26.3807 2.99362 26.3745C3.27139 26.3745 3.53778 26.4849 3.73419 26.6813C3.93061 26.8777 4.04096 27.1441 4.04096 27.4218C4.07754 32.4632 5.84122 37.3395 9.0379 41.2379C12.2346 45.1363 16.671 47.8211 21.6075 48.8445C21.879 48.8697 22.1293 49.0017 22.3034 49.2116C22.4775 49.4214 22.5611 49.6918 22.5358 49.9632C22.5106 50.2347 22.3785 50.485 22.1687 50.6591C21.9589 50.8332 21.6886 50.9168 21.4171 50.8915V50.9867Z" fill="white"/>
<path id="Vector_4" d="M21.5818 47.1056L25.2951 49.8667C25.3741 49.9129 25.4396 49.9789 25.4852 50.0582C25.5308 50.1376 25.5547 50.2275 25.5547 50.319C25.5547 50.4105 25.5308 50.5004 25.4852 50.5797C25.4396 50.6591 25.3741 50.7251 25.2951 50.7713L21.0581 52.5802C20.9824 52.697 20.8633 52.7789 20.7272 52.808C20.591 52.837 20.4489 52.8107 20.3321 52.735C20.2153 52.6592 20.1334 52.5402 20.1044 52.404C20.0754 52.2679 20.1017 52.1258 20.1774 52.009L20.7249 47.3912C20.7438 47.3019 20.7858 47.2191 20.8466 47.1511C20.9074 47.083 20.985 47.032 21.0716 47.0031C21.1582 46.9742 21.2508 46.9685 21.3403 46.9864C21.4298 47.0044 21.5131 47.0455 21.5818 47.1056V47.1056Z" fill="white"/>
<path id="Vector_5" d="M27.8429 51.4389C27.5714 51.4389 27.3111 51.3311 27.1191 51.1391C26.9272 50.9472 26.8193 50.6868 26.8193 50.4154C26.8193 50.1417 26.9263 49.8789 27.1176 49.6831C27.3089 49.4874 27.5692 49.3743 27.8429 49.3681C32.9058 49.3632 37.8124 47.6135 41.7361 44.4138C45.6599 41.2141 48.361 36.7599 49.3845 31.8015C49.4576 31.55 49.6222 31.3349 49.846 31.1987C50.0698 31.0626 50.3365 31.0152 50.5934 31.066C50.8504 31.1168 51.079 31.2621 51.2342 31.4731C51.3893 31.6841 51.4598 31.9457 51.4316 32.2061C50.3056 37.6329 47.3463 42.5069 43.0508 46.0092C38.7552 49.5115 33.3852 51.4288 27.8429 51.4389Z" fill="white"/>
<path id="Vector_6" d="M47.5502 31.8252L50.3352 28.2072C50.3819 28.1477 50.4416 28.0997 50.5096 28.0667C50.5777 28.0337 50.6523 28.0165 50.7279 28.0165C50.8035 28.0165 50.8782 28.0337 50.9462 28.0667C51.0142 28.0997 51.0739 28.1477 51.1207 28.2072L52.9535 32.4441C52.9928 32.5294 53.0085 32.6237 52.9988 32.7172C52.9891 32.8107 52.9544 32.8998 52.8985 32.9753C52.8425 33.0508 52.7672 33.1098 52.6806 33.1462C52.5939 33.1825 52.4991 33.1949 52.406 33.182L47.812 32.6107C47.7334 32.5887 47.6613 32.5477 47.6021 32.4913C47.543 32.4349 47.4985 32.365 47.4727 32.2875C47.4468 32.21 47.4404 32.1272 47.4539 32.0467C47.4674 31.9661 47.5005 31.89 47.5502 31.8252V31.8252Z" fill="white"/>
<path id="Vector_7" d="M50.861 26.5885C50.5896 26.5885 50.3292 26.4807 50.1373 26.2887C49.9453 26.0968 49.8375 25.8364 49.8375 25.565C49.7997 20.5203 48.0327 15.6413 44.8313 11.7425C41.6299 7.84361 37.188 5.16091 32.2471 4.14229C31.9886 4.07296 31.7664 3.90727 31.6262 3.67924C31.486 3.45122 31.4384 3.17815 31.4933 2.91615C31.5481 2.65415 31.7012 2.42308 31.9211 2.27041C32.1409 2.11774 32.4109 2.05507 32.6756 2.09524C38.1024 3.22119 42.9763 6.18053 46.4786 10.4761C49.9809 14.7716 51.8982 20.1416 51.9083 25.684C51.8736 25.9363 51.7481 26.1673 51.5553 26.3338C51.3626 26.5003 51.1157 26.5909 50.861 26.5885Z" fill="white"/>
<path id="Vector_8" d="M32.2692 5.85543L28.5797 3.07049C28.5001 3.02774 28.4336 2.96421 28.3873 2.88667C28.3409 2.80913 28.3164 2.72049 28.3164 2.63014C28.3164 2.5398 28.3409 2.45111 28.3873 2.37357C28.4336 2.29604 28.5001 2.23255 28.5797 2.18979L32.8405 0.356956C32.9247 0.32335 33.0163 0.312216 33.1061 0.324631C33.196 0.337046 33.2811 0.372588 33.3531 0.427781C33.4251 0.482974 33.4815 0.5559 33.5168 0.639456C33.5521 0.723012 33.5651 0.814319 33.5545 0.904414L33.0071 5.4984C32.9898 5.57527 32.9554 5.64722 32.9064 5.70895C32.8574 5.77068 32.7952 5.82057 32.7243 5.85489C32.6533 5.88921 32.5756 5.9071 32.4968 5.90719C32.418 5.90728 32.3402 5.88958 32.2692 5.85543V5.85543Z" fill="white"/>
<path id="Vector_9" d="M26.9368 45.0592C23.26 45.0592 19.6658 43.9689 16.6087 41.9262C13.5516 39.8835 11.1688 36.9802 9.76178 33.5833C8.35474 30.1864 7.98659 26.4485 8.70389 22.8424C9.42119 19.2363 11.1917 15.9238 13.7916 13.324C16.3915 10.7241 19.7039 8.95354 23.31 8.23623C26.9162 7.51893 30.654 7.8871 34.0509 9.29414C37.4478 10.7012 40.3512 13.0839 42.3939 16.141C44.4366 19.1982 45.5269 22.7923 45.5269 26.4691C45.5206 31.3976 43.56 36.1224 40.075 39.6074C36.5901 43.0923 31.8653 45.0529 26.9368 45.0592V45.0592ZM26.9368 9.9499C23.6696 9.9499 20.4758 10.9187 17.7592 12.7339C15.0426 14.5491 12.9253 17.129 11.675 20.1475C10.4247 23.166 10.0976 26.4875 10.735 29.6919C11.3724 32.8963 12.9457 35.8397 15.2559 38.15C17.5662 40.4602 20.5096 42.0336 23.714 42.671C26.9185 43.3084 30.2399 42.9813 33.2584 41.731C36.2769 40.4807 38.8569 38.3634 40.672 35.6468C42.4872 32.9302 43.456 29.7363 43.456 26.4691C43.456 22.0879 41.7156 17.8862 38.6177 14.7883C35.5197 11.6903 31.318 9.9499 26.9368 9.9499Z" fill="white"/>
<path id="Vector_10" d="M26.9373 45.0592C21.3436 45.0592 16.9639 36.8948 16.9639 26.4691C16.9639 16.0434 21.3436 7.87903 26.9373 7.87903C32.531 7.87903 36.8393 16.0434 36.8393 26.4691C36.8393 36.8948 32.531 45.0592 26.9373 45.0592ZM26.9373 9.94987C22.6528 9.94987 19.0347 17.5192 19.0347 26.4691C19.0347 35.419 22.6528 42.9883 26.9373 42.9883C31.2218 42.9883 34.8161 35.4428 34.8161 26.4691C34.8161 17.4954 31.2218 9.94987 26.9373 9.94987V9.94987Z" fill="white"/>
<path id="Vector_11" d="M44.4815 27.5167H9.37216C9.09439 27.5167 8.82799 27.4063 8.63158 27.2099C8.43517 27.0135 8.32483 26.7471 8.32483 26.4693C8.33105 26.1957 8.44413 25.9355 8.63987 25.7442C8.83561 25.5529 9.09846 25.4458 9.37216 25.4458H44.4815C44.6179 25.4427 44.7536 25.4668 44.8805 25.5168C45.0074 25.5668 45.1231 25.6417 45.2207 25.7371C45.3183 25.8324 45.3958 25.9463 45.4487 26.0721C45.5016 26.1978 45.5289 26.3329 45.5288 26.4693C45.5288 26.7471 45.4185 27.0135 45.2221 27.2099C45.0257 27.4063 44.7593 27.5167 44.4815 27.5167V27.5167Z" fill="white"/>
<path id="Vector_12" d="M26.9382 45.0592C26.6645 45.0593 26.4017 44.9522 26.2059 44.7609C26.0102 44.5696 25.8971 44.3093 25.8909 44.0357V8.92633C25.8909 8.64856 26.0012 8.38217 26.1976 8.18575C26.394 7.98934 26.6604 7.87903 26.9382 7.87903C27.0746 7.87899 27.2097 7.90623 27.3355 7.95915C27.4612 8.01207 27.5751 8.08959 27.6705 8.18717C27.7658 8.28475 27.8407 8.40041 27.8908 8.52735C27.9408 8.65429 27.9649 8.78993 27.9617 8.92633V44.0357C27.9617 44.3071 27.8539 44.5675 27.6619 44.7595C27.47 44.9514 27.2097 45.0592 26.9382 45.0592Z" fill="white"/>
</g>
</svg>
