<svg width="51" height="55" viewBox="0 0 51 55" fill="none" xmlns="http://www.w3.org/2000/svg">
<g id="Group 133662">
<path id="Rectangle 1453 (Stroke)" fill-rule="evenodd" clip-rule="evenodd" d="M17.4078 34.4043L26.931 41.3902L22.5695 50.0246L10.4816 41.1574L17.4078 34.4043ZM17.5795 36.8556L13.3753 40.9547L21.8938 47.2036L24.5413 41.9625L17.5795 36.8556Z" fill="#194F94"/>
<path id="Vector (Stroke)" fill-rule="evenodd" clip-rule="evenodd" d="M47.94 0.385836C48.3675 0.362934 48.9117 0.448278 49.3282 0.753757C49.6021 0.95468 50.061 1.39832 50.0792 2.10006C50.6378 6.09178 50.7848 9.41277 50.6321 12.3751L50.6313 12.3906C50.4299 15.346 49.8769 17.8997 49.0348 20.2498C48.2625 22.5109 47.1597 24.5097 45.8637 26.4741C44.6425 28.4253 43.1358 30.3017 41.5638 32.2595L41.4036 32.459L41.3795 32.4889L40.9557 32.9363L39.4195 34.4373L39.4171 34.4397L28.6052 44.9284L13.5051 33.8515L20.3064 20.4154L21.533 18.0382L21.556 18.0022C22.9807 15.7677 24.3955 13.7396 25.8832 11.9087C27.3828 10.0632 29.0023 8.4527 30.8632 7.01509C32.8928 5.45128 35.1673 4.15388 37.9293 3.07289C40.685 1.99435 43.918 1.13405 47.8169 0.400652L47.8779 0.389161L47.94 0.385836ZM40.081 31.1113C41.6786 29.1217 43.1218 27.3225 44.2801 25.4702L44.2923 25.4506C45.5399 23.5607 46.5577 21.7037 47.2627 19.6374L47.2674 19.6236C48.0496 17.4423 48.5692 15.0596 48.76 12.2707C48.9057 9.43273 48.7652 6.21567 48.2135 2.29755L48.2099 2.27209C48.1761 2.26413 48.1332 2.2584 48.0888 2.25741C44.2949 2.97428 41.2072 3.80346 38.6126 4.81893C36.0074 5.83858 33.8905 7.04953 32.0087 8.49951M40.081 31.1113L39.9655 31.2552L39.6194 31.6205L38.1115 33.0939L38.1091 33.0962L28.4368 42.4795L15.896 33.2799L21.9727 21.2752L21.976 21.2687L23.16 18.9742C24.5521 16.7929 25.9176 14.8397 27.3384 13.0911C28.7548 11.3479 30.2722 9.84117 32.0087 8.49951" fill="#194F94"/>
<path id="Vector (Stroke)_2" fill-rule="evenodd" clip-rule="evenodd" d="M43.5056 41.125L40.5573 31.2216L42.3544 30.6866L45.6091 41.6192L34.3 53.7371L33.7951 52.2555C33.3733 51.0178 32.9014 49.5973 32.4149 48.1326C31.6243 45.7527 30.7949 43.2561 30.0786 41.2369L31.8457 40.61C32.5662 42.6412 33.4099 45.1806 34.2065 47.578C34.5033 48.4715 34.7936 49.3451 35.0685 50.1655L43.5056 41.125Z" fill="#194F94"/>
<path id="Vector (Stroke)_3" fill-rule="evenodd" clip-rule="evenodd" d="M11.6728 19.4765L22.1772 19.4748L22.1769 17.5998L10.5793 17.6017L2.41198 32.0361L3.97675 32.0728C5.56387 32.11 7.35409 32.0861 9.14418 32.0623C9.29597 32.0603 9.44775 32.0582 9.59941 32.0563C11.5502 32.0307 13.4832 32.0113 15.1875 32.0725L15.2548 30.1987C13.4975 30.1356 11.5196 30.156 9.57487 30.1814C9.4254 30.1834 9.27613 30.1854 9.12717 30.1873C7.91362 30.2035 6.71997 30.2194 5.59569 30.2169L11.6728 19.4765Z" fill="#194F94"/>
<path id="Line 73 (Stroke)" fill-rule="evenodd" clip-rule="evenodd" d="M11.5334 45.1838C11.9509 45.49 12.041 46.0767 11.7348 46.4942L6.79739 53.2249C6.49114 53.6424 5.90444 53.7325 5.48695 53.4263C5.06947 53.12 4.9793 52.5333 5.28555 52.1158L10.2229 45.3852C10.5292 44.9677 11.1159 44.8775 11.5334 45.1838Z" fill="#194F94"/>
<path id="Line 74 (Stroke)" fill-rule="evenodd" clip-rule="evenodd" d="M15.6494 48.1924C16.0668 48.4987 16.157 49.0854 15.8508 49.5029L12.425 54.1729C12.1187 54.5904 11.532 54.6806 11.1145 54.3743C10.697 54.0681 10.6069 53.4814 10.9131 53.0639L14.3389 48.3938C14.6452 47.9764 15.2319 47.8862 15.6494 48.1924Z" fill="#194F94"/>
<path id="Ellipse 477 (Stroke)" fill-rule="evenodd" clip-rule="evenodd" d="M37.0481 21.3069C38.9104 21.3069 40.4201 19.7972 40.4201 17.9349C40.4201 16.0726 38.9104 14.5629 37.0481 14.5629C35.1857 14.5629 33.676 16.0726 33.676 17.9349C33.676 19.7972 35.1857 21.3069 37.0481 21.3069ZM37.0481 23.1819C39.9459 23.1819 42.2951 20.8327 42.2951 17.9349C42.2951 15.037 39.9459 12.6879 37.0481 12.6879C34.1502 12.6879 31.801 15.037 31.801 17.9349C31.801 20.8327 34.1502 23.1819 37.0481 23.1819Z" fill="#194F94"/>
</g>
</svg>
