<svg width="110" height="27" viewBox="0 0 110 27" fill="none" xmlns="http://www.w3.org/2000/svg">
<g id="audley">
<path id="Vector" fill-rule="evenodd" clip-rule="evenodd" d="M51.4408 17.8562V11.587C51.4408 10.4867 51.4819 10.549 52.0015 9.94718H49.8215C50.3405 10.549 50.3816 10.4874 50.3816 11.587V18.6032C49.8421 18.977 48.7835 19.6412 47.0601 19.6412C45.1916 19.6412 44.2577 18.6238 44.2577 16.9421V11.5864C44.2577 10.4861 44.2988 10.5484 44.8178 9.94655H42.9493H37.9051C38.0714 9.69796 39.3786 7.70482 39.3786 7.70482C39.8147 7.06121 40.3543 6.21075 40.5617 5.35904C40.6446 5.04752 40.6863 4.71544 40.6863 4.36217C40.6863 3.15844 40.1673 2.03757 39.254 1.20704C38.4234 0.438825 37.2403 0.0861816 35.6627 0.0861816C35.2471 0.0861816 34.583 0.127926 34.1269 0.190231C33.7948 0.252536 33.7531 0.397706 33.7531 0.501755C33.7531 0.522316 33.753 0.688667 34.0016 0.688667L34.583 0.626363L35.0396 0.605182L35.7456 0.564059C36.1605 0.564059 36.4926 0.605179 37.0322 0.688667C35.953 2.09987 35.33 2.84753 32.1954 6.14782C31.3649 7.02009 30.5556 7.74657 29.7045 8.51416C29.7045 8.51416 28.1886 9.90481 28.1475 9.94655H22.8335C22.7712 9.48986 22.6883 9.03316 21.7332 8.28613C20.3008 7.14408 17.3949 6.4176 14.1563 6.4176C8.73887 6.4176 4.60806 8.45186 2.55262 10.3615C1.82614 11.0051 0.497803 12.2088 0.497803 14.4718C0.497803 16.278 1.4735 17.7104 3.40433 18.7272C4.0685 19.0798 5.45914 19.8063 8.34448 19.8063C12.6211 19.8063 16.6267 18.1465 19.2846 16.9004C22.3774 15.4269 25.2216 13.7453 29.1032 10.4238H35.1231C34.9362 10.7141 27.8578 21.82 27.8578 21.82C27.4216 22.5054 26.9444 23.2729 26.9444 24.1247C26.9444 25.2038 27.9412 26.3664 29.5599 26.3664C29.5599 26.3664 29.5394 26.3253 29.5394 26.263H29.5599L29.5188 26.1583C29.5394 26.1583 29.5394 26.1789 29.5599 26.1789L29.5188 26.1377L29.4976 26.0966C29.4771 25.9726 29.4565 25.868 29.4565 25.868C29.249 25.8268 28.6054 25.6611 28.5849 25.1838V25.1427C28.5849 24.6231 28.8546 24.1458 29.1867 23.5851C30.3911 21.5714 36.12 12.625 37.5935 10.4244H42.8246C42.9698 10.4244 43.0944 10.549 43.1362 10.6531V10.6737C43.1985 10.8606 43.1985 11.1303 43.1985 11.587V16.7559C43.1985 18.9976 44.4228 20.0773 46.976 20.0773C48.8445 20.0773 49.6539 19.5178 50.3804 19.1222V19.8705H52.3941C51.8769 19.5172 51.4408 19.4125 51.4408 17.8562V17.8562ZM18.0827 16.4443C17.0242 16.8182 14.575 17.6487 10.5681 17.6487C7.28842 17.6487 5.77316 17.1502 4.9632 16.8599H4.90089C4.36133 16.6524 2.92894 16.154 2.07786 15.116C1.6006 14.5552 1.3302 13.9328 1.3302 13.3515C1.3302 12.106 2.49281 10.736 4.4442 9.6774C6.81054 8.41136 10.5675 7.62258 14.2628 7.62258C18.4142 7.62258 20.7805 8.43192 21.4447 8.8475C21.6522 8.97211 22.0883 9.32475 22.2129 9.65684C22.2129 9.65684 22.2335 9.78144 22.2541 9.86431H13.6186C11.9999 9.86431 10.256 9.96836 9.15569 10.1135C8.88591 10.1547 8.01427 10.2587 7.47471 10.7565C7.3501 10.8606 6.99683 11.255 6.99683 11.7322C6.99683 12.0226 7.12144 13.04 8.9694 13.6624C10.4635 14.202 12.6641 14.2437 13.3077 14.2437C15.7781 14.2437 17.9993 13.8288 19.9089 13.0188C22.0883 12.126 22.545 10.9846 22.7942 10.3409H27.5481C22.2759 15.0119 19.8472 15.8425 18.0827 16.4443V16.4443ZM22.2136 10.321C22.1513 10.5285 21.9849 10.7777 21.1756 11.2755C20.6977 11.587 19.8472 12.0232 18.332 12.4587C15.7787 13.2263 13.9314 13.2892 12.4155 13.2892C11.689 13.2892 9.4884 13.2892 8.1395 12.521C7.74511 12.293 7.57938 12.0437 7.57938 11.7322C7.57938 11.0886 8.55507 10.7976 11.2124 10.5902C13.122 10.445 14.7201 10.4238 16.4223 10.4033H17.1282C17.1276 10.4039 21.9643 10.321 22.2136 10.321V10.321ZM37.201 6.79205C37.201 6.79205 35.416 9.78144 35.3537 9.86431H29.583C29.8322 9.63627 30.4135 9.09672 30.4135 9.09672C31.4098 8.20389 32.3443 7.33224 34.0671 5.36029C35.6652 3.49177 36.5786 2.22573 37.5748 0.77278C38.5923 1.12543 39.1318 1.72791 39.1318 2.53726C39.1312 3.55407 38.5293 4.67493 37.201 6.79205V6.79205ZM60.4295 9.94718H58.5193C59.371 10.4251 59.371 10.8606 59.371 11.587V18.2088C59.371 18.9764 59.371 19.3708 58.5193 19.8699H61.1977C63.9161 19.8699 68.3591 19.3708 68.3591 15.1989C68.3591 12.5422 66.5117 9.94718 60.4295 9.94718ZM61.9448 19.4337C60.4295 19.4337 60.4295 18.8742 60.4295 17.4618V10.3833C63.4183 10.3833 67.1759 11.1933 67.1759 15.3029C67.1765 18.0848 64.913 19.4337 61.9448 19.4337V19.4337ZM76.455 17.8144V11.587C76.455 10.4867 76.5173 10.549 77.0356 9.94718H74.8562C75.3553 10.549 75.417 10.4874 75.417 11.587V18.2088C75.417 18.9764 75.417 19.3708 74.5447 19.8699H81.3328L82.164 17.8973C81.6867 18.2711 81.0225 19.4331 78.2824 19.4331C76.579 19.4337 76.455 18.9359 76.455 17.8144ZM89.4281 17.8144V14.5764H92.3134C93.1857 14.5764 93.2275 14.6593 93.7041 15.0119V13.6836C93.2268 14.0574 93.0605 14.1403 92.3751 14.1403H89.4281V10.3827H91.3178C93.2268 10.3827 93.2891 10.6113 93.8088 11.3173V9.94718H87.5191C88.3695 10.4251 88.3695 10.8606 88.3695 11.587V18.2088C88.3695 18.9764 88.3695 19.3708 87.5191 19.8699H94.286L95.1159 17.8973C94.6387 18.2711 93.9745 19.4331 91.2549 19.4331C89.554 19.4337 89.4281 18.9359 89.4281 17.8144V17.8144ZM108.256 9.94718C108.339 10.0512 108.464 10.0923 108.464 10.3628C108.464 10.6332 108.256 10.8194 108.029 11.0892L105.454 14.0163L103.088 11.1522C102.859 10.8817 102.735 10.6332 102.735 10.3216C102.735 10.1765 102.859 10.0724 102.942 9.9478H100.534C101.198 10.3634 101.262 10.3839 101.821 11.0687L104.603 14.5559V18.4798C104.603 19.3097 104.395 19.4132 104.021 19.8705H106.243C105.911 19.4337 105.723 19.268 105.723 18.4587V14.4518L108.692 11.0475C109.108 10.5702 109.585 10.2587 110 9.94718H108.256V9.94718Z" fill="black"/>
</g>
</svg>
