<svg width="121" height="27" viewBox="0 0 121 27" fill="none" xmlns="http://www.w3.org/2000/svg">
<g id="_2095921759792">
<path id="Vector" d="M66.7743 17.1515H62.8379V10.9382H66.7743V12.0516H64.2471V13.4678H66.4905V14.5936H64.2471V15.9809H66.7743V17.1515Z" fill="#333031"/>
<path id="Vector_2" d="M62.8379 26.1082V19.8932H66.7746V21.0083H64.2468V22.4235H66.4905V23.5489H64.2468V26.1082H62.8379Z" fill="#333031"/>
<path id="Vector_3" d="M70.7363 12.0851C70.5189 12.0851 70.2767 12.0794 70.1496 12.0872V15.983C70.3159 15.9869 70.5605 15.9784 70.7278 15.9784C71.3181 15.9784 72.7562 15.7295 72.7562 13.9829C72.7562 12.4875 71.3096 12.0851 70.7359 12.0851H70.7363ZM69.1418 17.1172H68.9766V10.9534H69.1167C69.3677 10.9534 69.6459 10.9509 69.9519 10.9445C70.0691 10.9445 70.1987 10.9438 70.3409 10.9403C70.4828 10.9375 70.5926 10.9353 70.671 10.9311C70.749 10.9286 70.8069 10.9269 70.8461 10.9269C71.9436 10.9269 74.1294 11.797 74.1294 13.9825C74.1294 16.5517 71.849 17.1345 70.779 17.1345C70.5619 17.1345 70.3198 17.1324 70.0525 17.1257C69.7849 17.1197 69.4817 17.1169 69.1418 17.1169V17.1172Z" fill="#333031"/>
<path id="Vector_4" d="M79.4876 10.955H80.7839V14.5737C80.7839 15.4605 80.5618 16.1234 80.1195 16.5643C79.6825 17.0038 79.1318 17.2244 78.4674 17.2244C77.7113 17.2244 77.1119 16.9929 76.6699 16.5294C76.2216 16.0595 75.9971 15.3881 75.9971 14.5123V10.9554H77.2933V14.2129C77.2933 15.3404 77.6844 15.997 78.4674 15.997C78.8293 15.997 79.0898 15.7715 79.2493 15.5074C79.4089 15.2444 79.488 14.8385 79.488 14.2934V10.9557L79.4876 10.955Z" fill="#333031"/>
<path id="Vector_5" d="M93.9557 14.59L93.1522 12.5002L92.3396 14.59H93.9557V14.59ZM91.4172 17.1299H90.1167L92.5623 10.9657H93.8215L96.2668 17.1299H94.8777L94.4838 15.707H91.8111L91.4172 17.1299Z" fill="#333031"/>
<path id="Vector_6" d="M98.7257 12.2584H96.7598V10.9382H101.866V12.2584H99.9008V17.1006H98.7257V12.2584Z" fill="#333031"/>
<path id="Vector_7" d="M104.93 17.1006H103.788V10.9382H104.93V17.1006Z" fill="#333031"/>
<path id="Vector_8" d="M108.391 14.0193C108.391 14.5418 108.564 14.9852 108.91 15.3498C109.25 15.7067 109.67 15.8857 110.169 15.8857C110.732 15.8857 111.169 15.7127 111.481 15.3675C111.792 15.0088 111.947 14.5594 111.947 14.0193C111.947 13.4616 111.777 13.0133 111.437 12.6723C111.09 12.3256 110.668 12.1526 110.169 12.1526C109.653 12.1526 109.227 12.3256 108.892 12.6723C108.558 13.0186 108.391 13.4679 108.391 14.0193H108.391ZM106.894 14.0193C106.894 13.1096 107.196 12.3531 107.801 11.7477C108.411 11.1381 109.201 10.8317 110.17 10.8317C111.132 10.8317 111.916 11.1222 112.52 11.7039C113.137 12.2854 113.445 13.0574 113.445 14.0193C113.445 14.9477 113.134 15.7106 112.512 16.3096C111.895 16.9073 111.115 17.2066 110.17 17.2066C109.213 17.2066 108.426 16.9161 107.81 16.3358C107.2 15.7544 106.894 14.9823 106.894 14.0193V14.0193Z" fill="#333031"/>
<path id="Vector_9" d="M120.666 10.9657V17.1299H119.539L116.616 13.4318V17.1299H115.295V10.9657H116.422L119.345 14.6818V10.9657H120.666Z" fill="#333031"/>
<path id="Vector_10" d="M85.3364 21.2376H83.3708V19.917H88.4774V21.2376H86.5119V26.0809H85.3364V21.2376Z" fill="#333031"/>
<path id="Vector_11" d="M70.1185 26.0812H68.9766V19.917H70.1185V26.0812Z" fill="#333031"/>
<path id="Vector_12" d="M73.5558 21.0766C73.4707 21.0787 73.3175 21.0808 73.2229 21.0808V22.7506H73.716C74.2597 22.7506 74.6949 22.3721 74.6949 21.8959C74.6949 20.9996 73.65 21.0741 73.5561 21.0766H73.5558ZM73.2359 23.8834V26.0882H72.0862V19.924C72.3704 19.924 72.6842 19.9219 73.0277 19.9152C73.3722 19.9092 73.6511 19.9064 73.8654 19.9064C75.156 19.9064 75.9146 20.7787 75.9146 21.8811C75.9146 22.7262 75.5545 23.2705 74.9664 23.6115L76.3516 26.0882H74.9014L73.77 23.8834H73.2359Z" fill="#333031"/>
<path id="Vector_13" d="M80.8304 24.4041C80.864 23.9315 80.6723 23.8379 79.1886 23.1164C78.3629 22.7139 78.1779 22.0736 78.1779 21.5885C78.1779 20.1373 79.5645 19.8112 80.1611 19.8112C80.9451 19.8112 81.6229 20.1525 82.1108 20.8515L81.2145 21.5448C81.045 21.3873 80.613 20.9609 80.2112 20.9327C79.5561 20.8885 79.4893 21.4336 79.4879 21.5751C79.4837 22.1721 80.4626 22.4344 80.697 22.524C81.5626 22.8523 81.84 23.1774 82.0441 23.5389C82.1761 23.7744 82.186 24.054 82.186 24.371C82.186 25.053 81.6289 26.1303 80.1262 26.1854C78.6287 26.2401 77.9834 24.797 77.8433 24.4853L78.9277 23.9562C79.0855 24.163 79.3933 24.9742 80.1664 24.987C80.7309 24.9961 80.8205 24.5503 80.8304 24.4038V24.4041Z" fill="#333031"/>
<path id="Vector_14" d="M87.0869 15.3937C86.7815 15.7414 86.3526 15.914 85.7998 15.914C85.3105 15.914 84.8986 15.7347 84.5646 15.376C84.2254 15.0131 84.0552 14.5694 84.0552 14.0469C84.0552 13.4945 84.2194 13.0458 84.5477 12.6992C84.8763 12.3529 85.2936 12.1802 85.7998 12.1802C86.289 12.1802 86.7042 12.3529 87.0434 12.6992C87.2665 12.9265 87.3929 13.1881 87.5196 13.4927L88.7965 12.7726C88.6454 12.3751 88.4156 12.0281 88.106 11.7309C87.5133 11.1509 86.7444 10.86 85.7998 10.86C84.8502 10.86 84.0753 11.1643 83.477 11.776C82.8836 12.3793 82.5874 13.1376 82.5874 14.0469C82.5874 15.0092 82.8868 15.7809 83.4855 16.362C84.0898 16.943 84.8611 17.2343 85.7994 17.2343C86.7264 17.2343 87.4928 16.9346 88.0968 16.3358C88.3933 16.0457 88.6168 15.717 88.7696 15.3499L87.5112 14.6354C87.3982 14.9436 87.2796 15.1688 87.0869 15.3937V15.3937Z" fill="#333031"/>
<path id="Vector_15" d="M0.787201 22.5616L0 26.3716H2.50494C2.4001 26.1966 2.29525 26.0176 2.19253 25.8337C1.53417 24.6532 1.09079 23.5321 0.787201 22.5613V22.5616Z" fill="#333031"/>
<path id="Vector_16" d="M5.33649 0.563354L4.61353 4.05884C5.43039 2.92215 6.38316 1.74205 7.49407 0.563354H5.33649V0.563354Z" fill="#333031"/>
<path id="Vector_17" d="M4.30809 21.1158C3.71398 18.6772 3.78388 16.7177 3.81953 16.0713C3.93814 13.924 4.44223 12.3658 4.85031 11.1356C5.35087 9.62648 6.33789 6.73888 8.80965 3.75949C9.39952 3.04924 10.4949 1.825 12.1276 0.563354H8.73127C7.73826 1.51012 6.19245 3.08241 4.77795 5.31378C4.58379 5.61983 4.36281 5.9852 4.12771 6.4067L1.20728 20.4899C1.40355 21.7343 1.7103 22.6045 1.94823 23.3666C2.33724 24.611 2.67931 25.282 3.00584 25.8066C3.13292 26.0099 3.26178 26.1984 3.38922 26.3725H6.62312C6.39331 26.0519 6.21186 25.7625 6.0703 25.5355C4.96609 23.7609 4.56615 22.1777 4.30775 21.1151L4.30809 21.1158Z" fill="#333031"/>
<path id="Vector_18" d="M41.2533 17.4359L42.6004 10.9197H40.6691C40.5561 12.6462 40.1929 14.9175 39.2271 17.4341L41.2533 17.4359V17.4359Z" fill="#333031"/>
<path id="Vector_19" d="M43.6504 5.84929L44.7433 0.563354H41.8391C41.9874 0.819285 42.1335 1.08898 42.274 1.3728C43.0789 2.99452 43.4682 4.55058 43.6504 5.84929V5.84929Z" fill="#333031"/>
<path id="Vector_20" d="M40.7924 0.563708H37.7163C38.0997 0.979904 38.4742 1.45187 38.8223 1.98738C39.9212 3.68288 40.3074 5.32473 40.5001 6.72158H42.8911C42.7993 5.66785 42.5741 4.47433 42.1123 3.21727C41.7258 2.16424 41.252 1.28067 40.7921 0.563354L40.7924 0.563708Z" fill="#333031"/>
<path id="Vector_21" d="M12.1997 26.1059C11.8873 25.8677 10.7164 24.959 9.78584 23.7736C8.00492 21.5034 7.66002 18.9321 7.53505 17.9966C6.69595 11.7431 10.7736 6.68062 11.5752 5.68514C13.8959 2.80389 16.5519 1.26513 18.0208 0.563354H13.5464C12.989 0.956958 12.5869 1.2849 12.3529 1.48153C10.5021 3.03794 9.41519 4.55128 8.77306 5.45851C7.8616 6.74734 6.13927 9.23146 5.26593 12.9448C4.92245 14.4051 4.30574 17.1537 5.01246 20.5016C5.5568 23.0764 6.62394 24.7709 7.03731 25.3826C7.30701 25.7805 7.56153 26.1084 7.78674 26.3732H12.5626C12.4429 26.2877 12.3218 26.1981 12.1997 26.1063V26.1059Z" fill="#333031"/>
<path id="Vector_22" d="M35.4114 17.4313L38.3149 17.4334C38.9644 15.9472 39.6916 13.7872 39.86 11.1364C39.8642 11.0676 39.8688 10.9959 39.8734 10.9197H36.8919C36.8767 13.5517 36.1534 15.794 35.4114 17.4313V17.4313Z" fill="#333031"/>
<path id="Vector_23" d="M35.2247 4.19404C35.7567 5.07303 36.1083 5.93013 36.3441 6.72122H39.5999C39.5434 6.4547 39.4778 6.18112 39.4008 5.90154C39.0715 4.6999 38.5077 2.72976 36.8789 0.911416C36.7706 0.790687 36.6611 0.674905 36.5503 0.563354H31.6802C32.808 1.29549 34.1696 2.45018 35.2251 4.19404H35.2247Z" fill="#333031"/>
<path id="Vector_24" d="M30.7565 26.3737L31.448 23.0272C30.3085 24.148 28.809 25.3744 26.968 26.3737H30.7565Z" fill="#333031"/>
<path id="Vector_25" d="M18.2843 25.2909C17.8755 25.221 17.238 25.0812 16.5115 24.8033C15.0151 24.2304 13.9751 23.3874 13.447 22.9056C12.4007 21.9489 11.7455 20.9316 11.3632 20.2015H9.54029L10.3441 16.3153C10.3275 15.8786 10.3427 15.5192 10.3554 15.2573C10.4277 13.7401 10.809 12.6316 11.0872 11.8405C11.1708 11.6044 11.4077 10.9531 11.8592 10.0854H11.6693L12.3661 6.71487H14.1975C15.3713 5.4098 16.4338 4.64448 16.7282 4.43691C19.3956 2.5575 21.9316 2.09823 22.4957 2.00609C22.6874 1.97362 22.8942 1.94043 23.118 1.91008L23.3958 0.563354H19.6123C17.035 1.61285 15.2163 3.20032 14.4499 3.86856C13.2575 4.90711 9.24906 8.50109 8.51127 14.3356C8.34395 15.6597 7.87656 19.3483 9.92118 22.4714C11.0625 24.2156 12.7827 25.4727 12.9853 25.617C13.2645 25.8179 13.6468 26.0908 14.1403 26.3732H18.0601L18.2836 25.2912L18.2843 25.2909Z" fill="#333031"/>
<path id="Vector_26" d="M26.4983 1.97397C26.5756 1.98915 26.654 2.00609 26.733 2.02339C28.8087 2.4876 30.1664 3.50532 30.5572 3.81385C31.9321 4.89617 32.713 6.14194 33.1334 6.98633C33.7738 8.27305 34.0029 9.47786 34.0795 10.4285L34.8455 6.72158H35.5953C35.1724 5.53265 34.1233 3.26986 31.751 1.58954C31.1315 1.15146 30.5148 0.819285 29.9249 0.563354H26.7913L26.4993 1.97397H26.4983Z" fill="#333031"/>
<path id="Vector_27" d="M34.1133 11.787C34.0646 14.1458 33.2848 15.8547 32.8651 16.75C32.0677 18.4522 31.1848 19.6351 30.5963 20.3079C29.6612 21.3772 27.7825 23.3166 24.7205 24.4971C24.7205 24.4971 23.4232 24.9976 21.6882 25.2589L21.458 26.374H25.0103C26.9392 25.5148 29.4681 24.0371 31.75 21.5692L32.6064 17.4291L34.6249 17.4299C35.3086 16.0369 36.1788 13.7529 36.2137 10.9197H34.1109C34.1225 11.2582 34.1179 11.5516 34.1133 11.787Z" fill="#333031"/>
<path id="Vector_28" d="M19.143 6.03773C20.4809 5.28582 21.7386 4.98859 22.5071 4.86892L22.9508 2.72369C22.5022 2.80065 22.1065 2.8942 21.7729 2.97363C18.5471 3.73683 16.542 5.62719 15.7795 6.36356C15.657 6.48147 15.5405 6.59972 15.429 6.71551H18.0988C18.415 6.4797 18.761 6.252 19.143 6.03773Z" fill="#333031"/>
<path id="Vector_29" d="M13.4381 15.7109C13.4092 15.3134 13.3312 13.8428 13.9804 12.0958C14.2892 11.2648 14.6617 10.6421 15.0489 10.0868H12.9715C12.3244 11.1649 11.6886 12.4495 11.4133 14.1379C11.33 14.6508 11.2145 15.401 11.2389 16.3011H13.5031C13.4759 16.1155 13.4533 15.9188 13.4381 15.7109V15.7109Z" fill="#333031"/>
<path id="Vector_30" d="M18.6631 22.2557C18.3249 22.1724 17.656 22.0043 16.909 21.6044C16.5327 21.4032 15.7897 20.9944 15.1098 20.2029H12.3228C12.7601 20.9683 13.5092 22.0111 14.7038 22.8883C15.7882 23.6854 16.9443 24.1291 17.7231 24.2992C17.8403 24.324 18.1075 24.378 18.4633 24.4288L18.9011 22.3104C18.8241 22.2935 18.745 22.2755 18.6635 22.2557H18.6631Z" fill="#333031"/>
<path id="Vector_31" d="M27.9568 5.76414C28.3024 5.9823 29.066 6.51252 29.7459 7.44517C30.7011 8.75659 30.9038 10.055 31.0121 10.8079C31.3457 13.135 30.6344 14.9459 30.3612 15.618C29.7664 17.0784 28.9728 18.0128 28.4811 18.5822C26.1953 21.2294 23.4652 22.1109 22.2854 22.3636L21.8745 24.3511C23.0165 24.1124 23.9707 23.7301 24.1779 23.6447C24.7198 23.4237 25.7195 22.9747 26.8904 22.1628C27.9547 21.4225 30.5822 19.5985 32.1061 16.0967C32.5413 15.0959 33.4511 12.9337 33.1362 10.1573C33.0507 9.40542 32.9046 8.21896 32.1869 6.90295C30.7438 4.25574 28.181 3.27015 27.3599 2.99868C27.0129 2.8829 26.674 2.7957 26.3443 2.73004L25.8914 4.92258C26.5522 5.06731 27.2596 5.32324 27.9568 5.76414Z" fill="#333031"/>
<path id="Vector_32" d="M15.4813 15.6936C15.4026 15.2453 15.433 14.9089 15.4813 14.3645C15.499 14.1598 15.5667 13.4884 15.7793 12.7644C16.1323 11.5645 16.7712 10.6068 17.1715 10.0868H16.1347C15.3535 11.1204 14.4622 12.5593 14.2878 14.4722C14.2204 15.2125 14.2754 15.8553 14.3425 16.3011H15.6416C15.5554 16.0586 15.5078 15.8443 15.4813 15.6936Z" fill="#333031"/>
<path id="Vector_33" d="M22.3411 5.66809C21.8567 5.7687 21.2446 5.93884 20.5781 6.22972C20.2354 6.37904 19.9177 6.5432 19.6226 6.71723H22.1236L22.3411 5.66809V5.66809Z" fill="#333031"/>
<path id="Vector_34" d="M16.3892 20.2029C16.9427 20.6707 17.8902 21.226 19.0558 21.5631L19.3371 20.2029H16.3895H16.3892Z" fill="#333031"/>
<path id="Vector_35" d="M26.2745 7.39282C27.8397 8.17014 28.5242 9.56488 28.7149 9.99625C29.3725 11.4838 29.1434 12.82 29.0138 13.5214C28.7021 15.1999 27.8426 16.2865 27.1966 17.102C25.9413 18.6866 24.602 19.4212 24.214 19.6231C23.7371 19.8713 23.2817 20.1036 22.7282 20.2236L22.4744 21.4517C24.7548 20.7263 26.403 19.3976 26.492 19.3248C27.3536 18.6174 28.8042 17.3992 29.6644 15.2571C29.9158 14.6323 30.4531 13.2506 30.2886 11.4337C30.2342 10.8346 30.1082 9.60618 29.2853 8.31487C28.5433 7.15207 27.6269 6.55125 27.414 6.4171C26.8439 6.05633 26.2699 5.83146 25.7316 5.69556L25.446 7.07476C25.7203 7.15136 25.9963 7.25444 26.2752 7.39247L26.2745 7.39282Z" fill="#333031"/>
<path id="Vector_36" d="M17.9399 15.8203C17.6088 15.007 17.6787 14.2904 17.7228 13.8859C17.8622 12.6076 18.491 11.7392 18.7356 11.4077C19.1758 10.8133 19.6795 10.3883 20.136 10.0868H18.3649C18.1238 10.3357 17.9339 10.5634 17.7955 10.7402C17.4926 11.1271 16.8696 11.9387 16.4936 13.1795C16.4936 13.1795 16.0877 14.5199 16.2772 15.8924C16.2984 16.0477 16.3249 16.1832 16.3567 16.3015H18.1718C18.0589 16.1052 17.9865 15.934 17.9402 15.8203H17.9399Z" fill="#333031"/>
<path id="Vector_37" d="M25.2996 9.58992C26.3233 10.2373 26.6918 11.2508 26.7642 11.4612C27.1112 12.4793 26.8842 13.341 26.7363 13.9026C26.3201 15.4852 25.2819 16.4143 24.8657 16.7772C24.4382 17.1492 23.9426 17.5813 23.2232 17.8309L22.9333 19.2341C23.3584 19.1321 23.7146 18.9499 24.1424 18.7293C25.6512 17.9555 26.5192 16.8428 26.7815 16.4888C27.1814 15.9465 28.3118 14.4148 28.2641 12.2573C28.2489 11.5749 28.2214 10.3228 27.3241 9.22068C26.6999 8.45324 25.9085 8.06952 25.2826 7.87042L24.9653 9.40671C25.0772 9.46002 25.1894 9.52109 25.2996 9.59063V9.58992Z" fill="#333031"/>
<path id="Vector_38" d="M21.4254 10.1044C20.8814 10.3544 20.5217 10.7014 20.1104 11.0992C19.7528 11.4444 19.2473 11.9323 18.8813 12.7259C18.6913 13.1371 18.1255 14.3628 18.6101 15.6004C18.6603 15.7293 18.7722 16.0134 18.9928 16.2997H20.1443L21.4254 10.1044V10.1044Z" fill="#333031"/>
<path id="Vector_39" d="M24.3945 16.1239C24.9092 15.6209 25.312 15.2259 25.642 14.552C25.8295 14.1697 26.1433 13.5071 26.0946 12.6175C26.0766 12.2896 26.0342 11.5331 25.4796 10.8631C25.2544 10.5916 25.0077 10.4098 24.7831 10.2809L23.417 16.8917C23.6355 16.7713 23.9596 16.55 24.3948 16.1239H24.3945Z" fill="#333031"/>
<path id="Vector_40" d="M50.2083 26.0791H51.5913L54.4659 10.9739H53.11L50.2083 26.0791Z" fill="#333031"/>
</g>
</svg>
