<svg width="102" height="37" viewBox="0 0 102 37" fill="none" xmlns="http://www.w3.org/2000/svg">
<g id="Hotelplan" clip-path="url(#clip0_205_19)">
<g id="_2095916768336">
<path id="Vector" d="M74.1271 3.11841C74.8015 3.11841 75.7826 4.09231 75.7826 5.78569C75.7826 7.34741 73.7732 12.8346 72.4601 16.8632C71.0537 21.1748 69.7138 27.8051 68.5846 27.8051C67.6732 27.8051 66.6426 25.5672 66.6426 24.5968C66.6421 23.8309 68.2704 18.657 69.533 14.9315C71.0809 10.3602 73.213 3.11885 74.1271 3.11885V3.11841Z" fill="#E31E24"/>
<path id="Vector_2" d="M74.1271 3.11841C74.8015 3.11841 75.7826 4.09231 75.7826 5.78569C75.7826 7.34741 73.7732 12.8346 72.4601 16.8632C71.0537 21.1748 69.7138 27.8051 68.5846 27.8051C67.6732 27.8051 66.6426 25.5672 66.6426 24.5968C66.6421 23.8309 68.2704 18.657 69.533 14.9315C71.0809 10.3602 73.213 3.11885 74.1271 3.11885V3.11841Z" stroke="#E31E24" stroke-width="0.253814" stroke-miterlimit="1"/>
<path id="Vector_3" d="M82.8241 15.5218C81.8399 18.7309 80.4411 22.8139 77.6819 22.8139C77.1534 22.8139 76.5665 22.3712 76.6522 21.4999C76.9155 18.8255 79.4931 15.5392 82.48 15.5392C82.6032 15.5409 82.829 15.5383 82.8241 15.5218ZM81.9618 12.4291C78.1791 12.4291 72.8102 18.3881 72.8102 22.7742C72.8102 24.9193 74.325 26.2703 76.1532 26.2703C78.3907 26.2703 79.6105 25.1067 81.236 23.7508C81.236 24.88 82.3961 25.5741 83.1812 25.5741C84.671 25.5736 86.2046 23.932 87.7387 22.2435C87.4097 23.2964 87.2901 23.9079 87.2901 24.5796C87.2901 25.2116 88.43 26.9117 89.0214 26.9122C89.2941 26.9113 90.152 25.3661 91.0808 24.0672C92.3167 22.3377 93.9503 20.6318 94.9117 20.6318C95.2509 20.6318 95.2982 21.0018 95.2982 21.3397C95.2982 22.1547 95.0853 22.8041 95.0853 24.0226C95.0853 25.4018 95.491 26.5323 96.9153 26.5323C99.0304 26.5323 101.675 24.3328 101.675 23.2433C101.675 22.8461 101.594 22.4636 101.167 22.4636C100.661 22.4636 99.7678 22.992 98.9519 22.992C98.5355 22.992 98.3623 22.3542 98.3623 21.6374C98.3623 19.8356 98.9019 18.5006 98.9019 16.4416C98.9019 15.4133 98.4417 14.7996 97.3683 14.7996C96.0311 14.7996 93.6436 17.0549 92.1971 18.6996C92.6796 16.9889 93.3366 14.996 93.3366 14.2939C93.3366 13.1107 91.628 11.5989 91.0808 11.5989C90.5751 11.5989 89.3606 15.6923 88.8782 17.5316C88.2872 18.4314 85.7793 21.4388 84.9678 21.4388C84.2907 21.4388 84.3211 20.9746 84.3211 20.6706C84.322 20.0096 86.4323 15.8918 86.4323 14.717C86.4323 13.8355 85.5722 12.0252 84.5496 12.0252C84.1841 12.0252 83.9274 12.6166 83.7418 12.9237C83.4008 12.5978 82.8067 12.4287 81.9627 12.4287L81.9618 12.4291Z" fill="#E31E24"/>
<path id="Vector_4" d="M82.8241 15.5218C81.8399 18.7309 80.4411 22.8139 77.6819 22.8139C77.1534 22.8139 76.5665 22.3712 76.6522 21.4999C76.9155 18.8255 79.4931 15.5392 82.48 15.5392C82.6032 15.5409 82.829 15.5383 82.8241 15.5218ZM81.9618 12.4291C78.1791 12.4291 72.8102 18.3881 72.8102 22.7742C72.8102 24.9193 74.325 26.2703 76.1532 26.2703C78.3907 26.2703 79.6105 25.1067 81.236 23.7508C81.236 24.88 82.3961 25.5741 83.1812 25.5741C84.671 25.5736 86.2046 23.932 87.7387 22.2435C87.4097 23.2964 87.2901 23.9079 87.2901 24.5796C87.2901 25.2116 88.43 26.9117 89.0214 26.9122C89.2941 26.9113 90.152 25.3661 91.0808 24.0672C92.3167 22.3377 93.9503 20.6318 94.9117 20.6318C95.2509 20.6318 95.2982 21.0018 95.2982 21.3397C95.2982 22.1547 95.0853 22.8041 95.0853 24.0226C95.0853 25.4018 95.491 26.5323 96.9153 26.5323C99.0304 26.5323 101.675 24.3328 101.675 23.2433C101.675 22.8461 101.594 22.4636 101.167 22.4636C100.661 22.4636 99.7678 22.992 98.9519 22.992C98.5355 22.992 98.3623 22.3542 98.3623 21.6374C98.3623 19.8356 98.9019 18.5006 98.9019 16.4416C98.9019 15.4133 98.4417 14.7996 97.3683 14.7996C96.0311 14.7996 93.6436 17.0549 92.1971 18.6996C92.6796 16.9889 93.3366 14.996 93.3366 14.2939C93.3366 13.1107 91.628 11.5989 91.0808 11.5989C90.5751 11.5989 89.3606 15.6923 88.8782 17.5316C88.2872 18.4314 85.7793 21.4388 84.9678 21.4388C84.2907 21.4388 84.3211 20.9746 84.3211 20.6706C84.322 20.0096 86.4323 15.8918 86.4323 14.717C86.4323 13.8355 85.5722 12.0252 84.5496 12.0252C84.1841 12.0252 83.9274 12.6166 83.7418 12.9237C83.4008 12.5978 82.8067 12.4287 81.9627 12.4287L81.9618 12.4291Z" stroke="#E31E24" stroke-width="0.253814" stroke-miterlimit="1"/>
<path id="Vector_5" d="M57.4752 24.1692C55.9979 29.2886 54.1197 35.6787 53.3083 35.6787C52.3594 35.6805 51.423 34.1367 51.423 32.9427C51.423 31.2614 53.0449 27.7742 54.3848 23.343C56.3951 16.6877 58.4375 9.25897 59.5846 9.25897C60.4286 9.25897 61.3173 10.9224 61.3869 11.7433C61.4168 12.0914 61.4302 12.6011 61.3369 12.9292C61.9859 12.4257 62.8353 12.1476 63.81 12.1476C65.2419 12.1476 66.9344 13.5737 66.9344 16.6186C66.9344 20.6539 63.5503 26.0348 60.209 26.0348C59.1236 26.0348 57.9091 25.2113 57.4748 24.1692H57.4752ZM58.6562 20.7614C58.6562 21.6983 59.4052 22.1736 60.2532 22.1736C61.5976 22.1736 63.4213 19.7005 63.4208 17.7045C63.4213 16.4311 62.8571 15.5768 61.7721 15.5768C59.8194 15.5768 58.6567 19.7005 58.6567 20.7614H58.6562Z" fill="#E31E24"/>
<path id="Vector_6" d="M57.4752 24.1692C55.9979 29.2886 54.1197 35.6787 53.3083 35.6787C52.3594 35.6805 51.423 34.1367 51.423 32.9427C51.423 31.2614 53.0449 27.7742 54.3848 23.343C56.3951 16.6877 58.4375 9.25897 59.5846 9.25897C60.4286 9.25897 61.3173 10.9224 61.3869 11.7433C61.4168 12.0914 61.4302 12.6011 61.3369 12.9292C61.9859 12.4257 62.8353 12.1476 63.81 12.1476C65.2419 12.1476 66.9344 13.5737 66.9344 16.6186C66.9344 20.6539 63.5503 26.0348 60.209 26.0348C59.1236 26.0348 57.9091 25.2113 57.4748 24.1692H57.4752ZM58.6562 20.7614C58.6562 21.6983 59.4052 22.1736 60.2532 22.1736C61.5976 22.1736 63.4213 19.7005 63.4208 17.7045C63.4213 16.4311 62.8571 15.5768 61.7721 15.5768C59.8194 15.5768 58.6567 19.7005 58.6567 20.7614H58.6562Z" stroke="#E31E24" stroke-width="0.253814" stroke-miterlimit="1"/>
<path id="Vector_7" d="M42.5394 21.0449C42.8719 21.9514 43.4035 22.2112 44.1574 22.2112C46.2176 22.2112 48.9425 20.4013 50.5172 17.2511C52.2021 13.9447 55.1541 1.88966 56.2222 1.88966C57.2684 1.88966 58.0057 3.48932 58.0057 4.42617C58.0057 5.91558 55.6339 12.8364 53.7607 18.2451C52.2735 22.5428 51.2898 27.802 50.1842 27.802C49.1907 27.802 48.3489 25.7096 48.3328 24.8182C48.3203 24.1429 48.4426 23.593 48.5439 23.2944C47.5629 24.1871 45.3665 26.0496 43.2317 26.0496C41.1741 26.0496 39.4566 24.8981 39.037 21.498C37.6088 21.4564 36.1774 20.8432 36.1774 20.8432C34.9343 24.4723 33.6699 28.1064 32.9767 28.1064C31.8667 28.1064 31.0048 26.5121 31.0048 25.2927C31.0048 24.2563 31.885 21.6885 32.8428 19.0159C31.8779 18.2928 30.5897 16.8365 30.5897 16.8365C30.5755 17.1587 30.5719 17.2939 30.5299 17.6287C29.8765 22.8602 26.7548 25.8118 24.2299 25.8118C21.6734 25.8118 20.146 23.8881 20.0518 21.8095C19.9666 19.9358 20.8963 17.6997 21.5689 16.7378C21.5689 16.7378 20.6718 16.8565 19.0864 17.2605C17.2462 22.9369 15.8509 28.2599 14.8753 28.2599C13.7817 28.2599 12.7829 26.3005 12.7829 25.348C12.7829 24.4415 13.4189 22.2987 14.8088 18.1888C14.1942 18.3558 11.6501 19.1092 10.8967 19.3551C8.86896 24.7401 7.67145 28.296 6.70871 28.296C5.68795 28.296 4.95061 25.9965 4.95061 24.9959C4.95061 23.8711 6.40744 20.7097 6.40744 20.7097C3.54868 21.7354 0.93674 22.6218 0.683223 22.4214C-0.132227 21.7765 1.75978 18.7539 2.53417 18.208C2.85419 17.9813 5.27465 17.1525 8.05307 16.291C10.5356 10.1379 14.2227 1.45672 15.0431 1.45672C15.709 1.45672 16.599 3.63974 16.599 4.82966C16.599 5.84596 14.2977 10.998 12.4887 15.2787C12.927 15.1542 15.2578 14.4945 16.0411 14.2696C18.1781 8.10619 21.1953 0.547546 22.0411 0.547546C22.7905 0.547546 23.3841 2.79483 23.3841 4.14052C23.3841 5.02471 21.6809 9.49696 20.2496 13.518C21.972 13.0743 23.306 12.9743 24.4187 12.9743C25.6957 12.9743 26.101 14.133 26.101 14.8342C26.1005 15.7653 25.4101 16.354 24.7298 16.5231C24.2188 17.6305 23.456 18.8717 23.456 20.6597C23.4556 21.2846 23.9604 22.0282 24.5254 22.0282C26.0407 22.0282 27.3485 18.3415 27.5569 16.4397C27.6569 15.53 27.3485 14.7757 27.3485 14.7757C26.7839 14.3593 26.3714 14.0027 26.371 12.969C26.3714 11.8322 27.2543 10.5552 28.4487 10.5552C29.4592 10.5552 30.109 11.5943 30.5665 12.8855C30.5665 12.8855 31.8551 14.8034 33.8587 16.1826C35.6989 10.8953 38.2841 3.15144 38.9527 3.15144C39.931 3.15144 40.9206 4.58329 40.9206 5.94907C40.9206 6.69801 38.8237 13.3149 37.1812 17.9376C37.1812 17.9376 37.819 18.1232 38.2537 18.2094C38.7483 18.3165 39.1348 18.3299 39.2035 18.3272C40.0855 15.1158 43.0063 11.3015 45.7606 11.3019C47.9793 11.3019 49.121 12.5789 49.1215 14.7213C49.121 17.277 46.5109 19.8532 42.5381 21.044L42.5394 21.0449ZM46.3417 15.0779C46.3417 14.5722 46.1538 14.308 45.5838 14.308C44.3939 14.308 43.0411 16.1393 42.5091 17.9362C44.9032 17.1565 46.3417 15.7063 46.3417 15.0779Z" fill="#E31E24"/>
<path id="Vector_8" d="M42.5394 21.0449C42.8719 21.9514 43.4035 22.2112 44.1574 22.2112C46.2176 22.2112 48.9425 20.4013 50.5172 17.2511C52.2021 13.9447 55.1541 1.88966 56.2222 1.88966C57.2684 1.88966 58.0057 3.48932 58.0057 4.42617C58.0057 5.91558 55.6339 12.8364 53.7607 18.2451C52.2735 22.5428 51.2898 27.802 50.1842 27.802C49.1907 27.802 48.3489 25.7096 48.3328 24.8182C48.3203 24.1429 48.4426 23.593 48.5439 23.2944C47.5629 24.1871 45.3665 26.0496 43.2317 26.0496C41.1741 26.0496 39.4566 24.8981 39.037 21.498C37.6088 21.4564 36.1774 20.8432 36.1774 20.8432C34.9343 24.4723 33.6699 28.1064 32.9767 28.1064C31.8667 28.1064 31.0048 26.5121 31.0048 25.2927C31.0048 24.2563 31.885 21.6885 32.8428 19.0159C31.8779 18.2928 30.5897 16.8365 30.5897 16.8365C30.5755 17.1587 30.5719 17.2939 30.5299 17.6287C29.8765 22.8602 26.7548 25.8118 24.2299 25.8118C21.6734 25.8118 20.146 23.8881 20.0518 21.8095C19.9666 19.9358 20.8963 17.6997 21.5689 16.7378C21.5689 16.7378 20.6718 16.8565 19.0864 17.2605C17.2462 22.9369 15.8509 28.2599 14.8753 28.2599C13.7817 28.2599 12.7829 26.3005 12.7829 25.348C12.7829 24.4415 13.4189 22.2987 14.8088 18.1888C14.1942 18.3558 11.6501 19.1092 10.8967 19.3551C8.86896 24.7401 7.67145 28.296 6.70871 28.296C5.68795 28.296 4.95061 25.9965 4.95061 24.9959C4.95061 23.8711 6.40744 20.7097 6.40744 20.7097C3.54868 21.7354 0.93674 22.6218 0.683223 22.4214C-0.132227 21.7765 1.75978 18.7539 2.53417 18.208C2.85419 17.9813 5.27465 17.1525 8.05307 16.291C10.5356 10.1379 14.2227 1.45672 15.0431 1.45672C15.709 1.45672 16.599 3.63974 16.599 4.82966C16.599 5.84596 14.2977 10.998 12.4887 15.2787C12.927 15.1542 15.2578 14.4945 16.0411 14.2696C18.1781 8.10619 21.1953 0.547546 22.0411 0.547546C22.7905 0.547546 23.3841 2.79483 23.3841 4.14052C23.3841 5.02471 21.6809 9.49696 20.2496 13.518C21.972 13.0743 23.306 12.9743 24.4187 12.9743C25.6957 12.9743 26.101 14.133 26.101 14.8342C26.1005 15.7653 25.4101 16.354 24.7298 16.5231C24.2188 17.6305 23.456 18.8717 23.456 20.6597C23.4556 21.2846 23.9604 22.0282 24.5254 22.0282C26.0407 22.0282 27.3485 18.3415 27.5569 16.4397C27.6569 15.53 27.3485 14.7757 27.3485 14.7757C26.7839 14.3593 26.3714 14.0027 26.371 12.969C26.3714 11.8322 27.2543 10.5552 28.4487 10.5552C29.4592 10.5552 30.109 11.5943 30.5665 12.8855C30.5665 12.8855 31.8551 14.8034 33.8587 16.1826C35.6989 10.8953 38.2841 3.15144 38.9527 3.15144C39.931 3.15144 40.9206 4.58329 40.9206 5.94907C40.9206 6.69801 38.8237 13.3149 37.1812 17.9376C37.1812 17.9376 37.819 18.1232 38.2537 18.2094C38.7483 18.3165 39.1348 18.3299 39.2035 18.3272C40.0855 15.1158 43.0063 11.3015 45.7606 11.3019C47.9793 11.3019 49.121 12.5789 49.1215 14.7213C49.121 17.277 46.5109 19.8532 42.5381 21.044L42.5394 21.0449ZM46.3417 15.0779C46.3417 14.5722 46.1538 14.308 45.5838 14.308C44.3939 14.308 43.0411 16.1393 42.5091 17.9362C44.9032 17.1565 46.3417 15.7063 46.3417 15.0779Z" stroke="#E31E24" stroke-width="0.253814" stroke-miterlimit="1"/>
</g>
</g>
<defs>
<clipPath id="clip0_205_19">
<rect width="102" height="36.2559" fill="white" transform="translate(0 0.0635376)"/>
</clipPath>
</defs>
</svg>
