<svg width="113" height="21" viewBox="0 0 113 21" fill="none" xmlns="http://www.w3.org/2000/svg">
<g id="Tallink_logo 1" clip-path="url(#clip0_205_214)">
<g id="Group">
<path id="Vector" d="M9.64453 0.713592C10.83 0.307381 12.2213 0.75369 12.9657 1.75614C14.0431 3.22234 15.0804 4.71817 16.1526 6.1896C17.3312 5.00758 18.4835 3.79766 19.7039 2.66096C20.6994 3.90401 21.5746 5.23945 22.4986 6.53479C22.7688 6.78758 22.4655 7.04561 22.2842 7.22866C20.3054 9.20219 18.3319 11.1844 16.3549 13.1597C15.8998 13.7106 14.92 13.7437 14.5051 13.1283C12.7739 10.7277 11.0689 8.30957 9.3499 5.90019C8.96984 5.35102 8.44508 4.89077 7.81745 4.65192C7.16194 4.35555 6.42797 4.51768 5.73584 4.42528C5.97817 3.70352 6.66856 3.28859 7.15322 2.7429C7.93775 2.02114 8.58978 1.05878 9.64453 0.713592V0.713592ZM26.2521 3.57625C30.3753 3.59368 34.4984 3.57102 38.6215 3.58845C38.6111 4.49327 38.6215 5.39635 38.6111 6.30118C37.185 6.31164 35.7606 6.2942 34.3362 6.30641C34.3171 9.99369 34.3415 13.6792 34.324 17.3665C33.0357 17.3752 31.7456 17.3595 30.4572 17.377C30.4729 13.6862 30.4502 9.99543 30.4694 6.30292C29.0729 6.30466 27.6765 6.29246 26.2818 6.31338C26.212 5.40333 26.2591 4.48979 26.2521 3.57625V3.57625ZM42.2042 3.58496C43.7663 3.57625 45.3266 3.59019 46.887 3.57625C48.7071 8.1701 50.5202 12.7657 52.3211 17.3648C50.8776 17.3682 49.4358 17.3805 47.9923 17.3578C47.6924 16.432 47.3734 15.5133 47.0421 14.5997C45.2063 14.5963 43.3723 14.5945 41.5382 14.6032C41.2174 15.5255 40.9141 16.453 40.5881 17.3735C39.3119 17.3735 38.0375 17.3543 36.7631 17.3839C38.571 12.7814 40.3928 8.18579 42.2042 3.58496V3.58496ZM42.4396 12.0526C43.6843 12.077 44.9309 12.0631 46.1774 12.0561C45.5689 10.1314 45.0076 8.19276 44.38 6.27502C43.6652 8.17707 43.0776 10.1244 42.4396 12.0526ZM53.8483 3.5745C55.1332 3.57973 56.4181 3.58322 57.7047 3.5745C57.6978 7.27399 57.6855 10.9735 57.71 14.6712C59.7776 14.6869 61.847 14.6486 63.9147 14.6887C63.9077 15.5813 63.9199 16.4739 63.913 17.3665C60.5587 17.3752 57.2044 17.3526 53.8501 17.3805C53.8571 12.7779 53.8588 8.17707 53.8483 3.5745V3.5745ZM65.5326 3.57625C66.8192 3.58148 68.1041 3.59019 69.3907 3.57276C69.3924 7.2705 69.3907 10.97 69.3925 14.6677C71.4671 14.6817 73.5417 14.666 75.6164 14.673C75.6111 15.5708 75.6111 16.4687 75.6094 17.3665C72.2516 17.3752 68.8938 17.356 65.5361 17.377C65.5291 12.7761 65.5361 8.17707 65.5326 3.57625V3.57625ZM77.0477 3.57973C78.3744 3.58148 79.7029 3.58322 81.0296 3.5745C81.0279 8.17184 81.0331 12.7709 81.0279 17.37C79.6994 17.3735 78.3727 17.356 77.0442 17.3787C77.0494 12.7796 77.0425 8.17881 77.0477 3.57973V3.57973ZM83.5663 3.57799C85.3341 3.58322 87.1001 3.58148 88.8679 3.58148C90.4387 6.98284 91.9258 10.4226 93.5385 13.803C93.481 10.3964 93.5123 6.98807 93.4827 3.58148C94.6054 3.58671 95.7299 3.56056 96.8544 3.58148C96.8335 8.17707 96.837 12.7727 96.8544 17.3665C95.1267 17.3787 93.399 17.3508 91.6731 17.3822C90.0674 13.8588 88.5681 10.2866 86.9362 6.77538C86.9206 10.3058 86.9624 13.8379 86.9537 17.3683C85.8222 17.3735 84.6925 17.37 83.561 17.3665C83.5767 12.7709 83.5645 8.17358 83.5663 3.57799V3.57799ZM99.6961 3.58148C100.981 3.5745 102.266 3.59194 103.551 3.56927C103.556 5.58464 103.526 7.6 103.563 9.61537C105.048 7.62616 106.499 5.61079 107.951 3.59542C109.47 3.56927 110.988 3.58148 112.507 3.58322C110.955 5.62997 109.321 7.61395 107.77 9.6607C109.48 12.2305 111.192 14.7967 112.902 17.3665C111.312 17.3717 109.721 17.37 108.131 17.3648C106.633 14.917 105.116 12.4815 103.568 10.0669C103.523 12.5024 103.553 14.938 103.553 17.3735C102.268 17.3665 100.985 17.3717 99.6996 17.3665C99.6787 12.7727 99.6874 8.17707 99.6961 3.58148V3.58148Z" fill="#04529C"/>
</g>
<path id="Vector_2" d="M3.95252 6.50797C5.19731 6.08084 6.60597 6.71369 7.32599 7.76671C9.06242 10.2109 10.7814 12.6656 12.5196 15.1081C12.9484 15.7218 13.4749 16.3163 14.2019 16.5691C14.8679 16.855 15.6019 16.7208 16.3027 16.8027C16.1005 17.4059 15.5723 17.7895 15.1486 18.2306C14.5158 18.8181 13.9596 19.4858 13.2919 20.0385C12.3766 20.7951 10.9871 20.9119 9.96549 20.3017C9.44771 20.0175 9.0537 19.5643 8.72071 19.0848C6.98952 16.6284 5.24612 14.1807 3.51842 11.7225C3.13487 11.175 2.59616 10.7305 1.97028 10.4916C1.3444 10.258 0.666221 10.3225 0.0124479 10.3068C0.00896112 10.2109 0.00373093 10.0192 0.000244141 9.92329C0.777799 9.11958 1.58673 8.34551 2.36429 7.54006C2.80537 7.08155 3.32664 6.6736 3.95252 6.50797V6.50797Z" fill="#EE4035"/>
</g>
<defs>
<clipPath id="clip0_205_214">
<rect width="112.903" height="20.1291" fill="white" transform="translate(0 0.563538)"/>
</clipPath>
</defs>
</svg>
