<svg width="88" height="12" viewBox="0 0 88 12" fill="none" xmlns="http://www.w3.org/2000/svg">
<g id="Group">
<path id="Vector" d="M6.06897 8.23449C6.06897 7.84828 6.23448 7.79311 6.62069 8.0138C7.28276 8.4 7.94483 8.73104 7.94483 8.73104C7.94483 8.51035 8.16552 8.34483 8.55172 8.45518C8.93793 8.56552 9.32414 8.62069 9.32414 8.62069C9.32414 8.62069 9.10345 8.12414 8.9931 7.90345C8.82759 7.51725 8.9931 7.29656 9.15862 7.24138C9.15862 7.24138 8.93793 7.07587 8.77241 6.96552C8.44138 6.74483 8.49655 6.46897 8.82759 6.35862C9.26897 6.13794 9.87586 5.91725 9.87586 5.91725C9.71034 5.8069 9.48966 5.53104 9.71035 5.14483C9.93104 4.8138 10.3172 4.31725 10.3172 4.31725C10.3172 4.31725 9.71034 4.31725 9.26896 4.31725C8.88276 4.31725 8.77241 3.98621 8.77241 3.76552C8.77241 3.76552 8.16552 4.2069 7.72414 4.48276C7.33793 4.75863 7.0069 4.48276 7.06207 4.04138C7.17241 3.37931 7.22759 2.6069 7.22759 2.6069C7.0069 2.82759 6.62069 2.77242 6.4 2.44138C6.12414 1.88966 5.84828 1.22759 5.84828 1.22759C5.84828 1.22759 5.57241 1.88966 5.29655 2.44138C5.13103 2.77242 4.74483 2.82759 4.52414 2.66207C4.52414 2.66207 4.57931 3.43449 4.68966 4.09656C4.74483 4.48276 4.41379 4.75863 4.02759 4.48276C3.58621 4.2069 2.92414 3.76552 2.92414 3.76552C2.92414 3.98621 2.81379 4.26207 2.42759 4.31725C1.98621 4.31725 1.37931 4.31725 1.37931 4.31725C1.37931 4.31725 1.76552 4.8138 1.98621 5.14483C2.2069 5.47587 1.98621 5.8069 1.82069 5.91725C1.82069 5.91725 2.37241 6.19311 2.86897 6.35862C3.2 6.52414 3.31034 6.74483 2.92414 6.96552C2.81379 7.07587 2.53793 7.24138 2.53793 7.24138C2.75862 7.29656 2.92414 7.51725 2.75862 7.90345C2.64828 8.12414 2.42759 8.62069 2.42759 8.62069C2.42759 8.62069 2.81379 8.51035 3.2 8.45518C3.58621 8.34483 3.75172 8.56552 3.8069 8.73104C3.8069 8.73104 4.46897 8.34483 5.13103 8.0138C5.46207 7.79311 5.68276 7.90345 5.68276 8.23449V9.17242C5.68276 9.72414 5.57241 10.2759 5.4069 10.6069C2.92414 10.331 0.827586 8.34483 0.827586 5.69656C0.827586 2.99311 3.08966 0.786211 5.90345 0.786211C8.71724 0.786211 10.9793 2.99311 10.9793 5.69656C10.9793 8.23449 8.9931 10.331 6.45517 10.6069V11.269C9.43448 10.9931 11.7517 8.62069 11.7517 5.69656C11.7517 2.55173 9.10345 0.0689697 5.84828 0.0689697C2.64828 0.0689697 0 2.55173 0 5.64138C0 8.34483 2.04138 10.6069 4.74483 11.1035C5.18621 11.2138 5.46207 11.269 5.73793 11.5448C6.01379 10.9931 6.06897 9.88966 6.06897 9.28276V8.23449Z" fill="#F01428"/>
<path id="Vector_2" d="M29.738 8.62067V2.66205H32.6622C34.207 2.66205 34.9242 3.32412 34.9794 4.1517C34.9794 4.53791 34.9242 4.92412 34.6484 5.19998C34.3725 5.47584 34.2622 5.58619 33.7656 5.86205L35.9725 8.67584H34.3725L32.3863 6.13791H31.0622V8.62067H29.738ZM31.0622 5.3655H31.6691C33.2691 5.3655 33.6001 5.08963 33.6001 4.31722C33.6001 3.54481 32.8829 3.43446 31.8346 3.43446H31.0622V5.3655Z" fill="#2E2A25"/>
<path id="Vector_3" d="M16.6621 8.62067L19.2552 2.66205H20.8552L23.4483 8.62067H21.8483L21.1311 7.02067H18.3725L17.6552 8.62067H16.6621ZM18.7035 6.24826H20.7449L19.6966 3.87584L18.7035 6.24826Z" fill="#2E2A25"/>
<path id="Vector_4" d="M26.6484 2.66205H25.269V8.62067H26.6484V2.66205Z" fill="#2E2A25"/>
<g id="Group_2">
<path id="Vector_5" d="M45.9037 8.39972C45.2416 8.67559 44.414 8.78593 43.4209 8.78593C42.2623 8.78593 41.3244 8.51007 40.6623 7.95834C40.0002 7.40662 39.6692 6.63421 39.6692 5.6411C39.6692 4.648 40.0002 3.82041 40.6623 3.32386C41.3244 2.77214 42.2623 2.49628 43.5313 2.49628C44.3037 2.49628 45.0761 2.55145 45.9037 2.71697V3.71007C45.0209 3.43421 44.1933 3.32386 43.5864 3.32386C42.814 3.32386 42.2623 3.54455 41.8209 3.93076C41.4347 4.31697 41.214 4.92386 41.214 5.6411C41.214 6.35835 41.4347 6.91007 41.8761 7.35145C42.3175 7.73766 42.9244 7.95834 43.6968 7.95834C44.414 7.95834 45.1864 7.79283 45.9037 7.51697V8.39972Z" fill="#2E2A25"/>
</g>
<path id="Vector_6" d="M47.614 8.62067L50.2071 2.66205H51.8071L54.4002 8.62067H52.8002L52.083 7.02067H49.3244L48.6071 8.62067H47.614ZM49.7106 6.24826H51.7519L50.7588 3.87584L49.7106 6.24826Z" fill="#2E2A25"/>
<path id="Vector_7" d="M64.8828 8.62067L67.4759 2.66205H69.0759L71.669 8.62067H70.069L69.3518 7.02067H66.5932L65.8759 8.62067H64.8828ZM66.9242 6.24826H68.9656L67.9173 3.87584L66.9242 6.24826Z" fill="#2E2A25"/>
<path id="Vector_8" d="M84.3035 3.87584L85.3518 6.24826H83.3104L84.3035 3.87584ZM83.8621 2.66205L81.269 8.62067H82.2621L82.9794 7.02067H85.738L86.4553 8.62067H88.0553L85.4621 2.66205H83.8621Z" fill="#2E2A25"/>
<path id="Vector_9" d="M56.3862 8.62067V2.66205H57.9862L61.738 6.91032V2.66205H62.8966V8.62067H61.4069L57.5449 4.1517V8.62067H56.3862Z" fill="#2E2A25"/>
<g id="Group_3">
<path id="Vector_10" d="M73.6001 8.62079V2.66217H76.4691C77.5173 2.66217 78.2898 2.93803 78.8415 3.37941C79.3932 3.87596 79.6691 4.59321 79.6691 5.47596C79.6691 6.46907 79.3932 7.24148 78.7863 7.73803C78.1794 8.28976 77.407 8.56562 76.3587 8.56562H73.6001V8.62079ZM74.9794 7.7932H76.0277C76.7449 7.7932 77.2967 7.62769 77.6829 7.24148C78.0691 6.85527 78.2346 6.35872 78.2346 5.58631C78.2346 5.03458 78.0691 4.53803 77.7932 4.15183C77.5725 3.87596 77.3518 3.71045 77.076 3.6001C76.8001 3.48976 76.4139 3.43458 75.8622 3.43458H75.0346V7.7932H74.9794Z" fill="#2E2A25"/>
</g>
</g>
</svg>
