<svg width="100" height="45" viewBox="0 0 100 45" fill="none" xmlns="http://www.w3.org/2000/svg">
<g id="&#208;&#157;&#208;&#190;&#208;&#178;&#209;&#139;&#208;&#185; &#209;&#130;&#208;&#181;&#208;&#186;&#209;&#129;&#209;&#130;&#208;&#190;&#208;&#178;&#209;&#139;&#208;&#185; &#208;&#180;&#208;&#190;&#208;&#186;&#209;&#131;&#208;&#188;&#208;&#181;&#208;&#189;&#209;&#130; (3) 1" clip-path="url(#clip0_205_343)">
<path id="Vector" d="M14.0029 15.4776L10.2522 9.84408L12.9711 8.77461L9.26561 6.94447L5.56767 5.11433L5.82374 9.23403L6.09487 13.3613L8.17355 11.2223L11.9393 16.8559L14.0029 15.4776ZM8.2564 4.98629C8.1911 4.98734 8.12657 4.97204 8.0687 4.94178C8.01082 4.91153 7.96143 4.86728 7.92501 4.81307C7.89581 4.77037 7.87553 4.72222 7.86539 4.67149C7.85526 4.62077 7.85547 4.56852 7.86602 4.51788C7.87657 4.46724 7.89724 4.41925 7.92679 4.37679C7.95634 4.33433 7.99416 4.29828 8.03799 4.2708L10.2296 2.76451C10.2727 2.73632 10.3208 2.71689 10.3714 2.70731C10.4219 2.69773 10.4738 2.6982 10.5242 2.70869C10.5745 2.71918 10.6223 2.73949 10.6648 2.76845C10.7073 2.79741 10.7437 2.83446 10.7719 2.87748C10.8001 2.92051 10.8195 2.96866 10.8291 3.0192C10.8387 3.06973 10.8382 3.12166 10.8277 3.17201C10.8172 3.22237 10.7969 3.27016 10.768 3.31267C10.739 3.35517 10.702 3.39156 10.6589 3.41975L8.46728 4.92604C8.40383 4.96506 8.33088 4.9859 8.2564 4.98629V4.98629ZM1.81701 9.106C1.75045 9.10832 1.68439 9.09364 1.62509 9.06333C1.56579 9.03302 1.51519 8.98808 1.47809 8.93277C1.44905 8.89068 1.4289 8.84311 1.41885 8.79296C1.4088 8.74282 1.40907 8.69116 1.41964 8.64112C1.43021 8.59109 1.45086 8.54373 1.48033 8.50194C1.5098 8.46015 1.54748 8.42479 1.59106 8.39804L3.77518 6.89175C3.81788 6.86254 3.86603 6.84227 3.91676 6.83213C3.96748 6.82199 4.01973 6.8222 4.07037 6.83275C4.12101 6.8433 4.169 6.86397 4.21146 6.89352C4.25392 6.92308 4.28997 6.9609 4.31745 7.00472C4.34682 7.04636 4.36744 7.09352 4.37806 7.14336C4.38867 7.19319 4.38906 7.24467 4.37921 7.29466C4.36935 7.34465 4.34945 7.39212 4.32071 7.4342C4.29197 7.47628 4.25499 7.51209 4.21201 7.53945L2.02035 9.04575C1.9569 9.08476 1.88396 9.1056 1.80947 9.106H1.81701ZM6.96099 3.72101C6.91707 3.77143 6.86003 3.80868 6.79621 3.82862C6.73239 3.84857 6.66429 3.85042 6.59948 3.83398C6.49902 3.81225 6.41114 3.7519 6.35478 3.66595C6.29842 3.58001 6.27811 3.47535 6.29822 3.37456L6.78777 0.783739C6.80613 0.682069 6.86393 0.591776 6.94857 0.532528C7.03321 0.47328 7.13784 0.449877 7.23965 0.467418C7.28978 0.476454 7.3376 0.495368 7.38035 0.52306C7.4231 0.550753 7.45991 0.58667 7.48864 0.628722C7.51738 0.670773 7.53746 0.71812 7.54773 0.768007C7.558 0.817894 7.55824 0.869324 7.54844 0.919305L7.0589 3.52519C7.04515 3.59831 7.01124 3.66613 6.96099 3.72101V3.72101ZM4.96515 3.57038C4.96764 3.63592 4.95296 3.70097 4.92258 3.75909C4.8922 3.81721 4.84716 3.86639 4.79193 3.90176C4.75029 3.93114 4.70313 3.95176 4.65329 3.96237C4.60345 3.97299 4.55198 3.97338 4.50199 3.96352C4.452 3.95366 4.40453 3.93376 4.36245 3.90502C4.32037 3.87628 4.28456 3.8393 4.2572 3.79632L2.75091 1.60467C2.72236 1.56105 2.70298 1.51209 2.69397 1.46075C2.68495 1.40941 2.68648 1.35677 2.69845 1.30604C2.71043 1.2553 2.73261 1.20754 2.76364 1.16566C2.79467 1.12377 2.8339 1.08864 2.87894 1.0624C2.92104 1.03337 2.96861 1.01321 3.01875 1.00316C3.06889 0.993111 3.12055 0.99338 3.17059 1.00395C3.22062 1.01452 3.26798 1.03517 3.30977 1.06464C3.35157 1.09412 3.38692 1.13179 3.41367 1.17537L4.91996 3.36703C4.95467 3.42959 4.97523 3.49901 4.98022 3.57038H4.96515ZM3.98606 4.98629C4.03516 5.03104 4.07097 5.08846 4.08957 5.15223C4.10817 5.21601 4.10884 5.28367 4.0915 5.3478C4.07151 5.44766 4.01268 5.5355 3.92794 5.59199C3.8432 5.64849 3.73949 5.66901 3.63962 5.64906L1.04127 5.15951C0.940517 5.13938 0.851413 5.08117 0.792495 4.997C0.733577 4.91283 0.709382 4.80918 0.724944 4.70763C0.744972 4.60578 0.804608 4.51606 0.890751 4.45816C0.976894 4.40026 1.0825 4.37892 1.18436 4.39884L3.77518 4.88838C3.85363 4.89937 3.92704 4.93345 3.98606 4.98629" fill="#FF5326"/>
<path id="Vector_2" d="M95.9224 14.2649C95.9224 17.1194 85.5742 17.1194 85.5742 14.2649C85.5742 12.8927 86.1193 11.5766 87.0897 10.6063C88.06 9.63595 89.3761 9.09082 90.7483 9.09082C92.1206 9.09082 93.4366 9.63595 94.407 10.6063C95.3773 11.5766 95.9224 12.8927 95.9224 14.2649" fill="#50D9AF"/>
<path id="Vector_3" d="M99.0558 16.8707C98.6808 16.8609 98.3138 16.7605 97.9859 16.5782C97.6581 16.396 97.3791 16.1371 97.1729 15.8238C96.7662 15.3569 96.5026 15.0707 95.9603 15.0707C95.4181 15.0707 95.1545 15.3343 94.7478 15.8238C94.5417 16.1345 94.2619 16.3894 93.9334 16.5657C93.6048 16.742 93.2378 16.8343 92.8649 16.8343C92.4921 16.8343 92.125 16.742 91.7965 16.5657C91.4679 16.3894 91.1882 16.1345 90.9821 15.8238C90.5754 15.3569 90.3268 15.0707 89.7695 15.0707C89.2122 15.0707 88.9712 15.3343 88.5569 15.8238C88.3584 16.1446 88.0813 16.4093 87.7518 16.5929C87.4222 16.7765 87.0513 16.8729 86.6741 16.8729C86.2969 16.8729 85.9259 16.7765 85.5964 16.5929C85.2669 16.4093 84.9897 16.1446 84.7912 15.8238C84.3845 15.3569 84.1284 15.0707 83.5786 15.0707C83.5203 15.0707 83.4625 15.0592 83.4086 15.0368C83.3547 15.0145 83.3057 14.9818 83.2644 14.9405C83.2232 14.8993 83.1904 14.8503 83.1681 14.7964C83.1458 14.7424 83.1343 14.6847 83.1343 14.6263C83.1343 14.568 83.1458 14.5102 83.1681 14.4563C83.1904 14.4024 83.2232 14.3534 83.2644 14.3121C83.3057 14.2708 83.3547 14.2381 83.4086 14.2158C83.4625 14.1935 83.5203 14.182 83.5786 14.182C83.9531 14.1943 84.3192 14.2957 84.6466 14.4777C84.9741 14.6598 85.2534 14.9173 85.4615 15.2288C85.8682 15.6958 86.1243 15.982 86.6741 15.982C87.2239 15.982 87.4799 15.7184 87.8866 15.2288C88.0927 14.9181 88.3725 14.6632 88.701 14.4869C89.0296 14.3106 89.3966 14.2183 89.7695 14.2183C90.1423 14.2183 90.5094 14.3106 90.8379 14.4869C91.1665 14.6632 91.4463 14.9181 91.6524 15.2288C92.0591 15.6958 92.3076 15.982 92.8649 15.982C93.4222 15.982 93.6632 15.7184 94.0775 15.2288C94.2855 14.9173 94.5649 14.6598 94.8923 14.4777C95.2198 14.2957 95.5859 14.1943 95.9603 14.182C96.3352 14.1924 96.702 14.293 97.0297 14.4752C97.3575 14.6575 97.6365 14.916 97.8432 15.2288C98.2499 15.6958 98.5135 15.982 99.0558 15.982C99.1144 15.981 99.1726 15.9918 99.227 16.0137C99.2814 16.0357 99.3308 16.0684 99.3722 16.1099C99.4137 16.1513 99.4464 16.2007 99.4684 16.2551C99.4904 16.3095 99.5011 16.3677 99.5001 16.4263C99.5022 16.4853 99.4922 16.544 99.4706 16.5988C99.449 16.6537 99.4164 16.7035 99.3747 16.7452C99.333 16.7869 99.2831 16.8196 99.2283 16.8412C99.1734 16.8627 99.1147 16.8728 99.0558 16.8707V16.8707ZM93.234 2.44795C93.1823 2.41668 93.1251 2.39588 93.0654 2.38675C93.0057 2.37763 92.9449 2.38034 92.8862 2.39475C92.8276 2.40916 92.7724 2.43498 92.7238 2.47073C92.6752 2.50647 92.6341 2.55146 92.6028 2.6031L92.6013 2.60611C92.3678 2.98268 90.4097 6.2664 90.4097 7.87813C90.4097 9.27898 90.3494 11.5158 90.3494 11.8472C90.3494 11.971 90.3986 12.0898 90.4862 12.1774C90.5737 12.265 90.6925 12.3142 90.8164 12.3142C90.9402 12.3142 91.059 12.265 91.1465 12.1774C91.2341 12.0898 91.2833 11.971 91.2833 11.8472V11.787C91.2833 11.2748 91.3436 9.19613 91.3436 7.86307C91.3436 6.71075 92.8499 4.00696 93.3921 3.07306C93.4513 2.96535 93.4672 2.83908 93.4364 2.72008C93.4056 2.60108 93.3305 2.49835 93.2264 2.43289" fill="#50D9AF"/>
<path id="Vector_4" d="M93.5954 1.61176C93.2455 1.26107 92.83 0.982834 92.3725 0.792992C91.915 0.603151 91.4245 0.505432 90.9292 0.505432C90.4339 0.505432 89.9434 0.603151 89.4859 0.792992C89.0284 0.982834 88.6129 1.26107 88.2631 1.61176C88.1254 1.74976 88.0018 1.90114 87.894 2.06364V2.17661C88.7365 2.05332 89.5967 2.1654 90.3794 2.50047C89.6327 3.16757 89.176 4.09991 89.1066 5.09882C89.0875 5.29669 89.0875 5.49594 89.1066 5.6938C89.1066 5.6938 89.1066 5.76159 89.1593 5.78418C89.5577 5.31545 90.045 4.93034 90.5931 4.65111C91.1413 4.37188 91.7393 4.20407 92.3527 4.15739C92.9968 5.0919 93.2656 6.23458 93.1058 7.35825C93.2896 7.23437 93.4611 7.09314 93.6179 6.93649C94.2405 6.31674 94.6268 5.49884 94.71 4.62434C95.4428 4.98836 96.0644 5.54236 96.51 6.22854C96.6353 5.73342 96.6586 5.218 96.5784 4.71361C96.4982 4.20923 96.3162 3.72643 96.0436 3.29457C95.771 2.86271 95.4133 2.49083 94.9924 2.20153C94.5716 1.91224 94.0962 1.71158 93.5954 1.61176V1.61176Z" fill="#50D9AF"/>
<path id="Vector_5" d="M63.0026 5.2949C62.8289 5.28271 62.6573 5.3386 62.524 5.45075C62.3908 5.56289 62.3064 5.72249 62.2888 5.89574C62.2712 6.06899 62.3217 6.24229 62.4296 6.37896C62.5376 6.51563 62.6944 6.60494 62.867 6.62797C62.9565 6.64058 63.0476 6.63478 63.1347 6.61092C63.2218 6.58707 63.3031 6.54565 63.3736 6.48923C63.4442 6.4328 63.5024 6.36256 63.5448 6.28281C63.5872 6.20305 63.6129 6.11548 63.6202 6.02545C63.6284 5.93677 63.6189 5.84734 63.5922 5.76237C63.5655 5.67741 63.5222 5.59862 63.4647 5.53061C63.4072 5.46259 63.3367 5.40672 63.2574 5.36625C63.178 5.32578 63.0914 5.30152 63.0026 5.2949V5.2949ZM65.4277 7.56187C65.4029 7.52426 65.3706 7.49212 65.3329 7.46743C65.2951 7.44273 65.2528 7.42599 65.2083 7.41824C65.1639 7.41048 65.1184 7.41187 65.0745 7.42232C65.0307 7.43278 64.9894 7.45207 64.9533 7.47902L63.8235 8.29242C63.7857 8.31801 63.7534 8.35098 63.7286 8.38936C63.7039 8.42775 63.6871 8.47074 63.6794 8.51576C63.6716 8.56079 63.6731 8.60691 63.6836 8.65136C63.6941 8.69581 63.7136 8.73767 63.7407 8.77443C63.7676 8.81481 63.8032 8.84864 63.8449 8.8734C63.8866 8.89817 63.9334 8.91325 63.9817 8.91753C64.0677 8.92577 64.1536 8.90159 64.2227 8.84975L65.3524 8.04388C65.3897 8.01771 65.4213 7.98429 65.4454 7.94563C65.4694 7.90697 65.4854 7.86386 65.4925 7.81887C65.4995 7.77388 65.4974 7.72794 65.4863 7.68378C65.4751 7.63962 65.4552 7.59816 65.4277 7.56187V7.56187ZM62.6938 9.09828L61.5716 9.91168C61.5338 9.93727 61.5015 9.97025 61.4767 10.0086C61.452 10.047 61.4352 10.09 61.4275 10.135C61.4197 10.1801 61.4212 10.2262 61.4317 10.2706C61.4422 10.3151 61.4617 10.3569 61.4888 10.3937C61.5418 10.4685 61.6223 10.5192 61.7127 10.5347C61.803 10.5502 61.8958 10.5293 61.9708 10.4765L63.093 9.66314C63.1619 9.60797 63.2072 9.52855 63.2196 9.44111C63.232 9.35366 63.2105 9.2648 63.1595 9.19268C63.1085 9.12056 63.0319 9.07062 62.9454 9.05308C62.8588 9.03553 62.7688 9.0517 62.6938 9.09828V9.09828ZM58.785 10.1C58.6961 10.0873 58.6056 10.0929 58.519 10.1163C58.4324 10.1397 58.3514 10.1805 58.2809 10.2361C58.2105 10.2917 58.1521 10.3611 58.1093 10.44C58.0665 10.5188 58.0401 10.6056 58.0318 10.695C58.0203 10.7837 58.0266 10.8738 58.0505 10.96C58.0743 11.0462 58.1151 11.1268 58.1706 11.197C58.226 11.2671 58.295 11.3255 58.3733 11.3686C58.4517 11.4118 58.5379 11.4388 58.6268 11.4481C58.8036 11.4671 58.9807 11.415 59.1191 11.3035C59.2575 11.1919 59.3459 11.0299 59.3649 10.8531C59.3839 10.6763 59.3319 10.4993 59.2203 10.3608C59.1087 10.2224 58.9467 10.134 58.7699 10.115L58.785 10.1V10.1ZM66.0152 9.65561C65.8841 9.6419 65.7518 9.66717 65.6349 9.72825C65.5181 9.78934 65.4218 9.88353 65.3583 9.99904C65.2947 10.1146 65.2666 10.2463 65.2775 10.3777C65.2884 10.5091 65.3378 10.6343 65.4195 10.7378C65.5012 10.8413 65.6117 10.9183 65.737 10.9593C65.8623 11.0003 65.9969 11.0035 66.124 10.9684C66.2511 10.9332 66.365 10.8614 66.4515 10.7619C66.538 10.6623 66.5932 10.5395 66.6102 10.4088C66.6228 10.3199 66.6172 10.2294 66.5938 10.1428C66.5704 10.0561 66.5297 9.97512 66.4741 9.9047C66.4184 9.83427 66.3491 9.77588 66.2702 9.73307C66.1913 9.69025 66.1046 9.6639 66.0152 9.65561V9.65561ZM69.4571 4.23296L68.3349 5.04636C68.297 5.07195 68.2648 5.10493 68.24 5.14331C68.2152 5.18169 68.1984 5.22468 68.1907 5.26971C68.183 5.31473 68.1844 5.36085 68.195 5.40531C68.2055 5.44976 68.2249 5.49162 68.252 5.52837C68.3048 5.61122 68.3951 5.66545 68.493 5.67147C68.5777 5.67652 68.6618 5.65549 68.734 5.61122L69.8562 4.79782C69.8964 4.77291 69.931 4.74005 69.9579 4.70127C69.9849 4.66249 70.0037 4.61861 70.013 4.57232C70.0224 4.52603 70.0222 4.4783 70.0125 4.43209C70.0028 4.38587 69.9837 4.34213 69.9564 4.30355C69.9292 4.26498 69.8943 4.23239 69.854 4.20778C69.8137 4.18317 69.7688 4.16706 69.722 4.16045C69.6752 4.15384 69.6276 4.15686 69.582 4.16933C69.5365 4.1818 69.494 4.20346 69.4571 4.23296V4.23296ZM67.2052 5.85976L66.0754 6.66562C66.0187 6.70667 65.9757 6.76395 65.9522 6.8299C65.9287 6.89585 65.9257 6.96739 65.9436 7.03507C65.9616 7.10276 65.9996 7.16342 66.0527 7.20906C66.1058 7.2547 66.1715 7.28318 66.2411 7.29074C66.3219 7.30582 66.4053 7.28967 66.4746 7.24555L67.6043 6.43968C67.6733 6.38451 67.7186 6.30509 67.7309 6.21764C67.7433 6.1302 67.7218 6.04134 67.6708 5.96922C67.6199 5.89709 67.5433 5.84716 67.4567 5.82961C67.3702 5.81207 67.2802 5.82824 67.2052 5.87482V5.85976Z" fill="#FF9D6E"/>
<path id="Vector_6" d="M65.4277 7.56187C65.4029 7.52426 65.3706 7.49212 65.3329 7.46743C65.2951 7.44273 65.2528 7.42599 65.2083 7.41824C65.1639 7.41048 65.1184 7.41187 65.0745 7.42232C65.0307 7.43278 64.9894 7.45207 64.9533 7.47902L63.8235 8.29242C63.7857 8.31801 63.7534 8.35098 63.7286 8.38936C63.7039 8.42775 63.6871 8.47074 63.6794 8.51576C63.6716 8.56079 63.6731 8.60691 63.6836 8.65136C63.6941 8.69581 63.7136 8.73767 63.7407 8.77443C63.7676 8.81481 63.8032 8.84864 63.8449 8.8734C63.8866 8.89817 63.9334 8.91325 63.9817 8.91753C64.0677 8.92577 64.1536 8.90159 64.2227 8.84975L65.3524 8.04388C65.3897 8.01771 65.4213 7.98429 65.4454 7.94563C65.4694 7.90697 65.4854 7.86386 65.4925 7.81887C65.4995 7.77388 65.4974 7.72794 65.4863 7.68378C65.4751 7.63962 65.4552 7.59816 65.4277 7.56187V7.56187ZM63.0026 5.2949C62.8289 5.28271 62.6573 5.3386 62.524 5.45075C62.3908 5.56289 62.3064 5.72249 62.2888 5.89574C62.2712 6.06899 62.3217 6.24229 62.4296 6.37896C62.5376 6.51563 62.6944 6.60494 62.867 6.62797C62.9565 6.64058 63.0476 6.63478 63.1347 6.61092C63.2218 6.58707 63.3031 6.54565 63.3736 6.48923C63.4442 6.4328 63.5024 6.36256 63.5448 6.28281C63.5872 6.20305 63.6129 6.11548 63.6202 6.02545C63.6284 5.93677 63.6189 5.84734 63.5922 5.76237C63.5655 5.67741 63.5222 5.59862 63.4647 5.53061C63.4072 5.46259 63.3367 5.40672 63.2574 5.36625C63.178 5.32578 63.0914 5.30152 63.0026 5.2949V5.2949ZM58.785 10.1C58.6961 10.0873 58.6056 10.0929 58.519 10.1163C58.4324 10.1397 58.3514 10.1805 58.2809 10.2361C58.2105 10.2917 58.1521 10.3611 58.1093 10.44C58.0665 10.5188 58.0401 10.6056 58.0318 10.695C58.0203 10.7837 58.0266 10.8738 58.0505 10.96C58.0743 11.0462 58.1151 11.1268 58.1706 11.197C58.226 11.2671 58.295 11.3255 58.3733 11.3686C58.4517 11.4118 58.5379 11.4388 58.6268 11.4481C58.8036 11.4671 58.9807 11.415 59.1191 11.3035C59.2575 11.1919 59.3459 11.0299 59.3649 10.8531C59.3839 10.6763 59.3319 10.4993 59.2203 10.3608C59.1087 10.2224 58.9467 10.134 58.7699 10.115L58.785 10.1ZM62.6938 9.09828L61.5716 9.91168C61.5338 9.93727 61.5015 9.97025 61.4767 10.0086C61.452 10.047 61.4352 10.09 61.4275 10.135C61.4197 10.1801 61.4212 10.2262 61.4317 10.2706C61.4422 10.3151 61.4617 10.3569 61.4888 10.3937C61.5418 10.4685 61.6223 10.5192 61.7127 10.5347C61.803 10.5502 61.8958 10.5293 61.9708 10.4765L63.093 9.66314C63.1619 9.60797 63.2072 9.52855 63.2196 9.44111C63.232 9.35366 63.2105 9.2648 63.1595 9.19268C63.1085 9.12056 63.0319 9.07062 62.9454 9.05308C62.8588 9.03553 62.7688 9.0517 62.6938 9.09828V9.09828ZM67.2052 5.85976L66.0754 6.66562C66.0187 6.70667 65.9757 6.76395 65.9522 6.8299C65.9287 6.89585 65.9257 6.96739 65.9436 7.03507C65.9616 7.10276 65.9996 7.16342 66.0527 7.20906C66.1058 7.2547 66.1715 7.28318 66.2411 7.29074C66.3219 7.30582 66.4053 7.28967 66.4746 7.24555L67.6043 6.43968C67.6733 6.38451 67.7186 6.30509 67.7309 6.21764C67.7433 6.1302 67.7218 6.04134 67.6708 5.96922C67.6199 5.89709 67.5433 5.84716 67.4567 5.82961C67.3702 5.81207 67.2802 5.82824 67.2052 5.87482V5.85976V5.85976ZM69.4571 4.23296L68.3349 5.04636C68.297 5.07195 68.2648 5.10493 68.24 5.14331C68.2152 5.18169 68.1984 5.22468 68.1907 5.26971C68.183 5.31473 68.1844 5.36085 68.195 5.40531C68.2055 5.44976 68.2249 5.49162 68.252 5.52837C68.3048 5.61122 68.3951 5.66545 68.493 5.67147C68.5777 5.67652 68.6618 5.65549 68.734 5.61122L69.8562 4.79782C69.8964 4.77291 69.931 4.74005 69.9579 4.70127C69.9849 4.66249 70.0037 4.61861 70.013 4.57232C70.0224 4.52603 70.0222 4.4783 70.0125 4.43209C70.0028 4.38587 69.9837 4.34213 69.9564 4.30355C69.9292 4.26498 69.8943 4.23239 69.854 4.20778C69.8137 4.18317 69.7688 4.16706 69.722 4.16045C69.6752 4.15384 69.6276 4.15686 69.582 4.16933C69.5365 4.1818 69.494 4.20346 69.4571 4.23296V4.23296ZM66.0152 9.65561C65.8841 9.6419 65.7518 9.66717 65.6349 9.72825C65.5181 9.78934 65.4218 9.88353 65.3583 9.99904C65.2947 10.1146 65.2666 10.2463 65.2775 10.3777C65.2884 10.5091 65.3378 10.6343 65.4195 10.7378C65.5012 10.8413 65.6117 10.9183 65.737 10.9593C65.8623 11.0003 65.9969 11.0035 66.124 10.9684C66.2511 10.9332 66.365 10.8614 66.4515 10.7619C66.538 10.6623 66.5932 10.5395 66.6102 10.4088C66.6228 10.3199 66.6172 10.2294 66.5938 10.1428C66.5704 10.0561 66.5297 9.97512 66.4741 9.9047C66.4184 9.83427 66.3491 9.77588 66.2702 9.73307C66.1913 9.69025 66.1046 9.6639 66.0152 9.65561V9.65561Z" fill="#FF9D6E"/>
<path id="Vector_7" d="M65.4277 7.56187C65.4029 7.52426 65.3706 7.49212 65.3329 7.46743C65.2951 7.44273 65.2528 7.42599 65.2083 7.41824C65.1639 7.41048 65.1184 7.41187 65.0745 7.42232C65.0307 7.43278 64.9894 7.45207 64.9533 7.47902L63.8235 8.29242C63.7857 8.31801 63.7534 8.35098 63.7286 8.38936C63.7039 8.42775 63.6871 8.47074 63.6794 8.51576C63.6716 8.56079 63.6731 8.60691 63.6836 8.65136C63.6941 8.69581 63.7136 8.73767 63.7407 8.77443C63.7676 8.81481 63.8032 8.84864 63.8449 8.8734C63.8866 8.89817 63.9334 8.91325 63.9817 8.91753C64.0677 8.92577 64.1536 8.90159 64.2227 8.84975L65.3524 8.04388C65.3897 8.01771 65.4213 7.98429 65.4454 7.94563C65.4694 7.90697 65.4854 7.86386 65.4925 7.81887C65.4995 7.77388 65.4974 7.72794 65.4863 7.68378C65.4751 7.63962 65.4552 7.59816 65.4277 7.56187V7.56187ZM63.0026 5.2949C62.8289 5.28271 62.6573 5.3386 62.524 5.45075C62.3908 5.56289 62.3064 5.72249 62.2888 5.89574C62.2712 6.06899 62.3217 6.24229 62.4296 6.37896C62.5376 6.51563 62.6944 6.60494 62.867 6.62797C62.9565 6.64058 63.0476 6.63478 63.1347 6.61092C63.2218 6.58707 63.3031 6.54565 63.3736 6.48923C63.4442 6.4328 63.5024 6.36256 63.5448 6.28281C63.5872 6.20305 63.6129 6.11548 63.6202 6.02545C63.6284 5.93677 63.6189 5.84734 63.5922 5.76237C63.5655 5.67741 63.5222 5.59862 63.4647 5.53061C63.4072 5.46259 63.3367 5.40672 63.2574 5.36625C63.178 5.32578 63.0914 5.30152 63.0026 5.2949V5.2949ZM58.785 10.1C58.6961 10.0873 58.6056 10.0929 58.519 10.1163C58.4324 10.1397 58.3514 10.1805 58.2809 10.2361C58.2105 10.2917 58.1521 10.3611 58.1093 10.44C58.0665 10.5188 58.0401 10.6056 58.0318 10.695C58.0203 10.7837 58.0266 10.8738 58.0505 10.96C58.0743 11.0462 58.1151 11.1268 58.1706 11.197C58.226 11.2671 58.295 11.3255 58.3733 11.3686C58.4517 11.4118 58.5379 11.4388 58.6268 11.4481C58.8036 11.4671 58.9807 11.415 59.1191 11.3035C59.2575 11.1919 59.3459 11.0299 59.3649 10.8531C59.3839 10.6763 59.3319 10.4993 59.2203 10.3608C59.1087 10.2224 58.9467 10.134 58.7699 10.115L58.785 10.1ZM62.6938 9.09828L61.5716 9.91168C61.5338 9.93727 61.5015 9.97025 61.4767 10.0086C61.452 10.047 61.4352 10.09 61.4275 10.135C61.4197 10.1801 61.4212 10.2262 61.4317 10.2706C61.4422 10.3151 61.4617 10.3569 61.4888 10.3937C61.5418 10.4685 61.6223 10.5192 61.7127 10.5347C61.803 10.5502 61.8958 10.5293 61.9708 10.4765L63.093 9.66314C63.1619 9.60797 63.2072 9.52855 63.2196 9.44111C63.232 9.35366 63.2105 9.2648 63.1595 9.19268C63.1085 9.12056 63.0319 9.07062 62.9454 9.05308C62.8588 9.03553 62.7688 9.0517 62.6938 9.09828V9.09828ZM67.2052 5.85976L66.0754 6.66562C66.0187 6.70667 65.9757 6.76395 65.9522 6.8299C65.9287 6.89585 65.9257 6.96739 65.9436 7.03507C65.9616 7.10276 65.9996 7.16342 66.0527 7.20906C66.1058 7.2547 66.1715 7.28318 66.2411 7.29074C66.3219 7.30582 66.4053 7.28967 66.4746 7.24555L67.6043 6.43968C67.6733 6.38451 67.7186 6.30509 67.7309 6.21764C67.7433 6.1302 67.7218 6.04134 67.6708 5.96922C67.6199 5.89709 67.5433 5.84716 67.4567 5.82961C67.3702 5.81207 67.2802 5.82824 67.2052 5.87482V5.85976V5.85976ZM66.0152 9.65561C65.8841 9.6419 65.7518 9.66717 65.6349 9.72825C65.5181 9.78934 65.4218 9.88353 65.3583 9.99904C65.2947 10.1146 65.2666 10.2463 65.2775 10.3777C65.2884 10.5091 65.3378 10.6343 65.4195 10.7378C65.5012 10.8413 65.6117 10.9183 65.737 10.9593C65.8623 11.0003 65.9969 11.0035 66.124 10.9684C66.2511 10.9332 66.365 10.8614 66.4515 10.7619C66.538 10.6623 66.5932 10.5395 66.6102 10.4088C66.6228 10.3199 66.6172 10.2294 66.5938 10.1428C66.5704 10.0561 66.5297 9.97512 66.4741 9.9047C66.4184 9.83427 66.3491 9.77588 66.2702 9.73307C66.1913 9.69025 66.1046 9.6639 66.0152 9.65561V9.65561ZM69.4571 4.23296L68.3349 5.04636C68.297 5.07195 68.2648 5.10493 68.24 5.14331C68.2152 5.18169 68.1984 5.22468 68.1907 5.26971C68.183 5.31473 68.1844 5.36085 68.195 5.40531C68.2055 5.44976 68.2249 5.49162 68.252 5.52837C68.3048 5.61122 68.3951 5.66545 68.493 5.67147C68.5777 5.67652 68.6618 5.65549 68.734 5.61122L69.8562 4.79782C69.8964 4.77291 69.931 4.74005 69.9579 4.70127C69.9849 4.66249 70.0037 4.61861 70.013 4.57232C70.0224 4.52603 70.0222 4.4783 70.0125 4.43209C70.0028 4.38587 69.9837 4.34213 69.9564 4.30355C69.9292 4.26498 69.8943 4.23239 69.854 4.20778C69.8137 4.18317 69.7688 4.16706 69.722 4.16045C69.6752 4.15384 69.6276 4.15686 69.582 4.16933C69.5365 4.1818 69.494 4.20346 69.4571 4.23296V4.23296Z" fill="white"/>
<path id="Vector_8" d="M71.7994 2.62895C71.4756 2.16953 69.54 3.12603 68.7869 3.61557L65.4956 5.99551L57.8813 0.633118L56.9549 1.29589L62.9123 7.85578L60.0428 9.94199C59.4328 10.3713 56.8947 9.03069 56.8947 9.03069L56.5031 9.31688L58.0093 11.4106L57.2562 11.968L57.5198 12.3445H58.7625L60.2236 14.3328L60.7659 13.9412L60.2236 12.3747L64.1023 9.55789L67.9885 16.6375L68.9149 15.9672L66.6479 7.788L69.9618 5.37793L70.0371 5.31015C70.7676 4.74529 72.1233 3.06578 71.7994 2.62895V2.62895ZM58.642 11.4332C58.5531 11.4257 58.4667 11.4006 58.3877 11.3593C58.3087 11.318 58.2387 11.2613 58.1819 11.1926C58.125 11.1239 58.0825 11.0446 58.0567 10.9593C58.0309 10.8739 58.0223 10.7843 58.0316 10.6956C58.0409 10.6069 58.0677 10.521 58.1106 10.4428C58.1535 10.3647 58.2116 10.2959 58.2814 10.2404C58.3512 10.185 58.4314 10.144 58.5172 10.1199C58.6031 10.0958 58.6928 10.0891 58.7813 10.1002C58.9554 10.1219 59.114 10.211 59.2232 10.3484C59.3323 10.4858 59.3832 10.6605 59.3649 10.835C59.3467 11.0095 59.2608 11.1699 59.1256 11.2817C58.9904 11.3936 58.8168 11.448 58.642 11.4332V11.4332ZM63.0931 9.66333L61.9709 10.4767C61.8959 10.5295 61.8031 10.5504 61.7128 10.5349C61.6224 10.5194 61.5419 10.4687 61.4889 10.3939C61.4617 10.3571 61.4423 10.3153 61.4318 10.2708C61.4213 10.2264 61.4198 10.1802 61.4275 10.1352C61.4353 10.0902 61.452 10.0472 61.4768 10.0088C61.5016 9.97043 61.5339 9.93746 61.5717 9.91187L62.6939 9.09847C62.7689 9.05189 62.8589 9.03572 62.9455 9.05326C63.032 9.07081 63.1086 9.12074 63.1596 9.19287C63.2105 9.26499 63.232 9.35385 63.2197 9.4413C63.2073 9.52874 63.162 9.60816 63.0931 9.66333V9.66333ZM62.8671 6.65075C62.6945 6.62772 62.5376 6.53842 62.4297 6.40175C62.3218 6.26508 62.2713 6.09177 62.2889 5.91852C62.3065 5.74527 62.3909 5.58568 62.5241 5.47353C62.6573 5.36139 62.829 5.30549 63.0027 5.31768C63.0923 5.32605 63.1793 5.35237 63.2586 5.3951C63.3378 5.43782 63.4076 5.49606 63.4638 5.56635C63.5201 5.63664 63.5616 5.71753 63.5859 5.8042C63.6101 5.89088 63.6167 5.98155 63.6052 6.07083C63.5791 6.24159 63.4873 6.39541 63.3495 6.49951C63.2116 6.60361 63.0385 6.64977 62.8671 6.62816V6.65075ZM63.9818 8.91019C63.9335 8.90591 63.8867 8.89083 63.845 8.86606C63.8033 8.84129 63.7677 8.80747 63.7408 8.76709C63.7137 8.73033 63.6942 8.68847 63.6837 8.64402C63.6732 8.59957 63.6717 8.55344 63.6795 8.50842C63.6872 8.4634 63.7039 8.4204 63.7287 8.38202C63.7535 8.34364 63.7858 8.31066 63.8236 8.28507L64.9533 7.47168C64.9895 7.44473 65.0308 7.42543 65.0746 7.41498C65.1185 7.40453 65.164 7.40314 65.2084 7.41089C65.2529 7.41865 65.2952 7.43539 65.3329 7.46009C65.3707 7.48478 65.403 7.51692 65.4278 7.55452C65.4553 7.59082 65.4752 7.63228 65.4864 7.67644C65.4975 7.72059 65.4996 7.76654 65.4926 7.81153C65.4855 7.85652 65.4695 7.89963 65.4454 7.93829C65.4214 7.97695 65.3898 8.01036 65.3525 8.03654L64.2228 8.8424C64.1568 8.89514 64.0737 8.92193 63.9893 8.91772L63.9818 8.91019ZM65.8797 11.0115C65.7492 10.9946 65.6266 10.9398 65.5271 10.8537C65.4275 10.7677 65.3555 10.6542 65.32 10.5275C65.2845 10.4009 65.2871 10.2665 65.3274 10.1413C65.3677 10.016 65.444 9.90544 65.5467 9.82325C65.6495 9.74106 65.7741 9.69093 65.9051 9.67909C66.0362 9.66725 66.1678 9.69424 66.2836 9.75668C66.3994 9.81913 66.4943 9.91427 66.5564 10.0303C66.6185 10.1462 66.6451 10.2779 66.6329 10.4089C66.6255 10.499 66.5999 10.5865 66.5575 10.6663C66.5151 10.7461 66.4568 10.8163 66.3863 10.8727C66.3158 10.9291 66.2345 10.9706 66.1473 10.9944C66.0602 11.0183 65.9692 11.0241 65.8797 11.0115ZM67.6044 6.42481L66.4747 7.24573C66.3997 7.29232 66.3097 7.30849 66.2231 7.29094C66.1366 7.2734 66.06 7.22346 66.009 7.15134C65.9581 7.07922 65.9366 6.99035 65.9489 6.90291C65.9613 6.81547 66.0066 6.73604 66.0755 6.68088L67.2052 5.87501C67.2803 5.82843 67.3703 5.81226 67.4568 5.8298C67.5434 5.84735 67.62 5.89728 67.6709 5.9694C67.7219 6.04153 67.7434 6.13039 67.731 6.21783C67.7187 6.30528 67.6734 6.3847 67.6044 6.43987V6.42481V6.42481ZM69.8639 4.79801L68.7341 5.61141C68.6619 5.65568 68.5777 5.67671 68.4931 5.67166C68.4445 5.66851 68.3973 5.6539 68.3555 5.62903C68.3136 5.60416 68.2782 5.56973 68.2521 5.52856C68.225 5.49181 68.2056 5.44994 68.195 5.40549C68.1845 5.36104 68.1831 5.31492 68.1908 5.2699C68.1985 5.22487 68.2153 5.18188 68.2401 5.1435C68.2648 5.10512 68.2971 5.07214 68.335 5.04655L69.4572 4.23315C69.493 4.19861 69.5358 4.17218 69.5827 4.15567C69.6297 4.13916 69.6796 4.13295 69.7291 4.13746C69.7787 4.14198 69.8267 4.15712 69.8699 4.18184C69.913 4.20657 69.9504 4.2403 69.9794 4.28075C70.0083 4.3212 70.0282 4.36742 70.0378 4.41625C70.0473 4.46509 70.0461 4.5154 70.0345 4.56377C70.0228 4.61213 70.0008 4.65742 69.9701 4.69654C69.9394 4.73566 69.9006 4.7677 69.8563 4.79048L69.8639 4.79801Z" fill="#FFBC00"/>
<path id="Vector_9" d="M7.1719 21.1185H0.724976V44.1045H7.1719C12.5644 44.1045 14.9895 40.2032 14.9895 37.4316V27.9119C14.9895 23.6566 12.0673 21.1185 7.1719 21.1185V21.1185ZM3.30826 23.4382H7.1719C8.74597 23.4382 12.4439 23.8826 12.4439 27.9571V37.3714C12.4439 38.8174 11.1636 41.7999 7.20956 41.7999H3.30826V23.4382ZM28.8474 20.629C25.285 20.629 21.6775 23.0616 21.6775 27.7236V37.2358C21.6775 42.297 25.2775 44.5639 28.8474 44.5639C32.4173 44.5639 36.0174 42.3045 36.0174 37.2358V27.7236C36.0174 23.0616 32.4098 20.629 28.8474 20.629V20.629ZM24.2608 27.5278C24.2608 26.3113 24.744 25.1447 25.6042 24.2845C26.4643 23.4244 27.631 22.9411 28.8474 22.9411C30.0639 22.9411 31.2305 23.4244 32.0907 24.2845C32.9508 25.1447 33.4341 26.3113 33.4341 27.5278V37.4316C33.4341 40.3087 31.5512 42.3196 28.8474 42.3196C26.1436 42.3196 24.2608 40.3087 24.2608 37.4316V27.5278V27.5278ZM55.0644 30.8642H45.2811V21.1185H42.6978V44.1045H45.2811V33.1839H55.0644V44.1045H57.6477V21.1185H55.0644V30.8642ZM71.5206 20.629C67.9507 20.629 64.3432 23.0616 64.3432 27.7236V37.2358C64.3432 42.297 67.9507 44.5639 71.5206 44.5639C75.0905 44.5639 78.6906 42.3045 78.6906 37.2358V27.7236C78.683 23.0616 75.0755 20.629 71.5206 20.629V20.629ZM66.9264 27.5278C66.9014 26.9103 67.0014 26.2942 67.2204 25.7163C67.4395 25.1385 67.773 24.6108 68.201 24.1651C68.6291 23.7193 69.1427 23.3647 69.7113 23.1224C70.2798 22.8802 70.8914 22.7553 71.5093 22.7553C72.1273 22.7553 72.7389 22.8802 73.3074 23.1224C73.8759 23.3647 74.3896 23.7193 74.8176 24.1651C75.2457 24.6108 75.5792 25.1385 75.7982 25.7163C76.0173 26.2942 76.1173 26.9103 76.0922 27.5278V37.4316C76.0922 40.3087 74.2094 42.3196 71.5131 42.3196C68.8168 42.3196 66.9264 40.3087 66.9264 37.4316V27.5278ZM92.8271 21.1185H85.386V44.1045H87.9769V34.4341H93.0154C96.1033 34.4341 99.4247 32.2877 99.4247 27.5654C99.4247 23.1143 96.1108 21.1185 92.8271 21.1185ZM93.0154 32.1144H87.9769V23.4382H92.6087C94.1978 23.4382 96.8941 24.3269 96.8941 27.6483C96.879 29.7044 95.8623 32.0994 93.0154 32.0994V32.1144V32.1144Z" fill="#00005E"/>
<path id="Vector_10" d="M30.8657 2.24457L43.5487 7.60696L39.8357 16.3209L27.1527 10.9585L30.8657 2.24457Z" fill="#00D2FF"/>
<path id="Vector_11" d="M31.2726 8.75203C31.1958 8.72097 31.1298 8.66798 31.0829 8.59967C31.0361 8.53136 31.0103 8.45076 31.009 8.36792L30.9261 6.14615C30.9234 6.0857 30.9326 6.0253 30.9533 5.96843C30.974 5.91156 31.0057 5.85934 31.0466 5.81476C31.1265 5.72442 31.236 5.66564 31.3554 5.64907L34.8651 5.40806C34.9244 5.40502 34.9838 5.41372 35.0398 5.43366C35.0958 5.4536 35.1473 5.48439 35.1914 5.52427C35.2355 5.56415 35.2712 5.61233 35.2967 5.66605C35.3221 5.71978 35.3367 5.77799 35.3396 5.83736L35.4224 8.04407C35.4235 8.16681 35.3777 8.28532 35.2944 8.37546C35.2576 8.42096 35.2119 8.45846 35.1601 8.48566C35.1083 8.51286 35.0515 8.52918 34.9931 8.53362L31.4759 8.75956C31.4102 8.78313 31.3383 8.78313 31.2726 8.75956V8.75203ZM31.845 6.55284L31.8902 7.84072L34.5186 7.65997L34.4734 6.37209L31.845 6.55284ZM37.1471 13.3462C36.902 13.2363 36.681 13.0791 36.4968 12.8836C36.3126 12.6881 36.1688 12.4582 36.0737 12.207C35.9785 11.9558 35.9339 11.6883 35.9423 11.4198C35.9507 11.1513 36.0121 10.8871 36.1228 10.6424C36.3286 10.1405 36.7237 9.73974 37.2226 9.52691C37.7216 9.31407 38.2843 9.30627 38.789 9.50517C39.0345 9.61353 39.256 9.76956 39.4407 9.96423C39.6253 10.1589 39.7695 10.3883 39.8648 10.6392C39.9601 10.89 40.0046 11.1573 39.9958 11.4255C39.9869 11.6937 39.9249 11.9574 39.8132 12.2014C39.6104 12.7061 39.2165 13.1103 38.7172 13.3261C38.218 13.5418 37.6537 13.5518 37.1471 13.3537V13.3462ZM38.4199 10.3412C38.2121 10.245 37.9803 10.2129 37.7542 10.2491C37.5281 10.2852 37.3178 10.3879 37.1503 10.544C36.9828 10.7002 36.8656 10.9027 36.8137 11.1257C36.7618 11.3488 36.7775 11.5822 36.8589 11.7963C36.9402 12.0103 37.0835 12.1953 37.2704 12.3276C37.4573 12.4599 37.6794 12.5334 37.9084 12.5389C38.1373 12.5444 38.3627 12.4816 38.5558 12.3584C38.7488 12.2353 38.9008 12.0574 38.9923 11.8475C39.0538 11.7113 39.0879 11.5644 39.0926 11.4151C39.0973 11.2658 39.0725 11.117 39.0197 10.9773C38.9669 10.8375 38.8871 10.7096 38.7848 10.6007C38.6826 10.4918 38.5599 10.4041 38.4237 10.3427L38.4199 10.3412" fill="white"/>
<path id="Vector_12" d="M34.8424 3.93173L35.6483 2.0338L40.3705 4.03717L39.5646 5.9351L40.3856 6.28907L41.3948 3.95432C41.4209 3.90072 41.4357 3.84234 41.4384 3.78278C41.4411 3.72321 41.4316 3.66373 41.4104 3.60799C41.3893 3.55225 41.3569 3.50144 41.3154 3.45867C41.2738 3.41591 41.2239 3.3821 41.1688 3.35934L35.6031 1.00953C35.4911 0.96453 35.366 0.965375 35.2547 1.01188C35.1433 1.05838 35.0548 1.14681 35.0081 1.25806L34.0215 3.58528L34.8424 3.93173V3.93173Z" fill="#00D2FF"/>
</g>
<defs>
<clipPath id="clip0_205_343">
<rect width="98.775" height="44.0967" fill="white" transform="translate(0.724854 0.467346)"/>
</clipPath>
</defs>
</svg>
