<svg width="102" height="35" viewBox="0 0 102 35" fill="none" xmlns="http://www.w3.org/2000/svg">
<g id="jitjatjo" clip-path="url(#clip0_205_207)">
<path id="Jitjatjo_Logo_horizontally 1 (Traced)" fill-rule="evenodd" clip-rule="evenodd" d="M27.1312 4.13394C27.0901 4.13936 26.9955 4.16105 26.9209 4.18212C26.8462 4.20319 26.723 4.25245 26.6469 4.29159C26.5709 4.33074 26.453 4.40559 26.385 4.45794C26.317 4.51028 26.1988 4.62762 26.1223 4.71869C26.0458 4.80976 25.9487 4.95526 25.9064 5.04202C25.864 5.12881 25.8105 5.26144 25.7873 5.33677C25.7642 5.4121 25.7392 5.59139 25.7317 5.73521C25.7222 5.9206 25.7298 6.05764 25.758 6.20621C25.7835 6.34038 25.8357 6.49264 25.9033 6.62955C25.9877 6.80033 26.0517 6.88597 26.2214 7.05503C26.3383 7.17145 26.4998 7.30532 26.5802 7.35254C26.6607 7.39975 26.7846 7.458 26.8557 7.48198C26.9268 7.50599 27.0851 7.53816 27.2075 7.55348C27.33 7.56884 27.5084 7.5737 27.6044 7.56433C27.7002 7.55497 27.8606 7.52646 27.9608 7.50101C28.061 7.47553 28.2123 7.41808 28.297 7.37336C28.3912 7.3236 28.5342 7.20972 28.6652 7.08013C28.7989 6.94787 28.9128 6.80745 28.9682 6.7064C29.0171 6.61737 29.0832 6.46049 29.1151 6.35776C29.1639 6.20103 29.1732 6.11693 29.1732 5.83482C29.1732 5.55163 29.164 5.4692 29.1147 5.31187C29.0826 5.20914 29.0163 5.05226 28.9674 4.96323C28.913 4.86422 28.7999 4.7238 28.676 4.60165C28.5433 4.47076 28.4129 4.37003 28.2976 4.30947C28.2009 4.25865 28.0277 4.19452 27.9128 4.16698C27.7667 4.13194 27.6291 4.11797 27.455 4.12046C27.318 4.12241 27.1723 4.12848 27.1312 4.13394ZM49.0204 4.15627C48.9245 4.17756 48.778 4.22744 48.6947 4.26706C48.6115 4.30671 48.4714 4.39481 48.3834 4.46287C48.2955 4.5309 48.18 4.63883 48.1268 4.70268C48.0736 4.76653 47.9924 4.8814 47.9463 4.95798C47.9002 5.03455 47.8402 5.15685 47.8129 5.22974C47.7856 5.30265 47.7526 5.4567 47.7395 5.57207C47.7255 5.69514 47.7241 5.88828 47.7362 6.03941C47.7511 6.22484 47.776 6.34561 47.8254 6.47057C47.8631 6.56602 47.9423 6.7176 48.0014 6.80738C48.0605 6.89715 48.1698 7.02824 48.2442 7.09866C48.3187 7.16908 48.4501 7.27228 48.5363 7.32798C48.6225 7.38372 48.7629 7.45088 48.8483 7.47725C48.9337 7.50362 49.097 7.53811 49.2112 7.55392C49.3268 7.56991 49.496 7.57531 49.5931 7.56613C49.689 7.55706 49.8403 7.53208 49.9293 7.51064C50.0183 7.48918 50.1651 7.43342 50.2555 7.38673C50.3459 7.34004 50.4881 7.24349 50.5716 7.1722C50.6551 7.1009 50.7674 6.98655 50.8212 6.91807C50.875 6.84959 50.9548 6.72233 50.9986 6.63528C51.0424 6.54819 51.0999 6.39233 51.1263 6.28888C51.1591 6.16064 51.1744 6.01613 51.1744 5.83482C51.1744 5.65163 51.1592 5.50909 51.1253 5.37684C51.0983 5.27125 51.0344 5.10416 50.9834 5.00557C50.9182 4.87974 50.827 4.76262 50.6776 4.61288C50.5605 4.49554 50.4087 4.36857 50.3402 4.33071C50.2717 4.29289 50.1317 4.23317 50.0289 4.19803C49.8743 4.14517 49.7864 4.13271 49.5184 4.12584C49.2898 4.11996 49.1435 4.1289 49.0204 4.15627ZM82.4518 4.15548C82.3628 4.1747 82.2173 4.22705 82.1286 4.27177C82.0399 4.31652 81.9047 4.40355 81.8283 4.46519C81.7519 4.52682 81.6495 4.62207 81.6007 4.67686C81.5519 4.73164 81.4706 4.84151 81.42 4.92097C81.3694 5.00046 81.2988 5.14054 81.2631 5.23225C81.2068 5.37694 81.1968 5.44666 81.1871 5.75866C81.1799 5.99113 81.1868 6.16726 81.2065 6.25671C81.2232 6.33284 81.2731 6.47356 81.3173 6.56943C81.3614 6.66531 81.4558 6.81659 81.527 6.90562C81.5982 6.99464 81.7202 7.12065 81.7982 7.18564C81.8762 7.25061 82.0146 7.34293 82.1056 7.39079C82.1967 7.43865 82.3427 7.49625 82.43 7.51881C82.5304 7.54473 82.6986 7.56072 82.8876 7.56224C83.1065 7.56403 83.233 7.55228 83.3607 7.51829C83.4566 7.49276 83.5967 7.44094 83.6722 7.40312C83.7476 7.36529 83.8779 7.28276 83.9618 7.21971C84.0457 7.15666 84.1721 7.03496 84.2428 6.94929C84.3135 6.86366 84.41 6.71511 84.4572 6.61924C84.5044 6.52337 84.5622 6.37208 84.5856 6.28306C84.6136 6.17665 84.628 6.02736 84.6276 5.84727C84.6273 5.67855 84.6113 5.50939 84.5861 5.40687C84.5635 5.3153 84.5103 5.16691 84.4679 5.07711C84.4255 4.98729 84.3411 4.84781 84.2805 4.76715C84.2199 4.68649 84.1013 4.564 84.0169 4.49492C83.9326 4.42584 83.8094 4.33985 83.7433 4.30387C83.6771 4.26786 83.5149 4.21098 83.3828 4.17749C83.1981 4.1306 83.0817 4.117 82.8782 4.11852C82.7327 4.11962 82.5408 4.13625 82.4518 4.15548ZM39.985 7.37047C39.9759 7.37958 39.9684 8.14159 39.9684 9.06383V10.7406H38.91H37.8517V11.9338C37.8517 12.5901 37.8578 13.1431 37.8653 13.1627C37.8769 13.1929 38.034 13.1964 38.9237 13.1861L39.9684 13.1741V19.042V24.91H41.338H42.7075L42.7138 19.0517L42.7201 13.1935L43.7847 13.187L44.8492 13.1805V12.0761C44.8492 11.4686 44.8421 10.9197 44.8334 10.8561L44.8176 10.7406H43.7626H42.7076V9.04722V7.35386H41.3546C40.6104 7.35386 39.9941 7.36133 39.985 7.37047ZM73.462 9.04699V10.7406H72.3912H71.3204V11.9608V13.181L72.1858 13.1812C72.6618 13.1812 73.1436 13.1885 73.2566 13.1973L73.462 13.2133V19.0612V24.9091L74.7881 24.9158C75.5174 24.9195 76.1226 24.919 76.1328 24.9148C76.1431 24.9105 76.1515 22.2687 76.1515 19.044V13.181H77.2098H78.2682V11.9608V10.7406H77.21H76.1518L76.1454 9.05344L76.139 7.36631L74.8005 7.35986L73.462 7.35343V9.04699ZM60.3883 10.317C60.3267 10.327 60.1194 10.3599 59.9276 10.3902C59.7359 10.4205 59.4613 10.4729 59.3175 10.5067C59.1737 10.5404 58.944 10.6024 58.807 10.6445C58.67 10.6865 58.4571 10.7599 58.3339 10.8075C58.2106 10.8552 57.9641 10.9642 57.786 11.0498C57.608 11.1354 57.3484 11.2734 57.2092 11.3563C57.07 11.4393 56.8442 11.5866 56.7073 11.6837C56.5704 11.7807 56.3537 11.9485 56.2257 12.0565C56.0977 12.1645 55.8359 12.4141 55.6437 12.6111C55.4516 12.8081 55.1935 13.1038 55.0701 13.2682C54.9467 13.4325 54.7798 13.6735 54.6993 13.8036C54.6187 13.9337 54.488 14.1634 54.4088 14.3141C54.3296 14.4647 54.2085 14.7193 54.1397 14.8797C54.0709 15.0402 53.9745 15.2868 53.9255 15.4276C53.8764 15.5684 53.8082 15.8126 53.7737 15.9701C53.7393 16.1276 53.6812 16.3909 53.6447 16.5553C53.5794 16.8488 53.5783 16.8702 53.5779 17.763C53.5776 18.5391 53.5843 18.7102 53.6237 18.9334C53.6492 19.0773 53.6972 19.3126 53.7305 19.4564C53.7638 19.6002 53.8365 19.8636 53.892 20.0416C53.9476 20.2197 54.0431 20.4879 54.1042 20.6377C54.1654 20.7875 54.2744 21.0284 54.3466 21.1731C54.4187 21.3178 54.5489 21.5538 54.6358 21.6976C54.7227 21.8414 54.8501 22.0375 54.919 22.1334C54.9878 22.2293 55.1397 22.4254 55.2564 22.5692C55.3732 22.713 55.5923 22.9542 55.7433 23.1053C55.8944 23.2563 56.1356 23.4758 56.2794 23.593C56.4232 23.7102 56.6305 23.8684 56.7401 23.9444C56.8497 24.0205 57.0443 24.1461 57.1726 24.2237C57.3009 24.3012 57.5146 24.4192 57.6476 24.4859C57.7806 24.5527 58.008 24.6579 58.1529 24.7199C58.2979 24.7818 58.5772 24.8832 58.7736 24.9453C58.97 25.0074 59.2262 25.0802 59.3428 25.107C59.4595 25.1339 59.7284 25.1814 59.9405 25.2127C60.2624 25.2602 60.4268 25.2694 60.9362 25.2687C61.4294 25.268 61.6107 25.2577 61.8828 25.2155C62.0679 25.1867 62.3536 25.1294 62.5178 25.0882C62.682 25.0469 62.9339 24.9711 63.0778 24.9197C63.2216 24.8683 63.5324 24.7281 63.7685 24.6081C64.0047 24.4881 64.2848 24.3317 64.3911 24.2604C64.4974 24.1891 64.6516 24.0794 64.7338 24.0165C64.8159 23.9537 64.9811 23.8146 65.1009 23.7075C65.2207 23.6003 65.412 23.4041 65.5261 23.2713C65.6401 23.1385 65.7747 22.9751 65.825 22.908L65.9166 22.7861V23.8481V24.91H67.2863H68.656L68.6497 17.8315L68.6434 10.753L67.28 10.7466L65.9166 10.7402V11.7246V12.7091L65.8459 12.6726C65.8069 12.6524 65.7129 12.559 65.637 12.465C65.561 12.371 65.3996 12.195 65.2782 12.0739C65.1568 11.9527 64.9566 11.7728 64.8334 11.674C64.7101 11.5752 64.5028 11.4229 64.3727 11.3356C64.2426 11.2482 63.9792 11.0975 63.7875 11.0007C63.5957 10.9038 63.3324 10.7843 63.2023 10.7351C63.0722 10.6859 62.8929 10.6229 62.8038 10.595C62.7148 10.5672 62.5579 10.5218 62.4552 10.494C62.3525 10.4663 62.1396 10.4209 61.9821 10.3933C61.8246 10.3657 61.5724 10.3317 61.4218 10.3177C61.2711 10.3038 61.0022 10.2939 60.8241 10.2957C60.646 10.2975 60.4499 10.3071 60.3883 10.317ZM93.8944 10.3184C93.7848 10.3307 93.5508 10.3637 93.3744 10.3917C93.1979 10.4198 92.9177 10.4769 92.7518 10.5187C92.5858 10.5606 92.31 10.6402 92.1388 10.6958C91.9676 10.7513 91.6986 10.8519 91.5411 10.9193C91.3836 10.9867 91.1388 11.1032 90.9971 11.1782C90.8554 11.2531 90.5976 11.4074 90.4243 11.5211C90.251 11.6348 89.9916 11.8214 89.8478 11.936C89.704 12.0505 89.4424 12.285 89.2665 12.4571C89.0907 12.6293 88.8553 12.8805 88.7436 13.0153C88.6318 13.1502 88.4474 13.3967 88.3337 13.5632C88.22 13.7296 88.0596 13.9866 87.9773 14.1343C87.895 14.2819 87.7827 14.5004 87.7276 14.6199C87.6726 14.7393 87.5887 14.9362 87.5412 15.0573C87.4937 15.1785 87.4214 15.3802 87.3806 15.5056C87.3397 15.6309 87.2788 15.841 87.2453 15.9723C87.2118 16.1036 87.1564 16.3709 87.1221 16.5663C87.0878 16.7616 87.0466 17.1209 87.0304 17.3647C87.008 17.7025 87.0079 17.9084 87.0298 18.2302C87.0456 18.4624 87.0816 18.785 87.1098 18.947C87.1379 19.1091 87.1986 19.3992 87.2448 19.5918C87.2909 19.7844 87.3698 20.0653 87.4201 20.2159C87.4704 20.3666 87.5568 20.5963 87.6119 20.7264C87.6671 20.8565 87.7601 21.0582 87.8186 21.1747C87.8771 21.2911 87.9771 21.4744 88.0408 21.582C88.1046 21.6896 88.2228 21.876 88.3036 21.9961C88.3844 22.1162 88.5423 22.3307 88.6544 22.4728C88.7666 22.6148 89.0222 22.8944 89.2224 23.0941C89.4225 23.2938 89.704 23.5508 89.8478 23.6651C89.9916 23.7795 90.2543 23.9681 90.4315 24.0844C90.6087 24.2006 90.9001 24.3715 91.079 24.4642C91.2578 24.5569 91.5274 24.6828 91.6781 24.7441C91.8288 24.8054 92.0977 24.9008 92.2758 24.9562C92.4538 25.0116 92.734 25.0845 92.8983 25.1183C93.0627 25.1521 93.3484 25.2001 93.5333 25.2251C93.786 25.2591 94.0304 25.2704 94.517 25.2703C94.9948 25.2703 95.2558 25.2585 95.5131 25.2254C95.7048 25.2007 95.9906 25.153 96.1481 25.1195C96.3056 25.0859 96.5959 25.0074 96.7932 24.945C96.9905 24.8825 97.2819 24.7757 97.4407 24.7076C97.5995 24.6395 97.8574 24.5166 98.0138 24.4345C98.1702 24.3523 98.4392 24.1918 98.6114 24.0776C98.7837 23.9635 99.04 23.7787 99.1809 23.6671C99.3219 23.5554 99.5675 23.3383 99.7267 23.1847C99.8859 23.0311 100.13 22.7688 100.269 22.6019C100.408 22.435 100.612 22.1661 100.722 22.0043C100.832 21.8424 100.985 21.5979 101.062 21.4609C101.139 21.3238 101.263 21.0758 101.337 20.9097C101.412 20.7437 101.523 20.4636 101.584 20.2873C101.645 20.1111 101.724 19.8604 101.759 19.7303C101.793 19.6002 101.845 19.3705 101.872 19.2198C101.9 19.0692 101.935 18.8394 101.95 18.7093C101.965 18.5792 101.984 18.2596 101.992 17.9992C102.002 17.7037 101.996 17.3853 101.977 17.1525C101.96 16.9473 101.919 16.6281 101.885 16.4432C101.851 16.2583 101.796 16.005 101.762 15.8803C101.728 15.7556 101.663 15.5427 101.617 15.4072C101.571 15.2716 101.492 15.0599 101.441 14.9366C101.39 14.8134 101.27 14.5588 101.175 14.3709C101.079 14.1831 100.891 13.8637 100.756 13.6612C100.621 13.4587 100.434 13.1978 100.341 13.0814C100.247 12.965 100.053 12.7476 99.9089 12.5983C99.7648 12.449 99.528 12.2249 99.3827 12.1002C99.2374 11.9756 99.0301 11.8101 98.922 11.7325C98.8139 11.6548 98.6078 11.5169 98.464 11.4259C98.3202 11.3349 98.0456 11.1834 97.8539 11.0892C97.6621 10.995 97.3876 10.8736 97.2438 10.8195C97.1 10.7654 96.8702 10.6867 96.7333 10.6447C96.5963 10.6026 96.3666 10.5397 96.2228 10.5048C96.079 10.4699 95.7988 10.412 95.6002 10.3762C95.293 10.3207 95.1537 10.3099 94.6664 10.3036C94.3514 10.2995 94.004 10.3062 93.8944 10.3184ZM26.0911 18.0183L26.0835 25.296L26.0306 25.5086C26.0016 25.6255 25.9316 25.821 25.8753 25.943C25.8189 26.065 25.7125 26.2449 25.6389 26.3428C25.5652 26.4406 25.445 26.5716 25.3718 26.6338C25.2986 26.696 25.1689 26.7917 25.0836 26.8465C24.9984 26.9014 24.8576 26.9746 24.7708 27.0094C24.684 27.0441 24.5273 27.0903 24.4226 27.1119C24.3179 27.1335 24.1263 27.1512 23.9968 27.1512C23.8673 27.1512 23.6746 27.1346 23.5686 27.1143C23.4626 27.094 23.3551 27.0709 23.3298 27.0629C23.2855 27.0488 23.2838 27.0983 23.2838 28.4577C23.2838 29.7766 23.2866 29.8683 23.3274 29.885C23.3513 29.8949 23.6623 29.9026 24.0184 29.9021C24.6264 29.9014 24.6851 29.8972 24.9817 29.8338C25.1554 29.7967 25.4222 29.7219 25.5746 29.6675C25.7269 29.6132 25.977 29.5078 26.1303 29.4334C26.2836 29.359 26.5155 29.2281 26.6456 29.1425C26.7757 29.0569 26.9606 28.9222 27.0565 28.8431C27.1524 28.7641 27.3326 28.5948 27.4569 28.467C27.5812 28.3391 27.7283 28.1784 27.7836 28.11C27.839 28.0415 27.9588 27.8716 28.0498 27.7324C28.1408 27.5933 28.2758 27.3523 28.3498 27.197C28.4237 27.0417 28.5182 26.8138 28.5596 26.6905C28.6011 26.5673 28.6578 26.3768 28.6857 26.2672C28.7135 26.1576 28.7556 25.9727 28.7793 25.8563C28.8192 25.6592 28.8227 25.131 28.83 18.1926L28.8378 10.7406H27.4683H26.0987L26.0911 18.0183ZM32.4479 17.8253V24.91H33.7926H35.1373V17.8253V10.7406H33.7926H32.4479V17.8253ZM48.0865 18.0211V25.3021L48.0256 25.5423C47.9921 25.6744 47.9186 25.8748 47.8622 25.9875C47.8059 26.1002 47.6961 26.2758 47.6182 26.3776C47.5403 26.4794 47.3925 26.6297 47.2898 26.7115C47.187 26.7934 47.0245 26.8976 46.9286 26.9431C46.8327 26.9887 46.6646 27.0496 46.5551 27.0785C46.4306 27.1113 46.2437 27.1358 46.057 27.1437C45.8268 27.1534 45.721 27.1468 45.5963 27.1148C45.5073 27.092 45.4127 27.0713 45.3861 27.0687C45.3499 27.0652 45.3326 27.0859 45.3171 27.1512C45.3057 27.1992 45.2951 27.7819 45.2936 28.4461C45.292 29.1104 45.2987 29.6931 45.3084 29.7411C45.3182 29.789 45.3316 29.8478 45.3384 29.8718C45.3496 29.9116 45.398 29.9154 45.8985 29.9154C46.2714 29.9154 46.5353 29.9025 46.7248 29.8751C46.878 29.853 47.1087 29.8084 47.2376 29.776C47.3665 29.7435 47.6206 29.6568 47.8023 29.5833C47.9841 29.5097 48.2372 29.3915 48.3649 29.3205C48.4926 29.2496 48.6977 29.1195 48.8207 29.0314C48.9438 28.9433 49.1501 28.7732 49.2791 28.6534C49.4081 28.5336 49.5957 28.337 49.696 28.2165C49.7962 28.0961 49.9335 27.9157 50.001 27.8156C50.0685 27.7156 50.1762 27.5392 50.2404 27.4236C50.3045 27.308 50.4053 27.1008 50.4644 26.9631C50.5234 26.8254 50.6058 26.5987 50.6475 26.4594C50.6891 26.3201 50.7491 26.063 50.7807 25.888L50.8383 25.5699V18.1615V10.753L49.4624 10.7466L48.0865 10.7402V18.0211ZM81.5294 12.5522C81.5289 13.5486 81.5261 16.8684 81.5232 19.9295L81.5179 25.4952L81.4591 25.6695C81.4267 25.7654 81.3665 25.9111 81.3254 25.9933C81.2843 26.0754 81.2028 26.2099 81.1444 26.2921C81.086 26.3743 80.9714 26.505 80.8898 26.5827C80.8082 26.6603 80.6721 26.7687 80.5873 26.8235C80.5026 26.8782 80.3485 26.9583 80.2451 27.0014C80.1416 27.0445 79.9728 27.0958 79.8701 27.1155C79.7673 27.1351 79.5788 27.1512 79.4511 27.1512C79.3234 27.1512 79.1321 27.1346 79.0261 27.1143C78.9201 27.094 78.8127 27.0709 78.7874 27.0629C78.743 27.0488 78.7413 27.0986 78.7413 28.4658V29.8834L78.8944 29.8994C78.9786 29.9082 79.252 29.9154 79.502 29.9154C79.844 29.9154 80.0297 29.9029 80.2517 29.8651C80.414 29.8375 80.6505 29.7867 80.7773 29.7522C80.9041 29.7178 81.0946 29.6549 81.2006 29.6126C81.3067 29.5702 81.5111 29.4766 81.6549 29.4044C81.7987 29.3322 82.0172 29.2068 82.1405 29.1257C82.2638 29.0445 82.4695 28.8901 82.5977 28.7826C82.7259 28.675 82.9259 28.4802 83.042 28.3497C83.1582 28.2192 83.3174 28.0223 83.3957 27.912C83.474 27.8017 83.5869 27.628 83.6465 27.5258C83.7061 27.4237 83.8016 27.2388 83.8587 27.1149C83.9157 26.9911 83.9917 26.8057 84.0274 26.703C84.0632 26.6003 84.1153 26.4321 84.1433 26.3293C84.1713 26.2265 84.2166 25.9967 84.2441 25.8188C84.2932 25.5004 84.294 25.3769 84.2943 18.1179L84.2946 10.7406H82.9125H81.5304L81.5294 12.5522ZM62.1213 13.0896C62.2868 13.1238 62.5259 13.1864 62.6526 13.2289C62.7793 13.2713 62.9643 13.3436 63.0637 13.3895C63.1631 13.4355 63.3666 13.5431 63.5159 13.6288C63.6653 13.7145 63.8659 13.8421 63.9618 13.9124C64.0577 13.9826 64.2329 14.1265 64.3512 14.2322C64.4695 14.3378 64.6514 14.5257 64.7555 14.6497C64.8596 14.7737 65.0106 14.9732 65.0912 15.093C65.1718 15.2129 65.2892 15.4061 65.3521 15.5225C65.415 15.6389 65.5167 15.854 65.5781 16.0005C65.6395 16.147 65.7235 16.3878 65.7647 16.5356C65.806 16.6834 65.857 16.9426 65.8782 17.1116C65.8993 17.2807 65.9164 17.6057 65.9162 17.8338C65.9159 18.062 65.8994 18.3632 65.8795 18.5031C65.8596 18.6431 65.8269 18.828 65.8067 18.914C65.7865 19 65.7407 19.1601 65.7049 19.2696C65.6691 19.3792 65.5998 19.5623 65.5509 19.6764C65.5021 19.7906 65.4047 19.9894 65.3345 20.1182C65.2643 20.2469 65.1374 20.4505 65.0524 20.5705C64.9674 20.6905 64.8105 20.8866 64.7038 21.0063C64.597 21.1261 64.42 21.303 64.3104 21.3994C64.2009 21.4959 64.0136 21.644 63.8942 21.7285C63.7748 21.813 63.5751 21.9407 63.4502 22.0121C63.3254 22.0835 63.1149 22.1868 62.9824 22.2415C62.85 22.2962 62.6668 22.3649 62.5755 22.3942C62.4841 22.4235 62.316 22.4699 62.2019 22.4974C62.0878 22.525 61.8768 22.5633 61.733 22.5827C61.5892 22.6021 61.3147 22.618 61.1229 22.618C60.9312 22.618 60.6566 22.6021 60.5128 22.5827C60.369 22.5633 60.1729 22.5292 60.077 22.507C59.9812 22.4847 59.8019 22.4349 59.6786 22.3962C59.5553 22.3575 59.3933 22.3014 59.3186 22.2715C59.2438 22.2417 59.0701 22.1609 58.9326 22.0921C58.795 22.0233 58.576 21.8963 58.4459 21.8097C58.3158 21.7232 58.1008 21.5616 57.9681 21.4506C57.8354 21.3395 57.6409 21.1508 57.5358 21.0311C57.4307 20.9115 57.2703 20.7071 57.1793 20.577C57.0884 20.4469 56.9551 20.234 56.883 20.1039C56.8109 19.9737 56.708 19.755 56.6542 19.6178C56.6004 19.4805 56.5225 19.2508 56.4812 19.1073C56.4399 18.9637 56.3807 18.7118 56.3496 18.5475C56.3044 18.3079 56.2933 18.1622 56.2936 17.8128C56.2939 17.4721 56.3059 17.3119 56.3488 17.0782C56.3789 16.9139 56.4314 16.6761 56.4653 16.5497C56.4993 16.4234 56.568 16.2105 56.618 16.0766C56.6681 15.9427 56.7482 15.755 56.7961 15.6596C56.844 15.5641 56.9288 15.4128 56.9846 15.3234C57.0404 15.2339 57.1626 15.0567 57.2561 14.9294C57.3497 14.8022 57.5128 14.6075 57.6186 14.4967C57.7244 14.3859 57.9078 14.214 58.0263 14.1145C58.1447 14.0151 58.3561 13.8583 58.4961 13.766C58.636 13.6738 58.8977 13.5281 59.0776 13.4423C59.2575 13.3566 59.5111 13.2524 59.6412 13.2108C59.7714 13.1693 59.9338 13.1227 60.0023 13.1074C60.0708 13.0921 60.2389 13.0636 60.3759 13.0442C60.5539 13.0189 60.7953 13.0115 61.2225 13.0181C61.7392 13.0262 61.861 13.0359 62.1213 13.0896ZM95.1769 13.0979C95.3344 13.1193 95.5971 13.1751 95.7607 13.222C95.9244 13.2688 96.1779 13.3577 96.3243 13.4195C96.4706 13.4812 96.714 13.6024 96.8652 13.6886C97.0163 13.7749 97.2327 13.9117 97.3459 13.9926C97.4591 14.0735 97.6769 14.263 97.8299 14.4137C97.9829 14.5643 98.1777 14.7804 98.2628 14.8938C98.3479 15.0072 98.4715 15.187 98.5376 15.2934C98.6035 15.3999 98.6981 15.5674 98.7476 15.6657C98.7971 15.7641 98.8724 15.9316 98.9148 16.038C98.9573 16.1445 99.0233 16.3327 99.0615 16.4563C99.0998 16.58 99.1541 16.7929 99.1822 16.9295C99.2104 17.0661 99.2454 17.3388 99.26 17.5356C99.2821 17.8319 99.2799 17.9451 99.2473 18.1955C99.2257 18.3617 99.1808 18.6271 99.1474 18.7853C99.1141 18.9434 99.0483 19.1917 99.0012 19.3371C98.9541 19.4824 98.8631 19.7091 98.7991 19.8407C98.735 19.9724 98.6223 20.1763 98.5485 20.2937C98.4748 20.4112 98.3391 20.6042 98.2469 20.7227C98.1548 20.8411 97.9724 21.0446 97.8417 21.1748C97.711 21.305 97.4978 21.4909 97.3679 21.5879C97.238 21.685 97.0421 21.8186 96.9325 21.8847C96.8229 21.9509 96.6414 22.0475 96.5292 22.0995C96.4169 22.1515 96.2096 22.2342 96.0685 22.2833C95.9274 22.3324 95.6438 22.408 95.4384 22.4514C95.085 22.5258 95.0352 22.5301 94.517 22.5307C94.0891 22.5312 93.9146 22.5213 93.7201 22.4854C93.5831 22.4601 93.3435 22.4009 93.1875 22.3538C93.0316 22.3067 92.8355 22.2398 92.7517 22.2051C92.668 22.1704 92.4874 22.0855 92.3505 22.0164C92.2135 21.9474 92.0174 21.8348 91.9147 21.7663C91.812 21.6979 91.6249 21.5585 91.4989 21.4567C91.373 21.3549 91.1849 21.1813 91.0811 21.0709C90.9772 20.9605 90.8437 20.807 90.7843 20.7298C90.725 20.6526 90.6144 20.4942 90.5386 20.3778C90.4628 20.2614 90.3445 20.0541 90.2757 19.9171C90.2069 19.7801 90.1166 19.5784 90.075 19.4688C90.0335 19.3593 89.972 19.1737 89.9383 19.0565C89.9046 18.9393 89.853 18.7009 89.8236 18.5268C89.7835 18.2895 89.7702 18.1058 89.7704 17.792C89.7705 17.5268 89.7855 17.2799 89.8114 17.1174C89.8337 16.9765 89.8896 16.7284 89.9354 16.5662C89.9812 16.4039 90.0598 16.167 90.1101 16.0397C90.1604 15.9124 90.249 15.718 90.3069 15.6078C90.3648 15.4975 90.4747 15.3126 90.5512 15.1969C90.6276 15.0811 90.7818 14.8768 90.8939 14.7427C91.006 14.6087 91.2115 14.3983 91.3506 14.2751C91.4896 14.152 91.7267 13.9687 91.8773 13.8678C92.028 13.7669 92.2297 13.6429 92.3256 13.5921C92.4214 13.5414 92.6225 13.4501 92.7724 13.3893C92.9223 13.3285 93.1688 13.2462 93.3203 13.2064C93.4717 13.1666 93.7132 13.1167 93.8571 13.0954C94.0009 13.0742 94.1858 13.0529 94.2679 13.048C94.3501 13.0431 94.5238 13.0437 94.6539 13.0491C94.784 13.0546 95.0194 13.0766 95.1769 13.0979Z" fill="black"/>
<g id="Jitjatjo_Logo_horizontally 1 (Traced)_2">
<path d="M13.1237 0.953993C13.7331 0.760178 14.2598 0.593058 14.2941 0.582599L14.3563 0.563599L14.3629 1.67382C14.3664 2.28445 14.3662 7.08719 14.3623 12.3466L14.3553 21.9091L14.2996 22.3573C14.2689 22.6038 14.2214 22.9456 14.194 23.1168C14.1665 23.288 14.1266 23.5178 14.1052 23.6273C14.0838 23.7369 14.0327 23.9722 13.9917 24.1503C13.9507 24.3283 13.8793 24.6085 13.8331 24.7728C13.7869 24.9372 13.7107 25.1893 13.6638 25.3331C13.6169 25.477 13.5143 25.7571 13.4358 25.9557C13.3574 26.1543 13.1785 26.5521 13.0382 26.8397C12.898 27.1274 12.6845 27.5308 12.5637 27.7362C12.443 27.9417 12.2434 28.261 12.1202 28.4459C11.997 28.6308 11.7871 28.9278 11.6537 29.1058C11.5203 29.2839 11.2899 29.5753 11.1416 29.7533C10.9934 29.9314 10.6139 30.3358 10.2983 30.652C9.98273 30.9683 9.57881 31.3476 9.40076 31.495C9.22271 31.6423 8.94266 31.8642 8.77845 31.988C8.61422 32.1118 8.30605 32.328 8.09363 32.4684C7.88119 32.6088 7.55612 32.8099 7.37122 32.9153C7.18632 33.0207 6.84453 33.2001 6.6117 33.314C6.37886 33.428 6.00346 33.594 5.77747 33.6829C5.55148 33.7719 5.20666 33.8965 5.01117 33.9599C4.81569 34.0233 4.47951 34.1193 4.2641 34.1732C4.0487 34.2271 3.68754 34.3044 3.46155 34.3449C3.23556 34.3854 2.86016 34.4414 2.62732 34.4695C2.39448 34.4976 2.0471 34.5326 1.85535 34.5474C1.6636 34.5622 1.16774 34.5811 0.753418 34.5893L0.00012207 34.6044V33.2247L0.000146973 31.8451L0.77832 31.8441C1.36569 31.8434 1.64507 31.8323 1.9176 31.799C2.1162 31.7747 2.40728 31.7329 2.56447 31.7061C2.72167 31.6792 2.97941 31.6283 3.13722 31.593C3.29505 31.5576 3.55867 31.4897 3.72302 31.442C3.88738 31.3943 4.14557 31.3127 4.29675 31.2606C4.44796 31.2085 4.70009 31.1133 4.85705 31.049C5.01404 30.9848 5.28814 30.861 5.46619 30.774C5.64424 30.6869 5.92999 30.5353 6.1012 30.4369C6.2724 30.3386 6.53014 30.1792 6.67395 30.0827C6.81776 29.9862 7.04188 29.8289 7.172 29.7332C7.30211 29.6375 7.53744 29.4525 7.69495 29.3222C7.85246 29.1918 8.17245 28.8937 8.40603 28.6597C8.63962 28.4257 8.93745 28.1054 9.06784 27.9479C9.19823 27.7904 9.37369 27.5703 9.45776 27.4588C9.54181 27.3472 9.7155 27.0951 9.84372 26.8985C9.97197 26.7018 10.1279 26.4513 10.1902 26.3417C10.2525 26.2321 10.3821 25.9853 10.4782 25.7933C10.5744 25.6012 10.7259 25.2594 10.8149 25.0337C10.904 24.8081 11.0293 24.4609 11.0935 24.2623C11.1577 24.0637 11.2538 23.7219 11.3071 23.5027C11.3604 23.2836 11.4277 22.9642 11.4566 22.793C11.4856 22.6219 11.5273 22.353 11.5494 22.1954C11.5858 21.9364 11.5904 20.9309 11.5976 11.6729L11.6057 1.43682L11.8106 1.37158L13.1237 0.953993Z" fill="#962BFF"/>
<path d="M7.85059 2.62604C8.21013 2.51231 8.81244 2.32028 9.18909 2.19931C9.56574 2.07831 9.88792 1.9783 9.90503 1.97703C9.92988 1.97521 9.93608 3.89623 9.93581 11.5061C9.93561 17.3721 9.9261 21.2242 9.91111 21.5231C9.89768 21.7902 9.86325 22.1488 9.83453 22.32C9.80582 22.4912 9.74471 22.7769 9.69874 22.955C9.65275 23.133 9.56872 23.4188 9.51202 23.59C9.45532 23.7612 9.3583 24.0293 9.29644 24.1857C9.23459 24.3421 9.12698 24.5887 9.05731 24.7335C8.98765 24.8784 8.86421 25.1146 8.78298 25.2584C8.70175 25.4022 8.53137 25.6768 8.40432 25.8685C8.27729 26.0603 8.05225 26.3685 7.90423 26.5534C7.75621 26.7383 7.45526 27.0691 7.23547 27.2885C7.01566 27.508 6.68454 27.8087 6.49963 27.9568C6.31473 28.1049 6.00657 28.3301 5.81482 28.4573C5.62307 28.5844 5.37634 28.7398 5.26655 28.8026C5.15673 28.8654 4.90459 28.9945 4.70624 29.0896C4.50787 29.1847 4.23912 29.3042 4.10901 29.3553C3.97889 29.4063 3.75477 29.4866 3.61096 29.5336C3.46715 29.5806 3.20381 29.6572 3.02576 29.7037C2.84771 29.7502 2.58284 29.8108 2.43719 29.8384C2.29154 29.8661 2.01139 29.9066 1.81463 29.9284C1.61788 29.9503 1.13644 29.9746 0.744777 29.9825L0.0326445 29.9967L0.0166572 29.8999C0.0078667 29.8467 0.00054541 29.2189 0.000395996 28.5049L0.00012207 27.2067L0.728516 27.1937C1.28197 27.1839 1.53764 27.1686 1.79309 27.13C1.97799 27.1021 2.23013 27.0558 2.35339 27.0273C2.47666 26.9988 2.66716 26.9462 2.77673 26.9106C2.8863 26.8749 3.04319 26.818 3.12537 26.7842C3.20754 26.7503 3.40925 26.6551 3.57361 26.5726C3.73796 26.4902 3.9783 26.3562 4.10766 26.2749C4.23703 26.1936 4.4488 26.0465 4.57822 25.948C4.70766 25.8495 4.90997 25.6795 5.02781 25.5703C5.14564 25.461 5.31665 25.293 5.40782 25.1968C5.49896 25.1006 5.63689 24.9445 5.71434 24.8499C5.79176 24.7554 5.92666 24.5753 6.01411 24.4499C6.10157 24.3245 6.24063 24.1082 6.32313 23.9692C6.4056 23.8303 6.5224 23.6125 6.58266 23.4852C6.6429 23.3579 6.73339 23.1438 6.78375 23.0093C6.83407 22.8748 6.90786 22.6283 6.94768 22.4614C6.9875 22.2946 7.04295 22.0088 7.07087 21.8262C7.09881 21.6437 7.13858 21.3256 7.15927 21.1193C7.19207 20.7923 7.1969 19.595 7.1969 11.7885V2.8328L7.85059 2.62604Z" fill="#962BFF"/>
<path d="M3.65855 3.90549C4.13229 3.77077 4.72721 3.60131 4.98059 3.52892C5.23397 3.45653 5.46133 3.39659 5.48586 3.39574C5.52862 3.39425 5.52981 3.74592 5.51559 12.1038C5.50705 17.1232 5.49082 20.9611 5.47727 21.162C5.46066 21.4086 5.43195 21.5934 5.3792 21.7935C5.33819 21.9491 5.26423 22.1788 5.21482 22.304C5.16544 22.4292 5.06927 22.6371 5.00111 22.7661C4.93298 22.8951 4.81579 23.0929 4.74071 23.2058C4.6656 23.3186 4.51532 23.5174 4.40672 23.6475C4.29812 23.7776 4.12228 23.9646 4.01595 24.063C3.90962 24.1614 3.72178 24.3177 3.59851 24.4102C3.47524 24.5028 3.27784 24.6363 3.15986 24.7069C3.04187 24.7776 2.84016 24.8838 2.71161 24.9431C2.58307 25.0023 2.39386 25.0801 2.29114 25.1158C2.18842 25.1516 2.01913 25.204 1.91494 25.2324C1.81075 25.2608 1.61464 25.2947 1.47915 25.3079C1.34365 25.3211 0.990464 25.3321 0.694275 25.3325C0.398086 25.3328 0.120749 25.3261 0.0779419 25.3176L0.00012207 25.302V23.9106C0.00012207 23.061 0.00921143 22.5192 0.0234805 22.5192C0.0363301 22.5192 0.123165 22.5373 0.216474 22.5595C0.3245 22.5851 0.49914 22.6 0.697388 22.6004C0.938194 22.6009 1.05568 22.5888 1.21628 22.5469C1.33046 22.5172 1.49683 22.4597 1.58598 22.4193C1.67513 22.3789 1.81812 22.2958 1.90371 22.2348C1.9893 22.1737 2.13669 22.0405 2.23125 21.9387C2.32583 21.8369 2.4408 21.6909 2.48675 21.6142C2.53269 21.5375 2.59671 21.4093 2.62901 21.3293C2.66134 21.2493 2.70439 21.12 2.72474 21.0419C2.75689 20.9185 2.76401 19.8104 2.77945 12.5252L2.7972 4.15043L3.65855 3.90549Z" fill="#962BFF"/>
</g>
</g>
<defs>
<clipPath id="clip0_205_207">
<rect width="102" height="34.0723" fill="white" transform="translate(0 0.563538)"/>
</clipPath>
</defs>
</svg>
