<svg width="139" height="30" viewBox="0 0 139 30" fill="none" xmlns="http://www.w3.org/2000/svg">
<g id="Group">
<g id="Group_2">
<path id="Vector" d="M72.2492 13.5862C72.2821 10.7953 74.1372 8.61181 77.0102 8.61181C79.3907 8.61181 81.1966 10.0565 81.328 12.2236H79.9325C79.7847 10.8281 78.6191 9.89236 77.0431 9.89236C74.9417 9.89236 73.7104 11.7147 73.7104 13.5862C73.7104 15.5563 75.0237 17.2965 77.0431 17.2965C78.6027 17.2965 79.7848 16.3772 79.9653 14.8175H81.3444C81.1638 17.0667 79.5713 18.5771 76.9774 18.5771C73.9895 18.5771 72.2492 16.1473 72.2492 13.5862ZM83.0189 13.5862C83.0189 10.7296 85.0054 8.61181 87.862 8.61181C90.85 8.61181 92.6887 10.9102 92.6887 13.5862C92.6887 16.4593 90.735 18.5607 87.8784 18.5607C84.8905 18.5771 83.0189 16.3115 83.0189 13.5862ZM91.2604 13.5862C91.2604 11.5012 89.8978 9.87594 87.862 9.87594C85.7278 9.87594 84.4472 11.6654 84.4472 13.5862C84.4472 15.6384 85.7606 17.2965 87.862 17.2965C90.0127 17.313 91.2604 15.4906 91.2604 13.5862ZM94.7573 18.3637V8.84166H97.1049L99.6332 16.4428L99.7645 17.4935H99.9615L100.093 16.4428L102.621 8.84166H104.985V18.3637H103.573V9.79386H103.376L103.196 11.4192L100.864 18.3637H98.9108L96.5796 11.4192L96.399 9.79386H96.202V18.3637H94.7573ZM121.632 18.3637L120.483 15.031H116.871L115.722 18.3637H114.179L117.544 8.84166H119.761L123.126 18.3637H121.632ZM117.265 13.8161H120.056L118.858 10.3685L118.759 9.56401H118.562L118.48 10.3685L117.265 13.8161ZM42.0579 13.5862C42.0579 10.6311 44.0936 8.57898 47.0323 8.57898C50.0859 8.57898 52.0068 10.8117 52.0068 13.5862C52.0068 16.5249 49.9382 18.6099 47.0323 18.6099C43.9459 18.6099 42.0579 16.41 42.0579 13.5862ZM49.6755 13.5862C49.6755 11.9773 48.6412 10.6147 47.0323 10.6147C45.3085 10.6147 44.3892 12.0923 44.3892 13.5862C44.3892 15.228 45.3578 16.5578 47.0323 16.5578C48.7726 16.5578 49.6755 15.0966 49.6755 13.5862ZM53.5664 8.84166H55.8156V14.7683C55.8156 15.8518 56.4887 16.5413 57.5394 16.5413C58.5901 16.5413 59.2468 15.8682 59.2468 14.7683V8.84166H61.4795V14.8504C61.4795 17.1816 59.887 18.6099 57.523 18.6099C55.1096 18.6099 53.55 17.198 53.55 14.8504V8.84166H53.5664ZM68.8016 18.3637L66.7659 14.6698H65.8465V18.3637H63.6138V8.84166H67.7017C69.5075 8.84166 70.8538 9.82669 70.8538 11.6162C70.8538 13.1922 70.0001 14.128 68.3091 14.2429V14.4071L69.3105 14.5877L71.412 18.3637H68.8016ZM65.8301 10.7789V12.9131H67.3897C68.0792 12.9131 68.5882 12.5027 68.5882 11.8296C68.5882 11.1237 68.03 10.7789 67.3897 10.7789H65.8301ZM33.603 8.84166V10.8774H37.576V11.0908L36.4268 11.2714V18.3637H38.6431V10.8774H41.4669V8.84166H33.603ZM111.01 8.84166H107.661V18.3637H109.106V14.6369H111.01C112.8 14.6369 114.162 13.4549 114.162 11.7311C114.162 9.81027 112.734 8.85807 111.01 8.84166ZM111.01 13.34H109.5L109.303 14.1444H109.106V10.1386H111.01C112.045 10.1386 112.767 10.7461 112.767 11.7311C112.767 12.7654 111.93 13.34 111.01 13.34ZM127.28 8.62823C125.589 8.62823 124.013 9.7446 124.013 11.5012C124.013 12.9788 125.146 13.7504 126.492 14.0295L127.543 14.2593C128.347 14.4399 129.184 14.8504 129.184 15.7697C129.184 16.8861 128.265 17.3622 127.296 17.3622C126.262 17.3622 125.605 16.9025 125.375 15.8847H123.881C124.078 17.592 125.408 18.5771 127.231 18.5771C129.102 18.5771 130.629 17.5428 130.629 15.6876C130.629 14.1608 129.545 13.3892 128.134 13.0609L127.099 12.8146C126.262 12.6176 125.458 12.2893 125.458 11.4027C125.458 10.3192 126.344 9.84311 127.231 9.84311C128.134 9.84311 128.757 10.2207 128.954 11.1565H130.432C130.251 9.51476 128.938 8.62823 127.28 8.62823C127.28 8.62823 127.296 8.62823 127.28 8.62823ZM135.341 8.62823C133.65 8.62823 132.074 9.7446 132.074 11.5012C132.074 12.9788 133.206 13.7504 134.553 14.0295L135.603 14.2593C136.408 14.4399 137.245 14.8504 137.245 15.7697C137.245 16.8861 136.326 17.3622 135.357 17.3622C134.323 17.3622 133.666 16.9025 133.436 15.8847H131.942C132.139 17.592 133.469 18.5771 135.291 18.5771C137.163 18.5771 138.69 17.5428 138.69 15.6876C138.69 14.1608 137.606 13.3892 136.194 13.0609L135.16 12.8146C134.323 12.6176 133.518 12.2893 133.518 11.4027C133.518 10.3192 134.405 9.84311 135.291 9.84311C136.194 9.84311 136.818 10.2207 137.015 11.1729H138.493C138.312 9.49835 137.015 8.61181 135.406 8.61181L135.341 8.62823Z" fill="#FF6700"/>
</g>
<path id="Vector_2" d="M23.7363 5.21346C22.3573 3.37473 20.4693 1.93001 18.3022 1.14198C14.7561 -0.204234 10.8323 -0.319155 7.25339 0.961391C4.29828 1.96284 1.91778 4.09709 0.784989 7.03577C-0.807484 11.2386 0.0954643 16.2459 2.83715 19.7591L2.96848 19.9233L3.31325 19.6771L3.19832 19.4965C0.768572 15.8683 0.111881 10.9431 1.9342 6.93727C2.6073 5.5418 3.60876 4.35976 4.84005 3.47323C5.46391 3.14488 6.13701 2.91504 6.82654 2.75087C7.86082 2.52103 8.91153 2.55386 9.60105 2.63595C10.4219 2.71804 11.2592 2.88221 12.0636 3.12847C10.4876 3.17772 8.55035 3.58815 6.82654 4.91795C6.81012 4.93437 6.48177 5.18062 6.05493 5.60747C6.02209 5.64031 5.23406 6.42833 4.62663 7.4462C3.98635 8.51333 2.90281 11.5998 3.44458 15.6056C3.95352 19.3815 5.69375 22.2381 7.05638 23.9784L7.30264 24.2903L7.94291 23.7814L7.69665 23.4694C6.38327 21.8113 4.72513 19.086 4.24903 15.4907C3.72368 11.5669 4.85647 8.64466 5.33257 7.85664C5.89075 6.93727 6.62953 6.18208 6.64595 6.16566C7.03996 5.77164 7.33547 5.5418 7.33547 5.5418C9.79806 3.65382 12.7203 3.81799 14.1815 4.06425C13.7218 4.52393 13.2785 5.01645 12.8681 5.52539C9.96223 9.17002 9.40405 13.0773 8.9772 15.9503C8.53393 19.0696 8.55035 22.2546 9.05928 25.4395L9.78164 24.8321C9.37121 21.8934 9.37121 18.9547 9.78164 16.0817C10.1757 13.3072 10.7338 9.51478 13.4919 6.05074C13.968 5.4433 14.5098 4.8687 15.068 4.34334C17.6619 6.05074 18.7783 8.02081 19.238 9.39986C21.1752 15.1131 16.1187 20.9083 14.5262 22.5337C13.8039 23.2724 13.0158 23.9291 12.1786 24.5366V25.5216C13.2457 24.8157 14.2307 23.9948 15.1008 23.0918C16.7754 21.368 22.0782 15.2937 20.0096 9.13718C19.5499 7.80738 18.5649 5.95223 16.365 4.26126C17.3828 4.37618 18.8768 4.70452 20.5185 5.59106C22.1767 6.47759 23.3095 7.64321 24.0482 8.66108C24.5736 10.2536 24.6721 11.9938 24.2452 13.734C23.3423 17.9368 20.0917 21.0069 16.7754 23.5187C14.7068 25.1604 12.4741 26.5559 10.11 27.7051V29.117C12.7696 27.9021 15.2978 26.3753 17.5798 24.5694C19.3201 23.2396 21.0767 21.7949 22.4886 20.0875C25.9855 15.9339 27.2168 9.71178 23.7363 5.21346ZM9.68314 1.79867C9.35479 1.76584 8.96078 1.74942 8.51751 1.74942C9.46971 1.48674 10.4712 1.32257 11.4726 1.2569C12.5233 1.38824 13.4099 1.81509 13.9516 2.52103C14.083 2.6852 14.1815 2.88221 14.28 3.07922C12.786 2.38969 11.2428 1.96284 9.68314 1.79867ZM15.1829 3.17772C15.0516 2.75087 14.8546 2.37327 14.5919 2.02851C14.3785 1.74942 14.1322 1.51958 13.8367 1.30615C15.265 1.45391 16.6769 1.79867 18.0067 2.34044C16.8411 2.37327 15.8724 2.76729 15.1829 3.17772ZM20.9125 4.83586C19.1887 3.9165 17.6455 3.55532 16.5455 3.42398C17.0217 3.25981 17.5798 3.12847 18.1873 3.14488C19.4022 3.1613 20.3544 3.65382 21.0767 4.19559C21.7334 4.77019 22.308 5.39405 22.7841 6.09999C22.2423 5.65672 21.6185 5.22988 20.9125 4.83586Z" fill="#FF6700"/>
</g>
</svg>
