<svg width="101" height="30" viewBox="0 0 101 30" fill="none" xmlns="http://www.w3.org/2000/svg">
<g id="Versonix" clip-path="url(#clip0_205_335)">
<path id="image 178 (Traced)" fill-rule="evenodd" clip-rule="evenodd" d="M43.9016 7.5903C42.1918 8.04752 41.2064 9.33486 41.2064 11.1113C41.2064 12.2477 41.5256 13.119 42.193 13.8041C42.7162 14.3412 42.9111 14.4864 44.9797 15.8802C47.1806 17.3632 47.6081 17.9222 47.5348 19.2204C47.4949 19.9248 47.4343 20.113 47.1229 20.4979C46.922 20.7461 46.5193 21.0772 46.2279 21.2337C44.9078 21.9431 42.6751 21.0736 42.0217 19.5954C41.887 19.2909 41.7014 18.8802 41.609 18.6826C41.5165 18.4849 41.3928 18.1615 41.334 17.9638C41.261 17.7189 41.2238 18.2875 41.2167 19.7492L41.2064 21.894L41.4523 21.6714C41.857 21.3053 42.4757 21.3735 43.8158 21.9325C44.379 22.1672 45.931 22.1427 46.6497 21.8874C47.3748 21.6299 48.2474 20.7917 48.6308 19.9844C49.0497 19.1024 49.0986 17.8702 48.7516 16.9422C48.4119 16.0337 47.496 15.0692 46.2524 14.3104C44.8019 13.4253 42.9728 12.0019 42.7103 11.554C42.5357 11.256 42.4652 10.9244 42.4648 10.3985C42.4643 9.75255 42.5102 9.60389 42.8349 9.20069C43.9109 7.86461 45.4643 7.88761 46.8223 9.25975C47.3427 9.78537 47.69 10.458 48.0081 11.5553C48.1026 11.8816 48.1322 11.5163 48.1418 9.90827C48.1485 8.77174 48.127 7.84197 48.0941 7.84197C48.0611 7.84197 47.9264 7.94978 47.7946 8.08154C47.4783 8.39789 47.3354 8.38615 46.3367 7.96116C45.4351 7.57748 44.4885 7.43326 43.9016 7.5903ZM56.5524 7.67199C55.0059 8.08777 53.3797 9.41966 52.6841 10.8397C52.0296 12.176 51.8411 13.1985 51.8921 15.1346C51.9423 17.0387 52.0702 17.6195 52.7394 18.982C53.1439 19.8055 54.1728 20.934 54.9538 21.4105C55.8492 21.957 56.5643 22.1224 57.8246 22.0749C59.2807 22.0199 60.0777 21.6742 61.1798 20.6195C62.1369 19.7037 62.5294 19.0741 63.0227 17.6644C63.4042 16.5737 63.4206 16.4542 63.4166 14.7895C63.4122 12.9881 63.4113 12.9834 62.7135 11.094C62.6076 10.8073 62.4417 10.4935 62.345 10.3966C62.248 10.2998 62.1689 10.1767 62.1689 10.1229C62.1689 9.94001 60.7929 8.60009 60.2621 8.26625C59.6259 7.86605 58.3384 7.47962 57.6773 7.49052C57.4135 7.49483 56.9074 7.57652 56.5524 7.67199ZM0.083347 7.91851C-0.0390737 8.04093 0.114611 8.20133 0.354182 8.20133C0.62897 8.20133 1.25629 8.90351 1.50855 9.49345C1.61313 9.73805 1.83245 10.3424 1.99584 10.8365C2.15935 11.3305 2.36215 11.8965 2.44647 12.0942C2.5308 12.2919 2.71994 12.7771 2.86692 13.1724C3.359 14.4957 3.49891 14.8476 3.65271 15.1489C3.73692 15.3136 3.84605 15.6368 3.8954 15.8671C3.94475 16.0975 4.05424 16.4478 4.13868 16.6457C4.22301 16.8436 4.40736 17.302 4.54835 17.6644C4.68922 18.0267 4.85021 18.431 4.90615 18.5628C4.96209 18.6945 5.12967 19.1527 5.27856 19.5809C5.42758 20.0092 5.59048 20.4142 5.64079 20.4809C5.6911 20.5477 5.79568 20.8543 5.87318 21.1624C6.0253 21.7662 6.42335 22.2644 6.51307 21.963C6.54026 21.8717 6.73288 21.3286 6.94106 20.7562C7.14925 20.1837 7.36666 19.5638 7.42416 19.3786C7.48166 19.1934 7.64504 18.7454 7.78723 18.3831C7.92941 18.0207 8.11903 17.4817 8.20851 17.1852C8.29811 16.8888 8.62369 15.9455 8.93202 15.089C9.24047 14.2325 9.77914 12.7098 10.1293 11.7052C10.8824 9.54424 11.2713 8.78504 11.8153 8.41479C12.5301 7.9281 12.3667 7.84197 10.7281 7.84197C9.3351 7.84197 8.76564 7.9693 9.30599 8.15988C9.42541 8.20192 9.67145 8.37334 9.85257 8.5408C10.2753 8.93118 10.2818 9.41823 9.8794 10.5371C9.7135 10.9983 9.41978 11.8338 9.22669 12.3938C9.0336 12.9538 8.76001 13.7085 8.61878 14.0708C8.47755 14.4332 8.31836 14.9183 8.26481 15.1489C8.17797 15.5236 7.56826 17.2212 7.29671 17.8441C7.23933 17.9758 7.13859 18.2318 7.07295 18.413C7.00743 18.5943 6.89962 18.7424 6.83338 18.7424C6.66688 18.7424 6.31195 18.0151 5.89438 16.8182C5.58965 15.9447 5.13877 14.739 4.17282 12.2141C3.07223 9.33761 3.0375 8.68191 3.96164 8.22469C4.21678 8.09843 4.39119 7.96068 4.34915 7.91851C4.24913 7.81849 0.183368 7.81861 0.083347 7.91851ZM14.9734 7.96176L14.6739 8.0577L14.9766 8.06956C15.4083 8.08657 15.7873 8.38975 15.9934 8.88279C16.142 9.23879 16.1713 10.2216 16.1713 14.8688C16.1713 20.1933 16.1611 20.4489 15.9316 20.8988C15.7398 21.2747 15.5903 21.3976 15.1829 21.5138L14.6739 21.6591L15.0333 21.7438C15.2309 21.7904 17.1746 21.835 19.3526 21.8427C22.3591 21.8535 23.3574 21.8208 23.4987 21.7071C23.6011 21.6248 23.8306 21.0723 24.0086 20.4793C24.1867 19.8864 24.3848 19.273 24.4488 19.1163C24.5129 18.9595 24.5408 18.8068 24.5108 18.7768C24.4263 18.6923 24.0331 19.1296 23.873 19.4863C23.6539 19.9743 22.8652 20.7963 22.4485 20.9707C22.2163 21.0678 21.5 21.1306 20.5319 21.1383C18.2153 21.1568 18.2275 21.158 17.968 20.8986C17.7421 20.6727 17.7285 20.4993 17.7285 17.868C17.7285 15.8569 17.7686 15.0369 17.8722 14.9333C18.0415 14.764 20.2503 14.7434 21.0791 14.9033C21.7149 15.026 22.2794 15.5776 22.2821 16.0791C22.2832 16.2593 22.3295 16.4786 22.3854 16.5665C22.5658 16.8512 22.6367 16.2482 22.6296 14.4901C22.6223 12.6727 22.4909 11.9401 22.3355 12.8503C22.2304 13.4663 21.7446 14.0042 21.1945 14.1143C20.9846 14.1562 20.1469 14.1906 19.3329 14.1906C17.8975 14.1906 17.8508 14.1825 17.7867 13.9211C17.7503 13.7728 17.7358 12.5196 17.7545 11.1361L17.7884 8.62058L20.022 8.58799L22.2558 8.55553L22.6181 8.86039C22.9596 9.14775 23.4782 10.0328 23.4782 10.3284C23.4782 10.4025 23.539 10.5007 23.6134 10.5467C23.7768 10.6477 23.6389 8.38616 23.4613 8.05159C23.3584 7.8579 23.0425 7.84293 19.3114 7.85395C17.0902 7.86054 15.1381 7.90905 14.9734 7.96176ZM27.8503 7.95553L27.491 8.05315L27.866 8.0674C28.3915 8.08717 28.9576 8.68957 29.0505 9.32731C29.0898 9.59743 29.1052 12.281 29.085 15.2908L29.0482 20.7633L28.7019 21.1246C28.5116 21.3233 28.1881 21.5254 27.9832 21.5737L27.6108 21.6614L28.0899 21.7523C28.6946 21.8668 30.8064 21.8821 31.5699 21.7776L32.1487 21.6983L31.6104 21.5412C30.7329 21.2854 30.6653 21.0302 30.6653 17.9726C30.6653 15.1449 30.6289 15.2687 31.4604 15.2687C31.7735 15.2687 31.9611 15.3611 32.2177 15.6422C32.4987 15.9498 33.5304 17.5857 34.5885 19.4013C34.7036 19.5989 34.8248 19.7876 34.8578 19.8205C35.0244 19.9871 35.4329 20.6327 35.5034 20.841C35.5477 20.9715 35.7162 21.24 35.8779 21.4376C36.1655 21.7892 36.1988 21.7978 37.423 21.8376C38.1345 21.8607 38.7682 21.8254 38.8922 21.7558C39.0994 21.6395 39.0984 21.6296 38.8706 21.5558C37.8329 21.2196 36.9843 20.5035 36.3404 19.4207C36.1509 19.1019 35.9149 18.7159 35.8161 18.5628C35.6533 18.3106 34.614 16.6232 34.3173 16.1293C34.2506 16.0183 34.1011 15.7869 33.9851 15.615C33.6954 15.1854 33.8133 14.9782 34.5442 14.6321C35.9283 13.9768 36.5723 12.9464 36.5795 11.3756C36.5846 10.2409 36.3674 9.73027 35.5275 8.90219C34.6502 8.03722 34.1177 7.92019 30.9049 7.88629C29.4225 7.8706 28.048 7.90174 27.8503 7.95553ZM65.6509 7.95409C65.5243 8.03423 65.5967 8.08454 65.9275 8.14658C66.6128 8.27511 67.5163 9.20812 67.6167 9.89078C67.6594 10.1804 67.6772 12.7352 67.6566 15.5681C67.6287 19.4004 67.5809 20.7856 67.47 20.9796C67.3879 21.1228 67.0978 21.3384 66.8252 21.4587L66.3296 21.6772L66.7946 21.7601C67.4058 21.8691 68.4602 21.8765 69.1865 21.777L69.7693 21.6971L69.2931 21.5664C68.9033 21.4593 68.7681 21.3389 68.5474 20.9022C68.2819 20.3766 68.2779 20.3013 68.2797 15.8123C68.2808 13.3062 68.3273 11.1839 68.3831 11.0958C68.5274 10.868 69.0769 11.5532 71.0093 14.3703C71.4611 15.0291 72.1095 15.9397 72.4502 16.3938C72.7907 16.8479 73.0693 17.2657 73.0693 17.3222C73.0693 17.3786 73.1637 17.5194 73.279 17.635C73.3942 17.7506 73.7811 18.2761 74.1386 18.8029C75.8074 21.2621 76.428 22.0423 76.5553 21.8412C76.6125 21.751 76.66 18.8586 76.6611 15.4136C76.6628 9.37223 76.6715 9.13326 76.9044 8.67675C77.1114 8.27104 77.218 8.19138 77.6531 8.11807C78.1521 8.03411 78.1545 8.03135 77.8009 7.95145C77.3137 7.84137 75.2514 7.84844 74.8062 7.96176L74.4469 8.05315L74.7883 8.0674C75.0041 8.07627 75.2795 8.23139 75.5369 8.48881L75.9442 8.89608V13.3929C75.9442 16.3875 75.9024 17.9156 75.8191 17.9671C75.6304 18.0837 75.3999 17.8419 74.6854 16.7776C73.8526 15.5372 73.0898 14.4399 72.4285 13.5309C72.1405 13.1353 71.611 12.3806 71.2517 11.8539C70.4586 10.6914 69.4808 9.31833 68.8426 8.47084L68.369 7.84197L67.0956 7.84377C66.3953 7.84485 65.7452 7.89444 65.6509 7.95409ZM80.9153 7.95325C80.704 8.0365 80.7199 8.05746 81.0499 8.13065C81.2558 8.17641 81.5523 8.3501 81.7088 8.51672L81.9934 8.81966V14.8494V20.8793L81.703 21.1885C81.5432 21.3584 81.3173 21.4975 81.201 21.4975C80.7882 21.4975 80.867 21.7076 81.307 21.7803C81.9354 21.8843 84.0556 21.8621 84.6286 21.7457L85.1078 21.6483L84.7269 21.5597C84.271 21.4534 83.9323 21.105 83.7469 20.5513C83.5588 19.99 83.5572 9.95678 83.7449 9.211C83.8993 8.59805 84.4165 8.08909 84.9074 8.0674C85.2266 8.05327 85.2265 8.05291 84.8682 7.96176C84.3902 7.84005 81.2197 7.83322 80.9153 7.95325ZM88.4697 7.94894C88.4333 8.00787 88.5424 8.09089 88.7121 8.13341C89.277 8.27524 89.9161 8.7721 90.5198 9.53885C90.8484 9.95618 91.1536 10.3784 91.198 10.4773C91.2425 10.5761 91.3911 10.8456 91.5285 11.0762C91.9849 11.8424 93.3707 14.201 93.5209 14.4674C93.7573 14.8863 93.6994 15.198 93.2807 15.7605C93.0653 16.05 92.7284 16.5294 92.5321 16.8259C92.3358 17.1223 92.1348 17.4188 92.0854 17.4847C92.0359 17.5506 91.8168 17.874 91.5985 18.2034C90.754 19.4772 90.4442 19.9004 90.0589 20.3072C89.5885 20.8038 88.7054 21.4258 88.2821 21.5587C87.9999 21.6474 87.9964 21.6581 88.2222 21.7464C88.566 21.8807 91.5417 21.875 91.7559 21.7395C91.8995 21.6487 91.8572 21.5985 91.5455 21.4898C91.1453 21.3503 90.9508 20.9732 91.0241 20.4793C91.0784 20.114 92.7318 17.4943 93.7667 16.1338C94.0429 15.7707 94.0812 15.7554 94.2751 15.9308C94.3903 16.0352 94.6607 16.4544 94.8757 16.8625C95.0907 17.2706 95.3594 17.7392 95.4727 17.9039C95.9569 18.6072 96.7869 20.3363 96.7869 20.6415C96.7869 21.0157 96.451 21.4341 96.0423 21.5691L95.7687 21.6596L96.0682 21.7463C96.4672 21.8618 100.018 21.8647 100.312 21.7497C100.507 21.6731 100.456 21.6172 99.9805 21.3871C99.4325 21.1217 98.5137 20.1044 98.2235 19.4416C98.1561 19.2876 97.9969 19 97.8699 18.8023C97.6517 18.4631 97.5299 18.2559 97.1305 17.5446C97.0381 17.3799 96.8778 17.1104 96.7743 16.9457C96.3358 16.2473 95.3704 14.469 95.2953 14.2209C95.2342 14.0193 95.3407 13.764 95.7202 13.2027C95.9987 12.7908 96.3168 12.319 96.4269 12.1542C98.4193 9.17626 98.8135 8.70275 99.6282 8.30842C99.9102 8.17186 100.141 8.01111 100.141 7.9511C100.141 7.81298 96.9307 7.82268 96.6072 7.96176C96.373 8.06238 96.3732 8.06489 96.621 8.07316C96.7603 8.07771 97.0164 8.1933 97.1899 8.32986C97.4322 8.52031 97.5056 8.68418 97.5056 9.03384C97.5056 9.29281 97.428 9.55406 97.3259 9.63875C97.2271 9.7208 97.1462 9.83879 97.1462 9.90096C97.1462 9.96325 97.0151 10.1861 96.8548 10.3962C96.6945 10.6064 96.4914 10.9127 96.4034 11.077C96.3154 11.2412 95.9536 11.7888 95.5994 12.2937C95.0479 13.0797 94.9195 13.1985 94.7066 13.1197C94.4578 13.0277 94.3775 12.9093 93.728 11.6751C93.5374 11.3128 93.2421 10.8007 93.0718 10.5371C92.9016 10.2736 92.6606 9.8249 92.5364 9.53993C92.3271 9.06043 92.3245 8.99778 92.5007 8.70143C92.6054 8.52522 92.8601 8.29775 93.0667 8.19606C93.2733 8.09436 93.4042 7.97313 93.3578 7.92654C93.2331 7.80196 88.5473 7.8234 88.4697 7.94894ZM58.9712 8.43251C59.6511 8.74527 60.5532 9.69924 60.7915 10.3575C61.4705 12.2335 61.6086 13.2201 61.5293 15.628C61.4696 17.4411 61.3307 18.2264 60.9014 19.1798C60.808 19.3874 60.7314 19.6083 60.7314 19.6707C60.7314 19.9202 59.3249 21.1075 58.7861 21.3128C57.8914 21.6537 56.6259 21.5314 55.9034 21.0343C55.009 20.4191 54.5194 19.6495 54.1315 18.25C53.7971 17.0432 53.6285 15.2574 53.7202 13.8911C53.9158 10.9723 54.5673 9.48219 56.0568 8.54643C56.5312 8.2484 56.7156 8.20564 57.5338 8.2036C58.2078 8.20193 58.609 8.26589 58.9712 8.43251ZM33.6511 9.03264C35.0706 10.1574 35.1371 12.6674 33.7792 13.8736C33.1287 14.4516 32.4487 14.6853 31.534 14.6453L30.7252 14.6098L30.6931 11.7019L30.661 8.79415L30.9327 8.67915C31.082 8.61591 31.6378 8.57685 32.1676 8.59231C33.0648 8.61866 33.1665 8.64885 33.6511 9.03264ZM39.9487 25.7067C40.2781 25.7662 40.8171 25.8938 41.1465 25.9901C42.1235 26.2759 42.6532 26.3922 43.6021 26.5291C44.5543 26.6665 46.0613 26.9443 46.9561 27.1473C47.2526 27.2145 48.0072 27.3445 48.6331 27.4361C49.259 27.5276 50.2832 27.6855 50.909 27.787C51.5349 27.8884 52.6938 28.0475 53.4844 28.1406C54.275 28.2336 55.38 28.3664 55.94 28.4356C56.5 28.5047 57.7398 28.6185 58.6951 28.6882C59.6504 28.758 61.0788 28.863 61.8694 28.9217C66.0684 29.2334 75.8909 29.1644 78.3399 28.806C78.7681 28.7433 80.0079 28.634 81.095 28.5628C82.182 28.4918 83.3679 28.3836 83.7303 28.3224C84.0926 28.2613 84.8742 28.1572 85.4671 28.0912C86.0601 28.0252 87.0573 27.8929 87.6832 27.7969C88.3091 27.701 89.2793 27.5605 89.8393 27.4846C90.3993 27.4089 91.154 27.275 91.5163 27.1872C92.2127 27.0185 93.9662 26.7022 94.8703 26.5823C95.5024 26.4984 96.6952 26.2367 97.6254 25.9777C97.9877 25.8769 98.5537 25.7503 98.8831 25.6963C99.4387 25.6054 99.4056 25.5974 98.4271 25.5843C97.8468 25.5766 97.1461 25.6204 96.8699 25.6817C96.5937 25.7432 95.3165 25.9059 94.0318 26.0434C92.7471 26.1808 91.3187 26.3465 90.8575 26.4116C89.7232 26.5715 85.9502 26.8169 77.6212 27.2728C74.0528 27.4681 64.8206 27.4723 61.4502 27.28C60.0337 27.1993 57.8506 27.0788 56.5988 27.0123C52.4502 26.792 48.7035 26.5344 47.9144 26.4149C47.4862 26.3501 46.0577 26.1854 44.7401 26.0489C43.4224 25.9123 42.1145 25.7488 41.8336 25.6854C41.5526 25.6221 40.8788 25.5766 40.3363 25.5843C39.3696 25.5982 39.3618 25.6008 39.9487 25.7067Z" fill="black"/>
<path id="image 178 (Traced)_2" d="M65.1658 3.19898C65.4952 3.29529 66.0343 3.42286 66.3637 3.48239C66.9505 3.58828 66.9427 3.5908 65.9761 3.6047C65.4335 3.61248 64.7598 3.56696 64.4787 3.5036C64.1978 3.44023 62.8899 3.27672 61.5723 3.14017C60.2546 3.00361 58.8262 2.8389 58.3979 2.7741C57.6088 2.65467 53.8622 2.39702 49.7135 2.17673C48.4617 2.11025 46.2787 1.98975 44.8622 1.90901C41.4918 1.71676 32.2596 1.72095 28.6912 1.9162C20.3621 2.37211 16.5891 2.61755 15.4549 2.77746C14.9937 2.8425 13.5652 3.00828 12.2805 3.14568C10.9958 3.28319 9.71869 3.44586 9.44246 3.50731C9.16624 3.56864 8.4655 3.61249 7.88525 3.6047C6.90673 3.59164 6.87366 3.58362 7.42923 3.4927C7.75864 3.4388 8.32463 3.31218 8.68698 3.21133C9.61711 2.95235 10.8099 2.69062 11.442 2.60677C12.3462 2.48686 14.0996 2.1705 14.796 2.00185C15.1584 1.91404 15.913 1.78013 16.473 1.70442C17.033 1.6286 18.0033 1.48809 18.6292 1.39214C19.2551 1.29619 20.2523 1.16383 20.8452 1.09782C21.4381 1.03182 22.2197 0.92773 22.5821 0.866639C22.9444 0.805429 24.1303 0.697267 25.2174 0.626235C26.3044 0.555082 27.5442 0.445714 27.9724 0.383066C30.4215 0.0246681 40.244 -0.0443297 44.4429 0.267352C45.2335 0.326046 46.662 0.431095 47.6173 0.50081C48.5725 0.570525 49.8123 0.684322 50.3723 0.753439C50.9323 0.822674 52.0373 0.955398 52.8279 1.04847C53.6185 1.14154 54.7774 1.30062 55.4033 1.40208C56.0292 1.50354 57.0534 1.66141 57.6792 1.75293C58.3051 1.84456 59.0598 1.97453 59.3562 2.04173C60.251 2.24477 61.7581 2.52255 62.7102 2.65994C63.6592 2.79686 64.1889 2.91317 65.1658 3.19898Z" fill="black"/>
</g>
<defs>
<clipPath id="clip0_205_335">
<rect width="100.5" height="29.1079" fill="white" transform="translate(0 0.0635376)"/>
</clipPath>
</defs>
</svg>
